{
copyright = "Copyright 2014-2022 Indian Type Foundry. All rights reserved.";
designer = "Shiva Nallaperumal";
designerURL = "https://www.indiantypefoundry.com/designers";
familyName = "Rozha One";
customParameters = (
{
name = glyphOrder;
value = (
.notdef,
NULL,
CR,
space,
circledotted,
indianrupee,
ITF,
exclam,
quotedbl,
numbersign,
dollar,
percent,
ampersand,
quotesingle,
parenleft,
parenright,
asterisk,
plus,
comma,
hyphen,
period,
slash,
zero,
one,
two,
three,
four,
five,
six,
seven,
eight,
nine,
colon,
semicolon,
less,
equal,
greater,
question,
at,
A,
B,
C,
D,
E,
F,
G,
H,
I,
J,
K,
L,
M,
N,
O,
P,
Q,
R,
S,
T,
U,
V,
W,
X,
Y,
Z,
bracketleft,
backslash,
bracketright,
asciicircum,
underscore,
grave,
a,
b,
c,
d,
e,
f,
g,
h,
i,
j,
k,
l,
m,
n,
o,
p,
q,
r,
s,
t,
u,
v,
w,
x,
y,
z,
braceleft,
bar,
braceright,
asciitilde,
exclamdown,
cent,
sterling,
currency,
yen,
brokenbar,
section,
dieresis,
copyright,
guillemotleft,
guilsinglleft,
logicalnot,
registered,
macron,
degree,
plusminus,
twosuperior,
threesuperior,
acute,
micro,
paragraph,
periodcentered,
cedilla,
onesuperior,
guillemotright,
guilsinglright,
onequarter,
onehalf,
threequarters,
questiondown,
Agrave,
grave.cap,
Aacute,
acute.cap,
Acircumflex,
circumflex.cap,
Atilde,
tilde.cap,
Adieresis,
dieresis.cap,
Aring,
ring.cap,
AE,
Ccedilla,
cedilla.cap,
Egrave,
Eacute,
Ecircumflex,
Edieresis,
Igrave,
Iacute,
Icircumflex,
Idieresis,
Eth,
Ntilde,
Ograve,
Oacute,
Ocircumflex,
Otilde,
Odieresis,
multiply,
Oslash,
Ugrave,
Uacute,
Ucircumflex,
Udieresis,
Yacute,
Thorn,
germandbls,
agrave,
aacute,
acircumflex,
circumflex,
atilde,
tilde,
adieresis,
aring,
ring,
ae,
ccedilla,
egrave,
eacute,
ecircumflex,
edieresis,
igrave,
iacute,
icircumflex,
idieresis,
eth,
ntilde,
ograve,
oacute,
ocircumflex,
otilde,
odieresis,
divide,
oslash,
ugrave,
uacute,
ucircumflex,
udieresis,
yacute,
thorn,
ydieresis,
Amacron,
macron.cap,
amacron,
Abreve,
breve.cap,
abreve,
breve,
Aogonek,
ogonek.cap,
aogonek,
ogonek,
Cacute,
cacute,
Ccaron,

glyphs = (
{
glyphname = .notdef;
layers = (
{
layerId = "768AC6A3-7B22-44CA-A065-BD21741E715A";
paths = (
{
closed = 1;
nodes = (
"180 0 LINE",
"570 0 LINE",
"570 701 LINE",
"180 701 LINE"
);
},
{
closed = 1;
nodes = (
"234 651 LINE",
"516 651 LINE",
"516 50 LINE",
"234 50 LINE"
);
}
);
width = 750;
}
);
},
{
glyphname = circledotted;
layers = (
{
layerId = "768AC6A3-7B22-44CA-A065-BD21741E715A";
paths = (
{
closed = 1;
nodes = (
"139 491 OFFCURVE",
"157 472 OFFCURVE",
"183 472 CURVE SMOOTH",
"209 472 OFFCURVE",
"227 491 OFFCURVE",
"227 517 CURVE SMOOTH",
"227 542 OFFCURVE",
"209 561 OFFCURVE",
"183 561 CURVE SMOOTH",
"157 561 OFFCURVE",
"139 542 OFFCURVE",
"139 517 CURVE SMOOTH"
);
},
{
closed = 1;
nodes = (
"57 382 OFFCURVE",
"77 363 OFFCURVE",
"103 363 CURVE SMOOTH",
"127 363 OFFCURVE",
"147 382 OFFCURVE",
"147 407 CURVE SMOOTH",
"147 432 OFFCURVE",
"127 451 OFFCURVE",
"103 451 CURVE SMOOTH",
"77 451 OFFCURVE",
"57 432 OFFCURVE",
"57 407 CURVE SMOOTH"
);
},
{
closed = 1;
nodes = (
"44 256 OFFCURVE",
"63 238 OFFCURVE",
"88 238 CURVE SMOOTH",
"114 238 OFFCURVE",
"132 256 OFFCURVE",
"132 281 CURVE SMOOTH",
"132 307 OFFCURVE",
"114 326 OFFCURVE",
"88 326 CURVE SMOOTH",
"63 326 OFFCURVE",
"44 307 OFFCURVE",
"44 281 CURVE SMOOTH"
);
},
{
closed = 1;
nodes = (
"96 139 OFFCURVE",
"114 121 OFFCURVE",
"140 121 CURVE SMOOTH",
"165 121 OFFCURVE",
"184 139 OFFCURVE",
"184 165 CURVE SMOOTH",
"184 190 OFFCURVE",
"165 209 OFFCURVE",
"140 209 CURVE SMOOTH",
"114 209 OFFCURVE",
"96 190 OFFCURVE",
"96 165 CURVE SMOOTH"
);
},
{
closed = 1;
nodes = (
"197 64 OFFCURVE",
"216 44 OFFCURVE",
"242 44 CURVE SMOOTH",
"267 44 OFFCURVE",
"286 64 OFFCURVE",
"286 90 CURVE SMOOTH",
"286 114 OFFCURVE",
"267 134 OFFCURVE",
"242 134 CURVE SMOOTH",
"216 134 OFFCURVE",
"197 114 OFFCURVE",
"197 90 CURVE SMOOTH"
);
},
{
closed = 1;
nodes = (
"324 48 OFFCURVE",
"342 30 OFFCURVE",
"368 30 CURVE SMOOTH",
"394 30 OFFCURVE",
"413 48 OFFCURVE",
"413 74 CURVE SMOOTH",
"413 100 OFFCURVE",
"394 118 OFFCURVE",
"368 118 CURVE SMOOTH",
"342 118 OFFCURVE",
"324 100 OFFCURVE",
"324 74 CURVE SMOOTH"
);
},
{
closed = 1;
nodes = (
"445 101 OFFCURVE",
"464 83 OFFCURVE",
"489 83 CURVE SMOOTH",
"514 83 OFFCURVE",
"534 101 OFFCURVE",
"534 127 CURVE SMOOTH",
"534 152 OFFCURVE",
"514 171 OFFCURVE",
"489 171 CURVE SMOOTH",
"464 171 OFFCURVE",
"445 152 OFFCURVE",
"445 127 CURVE SMOOTH"
);
},
{
closed = 1;
nodes = (
"518 200 OFFCURVE",
"537 181 OFFCURVE",
"563 181 CURVE SMOOTH",
"587 181 OFFCURVE",
"606 200 OFFCURVE",
"606 225 CURVE SMOOTH",
"606 251 OFFCURVE",
"587 270 OFFCURVE",
"563 270 CURVE SMOOTH",
"537 270 OFFCURVE",
"518 251 OFFCURVE",
"518 225 CURVE SMOOTH"
);
},
{
closed = 1;
nodes = (
"528 333 OFFCURVE",
"546 315 OFFCURVE",
"572 315 CURVE SMOOTH",
"597 315 OFFCURVE",
"616 333 OFFCURVE",
"616 359 CURVE SMOOTH",
"616 385 OFFCURVE",
"597 403 OFFCURVE",
"572 403 CURVE SMOOTH",
"546 403 OFFCURVE",
"528 385 OFFCURVE",
"528 359 CURVE SMOOTH"
);
},
{
closed = 1;
nodes = (
"478 452 OFFCURVE",
"497 433 OFFCURVE",
"522 433 CURVE SMOOTH",
"548 433 OFFCURVE",
"566 452 OFFCURVE",
"566 477 CURVE SMOOTH",
"566 503 OFFCURVE",
"548 522 OFFCURVE",
"522 522 CURVE SMOOTH",
"497 522 OFFCURVE",
"478 503 OFFCURVE",
"478 477 CURVE SMOOTH"
);
},
{
closed = 1;
nodes = (
"383 521 OFFCURVE",
"402 501 OFFCURVE",
"428 501 CURVE SMOOTH",
"453 501 OFFCURVE",
"471 521 OFFCURVE",
"471 545 CURVE SMOOTH",
"471 571 OFFCURVE",
"453 590 OFFCURVE",
"428 590 CURVE SMOOTH",
"402 590 OFFCURVE",
"383 571 OFFCURVE",
"383 545 CURVE SMOOTH"
);
},
{
closed = 1;
nodes = (
"257 534 OFFCURVE",
"275 516 OFFCURVE",
"301 516 CURVE SMOOTH",
"327 516 OFFCURVE",
"345 534 OFFCURVE",
"345 560 CURVE SMOOTH",
"345 586 OFFCURVE",
"327 604 OFFCURVE",
"301 604 CURVE SMOOTH",
"275 604 OFFCURVE",
"257 586 OFFCURVE",
"257 560 CURVE SMOOTH"
);
}
);
width = 660;
}
);
unicode = 25CC;
},
{
glyphname = indianrupee;
layers = (
{
layerId = "768AC6A3-7B22-44CA-A065-BD21741E715A";
paths = (
{
closed = 1;
nodes = (
"30 437 LINE",
"421 437 LINE",
"421 417 LINE",
"30 417 LINE"
);
},
{
closed = 1;
nodes = (
"30 560 LINE",
"421 560 LINE",
"421 540 LINE",
"30 540 LINE"
);
},
{
closed = 1;
nodes = (
"140 258 LINE",
"325 232 OFFCURVE",
"255 25 OFFCURVE",
"356 25 CURVE SMOOTH",
"374 25 OFFCURVE",
"388 31 OFFCURVE",
"393 34 CURVE",
"399 20 LINE",
"376 3 OFFCURVE",
"345 -4 OFFCURVE",
"304 -4 CURVE SMOOTH",
"80 -4 OFFCURVE",
"145 231 OFFCURVE",
"39 260 CURVE",
"39 280 LINE",
"70 280 LINE SMOOTH",
"159 280 OFFCURVE",
"208 321 OFFCURVE",
"208 407 CURVE SMOOTH",
"208 494 OFFCURVE",
"170 540 OFFCURVE",
"85 540 CURVE",
"85 545 LINE",
"190 545 LINE SMOOTH",
"294 545 OFFCURVE",
"346 486 OFFCURVE",
"346 407 CURVE SMOOTH",
"346 314 OFFCURVE",
"258 269 OFFCURVE",
"140 262 CURVE"
);
}
);
width = 443;
}
);
unicode = 20B9;
},
{
glyphname = ITF;
layers = (
{
layerId = "768AC6A3-7B22-44CA-A065-BD21741E715A";
paths = (
{
closed = 1;
nodes = (
"147 0 LINE",
"343 0 LINE",
"343 634 LINE",
"147 634 LINE"
);
},
{
closed = 1;
nodes = (
"383 449 LINE",
"579 449 LINE",
"579 634 LINE",
"383 634 LINE"
);
},
{
closed = 1;
nodes = (
"619 0 LINE",
"815 0 LINE",
"815 634 LINE",
"619 634 LINE"
);
},
{
closed = 1;
nodes = (
"855 449 LINE",
"1051 449 LINE",
"1051 634 LINE",
"855 634 LINE"
);
},
{
closed = 1;
nodes = (
"1091 0 LINE",
"1287 0 LINE",
"1287 634 LINE",
"1091 634 LINE"
);
},
{
closed = 1;
nodes = (
"1327 449 LINE",
"1523 449 LINE",
"1523 634 LINE",
"1327 634 LINE"
);
},
{
closed = 1;
nodes = (
"1327 224 LINE",
"1523 224 LINE",
"1523 409 LINE",
"1327 409 LINE"
);
}
);
width = 1648;
}
);
},
{
glyphname = exclam;
layers = (
{
layerId = "768AC6A3-7B22-44CA-A065-BD21741E715A";
paths = (
{
closed = 1;
nodes = (
"65 20 OFFCURVE",
"107 -21 OFFCURVE",
"157 -21 CURVE SMOOTH",
"209 -21 OFFCURVE",
"250 20 OFFCURVE",
"250 71 CURVE SMOOTH",
"250 123 OFFCURVE",
"209 164 OFFCURVE",
"157 164 CURVE SMOOTH",
"107 164 OFFCURVE",
"65 123 OFFCURVE",
"65 71 CURVE SMOOTH"
);
},
{
closed = 1;
nodes = (
"164 207 LINE",
"185 336 OFFCURVE",
"267 382 OFFCURVE",
"267 459 CURVE SMOOTH",
"267 514 OFFCURVE",
"237 569 OFFCURVE",
"157 569 CURVE SMOOTH",
"74 569 OFFCURVE",
"45 514 OFFCURVE",
"45 458 CURVE SMOOTH",
"45 379 OFFCURVE",
"130 336 OFFCURVE",
"148 207 CURVE"
);
}
);
width = 312;
}
);
unicode = 0021;
},
{
glyphname = quotedbl;
layers = (
{
layerId = "768AC6A3-7B22-44CA-A065-BD21741E715A";
paths = (
{
closed = 1;
nodes = (
"71 451 LINE",
"90 531 OFFCURVE",
"117 614 OFFCURVE",
"117 650 CURVE SMOOTH",
"117 684 OFFCURVE",
"98 712 OFFCURVE",
"67 712 CURVE SMOOTH",
"34 712 OFFCURVE",
"15 684 OFFCURVE",
"15 649 CURVE SMOOTH",
"15 612 OFFCURVE",
"44 531 OFFCURVE",
"61 451 CURVE"
);
},
{
closed = 1;
nodes = (
"205 451 LINE",
"224 531 OFFCURVE",
"251 614 OFFCURVE",
"251 650 CURVE SMOOTH",
"251 684 OFFCURVE",
"232 712 OFFCURVE",
"201 712 CURVE SMOOTH",
"168 712 OFFCURVE",
"149 684 OFFCURVE",
"149 649 CURVE SMOOTH",
"149 612 OFFCURVE",
"178 531 OFFCURVE",
"195 451 CURVE"
);
}
);
width = 262;
}
);
unicode = 0022;
},
{
glyphname = numbersign;
layers = (
{
layerId = "768AC6A3-7B22-44CA-A065-BD21741E715A";
paths = (
{
closed = 1;
nodes = (
"65 9 LINE",
"86 9 LINE",
"259 568 LINE",
"238 568 LINE"
);
},
{
closed = 1;
nodes = (
"255 7 LINE",
"276 7 LINE",
"449 566 LINE",
"428 566 LINE"
);
},
{
closed = 1;
nodes = (
"448 197 LINE",
"20 197 LINE",
"20 177 LINE",
"448 177 LINE"
);
},
{
closed = 1;
nodes = (
"494 393 LINE",
"61 393 LINE",
"61 373 LINE",
"494 373 LINE"
);
}
);
width = 501;
}
);
unicode = 0023;
},
{
glyphname = dollar;
layers = (
{
layerId = "768AC6A3-7B22-44CA-A065-BD21741E715A";
paths = (
{
closed = 1;
nodes = (
"70 28 OFFCURVE",
"85 40 OFFCURVE",
"107 40 CURVE SMOOTH",
"143 40 OFFCURVE",
"195 -15 OFFCURVE",
"306 -15 CURVE SMOOTH",
"424 -15 OFFCURVE",
"497 42 OFFCURVE",
"508 151 CURVE",
"518 283 OFFCURVE",
"408 318 OFFCURVE",
"318 360 CURVE SMOOTH",
"245 394 OFFCURVE",
"172 410 OFFCURVE",
"172 473 CURVE SMOOTH",
"172 517 OFFCURVE",
"201 550 OFFCURVE",
"251 550 CURVE SMOOTH",
"361 550 OFFCURVE",
"440 483 OFFCURVE",
"440 387 CURVE",
"440 387 OFFCURVE",
"460 387 OFFCURVE",
"460 387 CURVE",
"460 570 LINE",
"460 570 OFFCURVE",
"440 570 OFFCURVE",
"440 570 CURVE",
"440 556 OFFCURVE",
"436 535 OFFCURVE",
"420 535 CURVE SMOOTH",
"390 535 OFFCURVE",
"348 570 OFFCURVE",
"250 570 CURVE SMOOTH",
"156 570 OFFCURVE",
"76 511 OFFCURVE",
"66 407 CURVE SMOOTH",
"55 291 OFFCURVE",
"142 257 OFFCURVE",
"251 208 CURVE SMOOTH",
"331 172 OFFCURVE",
"391 146 OFFCURVE",
"391 93 CURVE SMOOTH",
"391 40 OFFCURVE",
"354 7 OFFCURVE",
"302 7 CURVE SMOOTH",
"173 7 OFFCURVE",
"70 108 OFFCURVE",
"70 233 CURVE",
"50 233 LINE",
"50 0 LINE",
"50 0 OFFCURVE",
"70 0 OFFCURVE",
"70 0 CURVE"
);
},
{
closed = 1;
nodes = (
"274 -51 LINE",
"294 -51 LINE",
"294 633 LINE",
"274 633 LINE"
);
}
);
width = 548;
}
);
unicode = 0024;
},
{
glyphname = percent;
layers = (
{
layerId = "768AC6A3-7B22-44CA-A065-BD21741E715A";
paths = (
{
closed = 1;
nodes = (
"319 520 OFFCURVE",
"267 570 OFFCURVE",
"180 570 CURVE SMOOTH",
"91 570 OFFCURVE",
"40 514 OFFCURVE",
"40 441 CURVE SMOOTH",
"40 365 OFFCURVE",
"81 310 OFFCURVE",
"177 310 CURVE SMOOTH",
"275 310 OFFCURVE",
"319 369 OFFCURVE",
"319 445 CURVE SMOOTH"
);
},
{
closed = 1;
nodes = (
"214 550 OFFCURVE",
"227 518 OFFCURVE",
"227 446 CURVE SMOOTH",
"227 374 OFFCURVE",
"215 329 OFFCURVE",
"181 329 CURVE SMOOTH",
"143 329 OFFCURVE",
"131 373 OFFCURVE",
"131 446 CURVE SMOOTH",
"131 519 OFFCURVE",
"148 550 OFFCURVE",
"180 550 CURVE SMOOTH"
);
},
{
closed = 1;
nodes = (
"156 2 LINE",
"173 -7 LINE",
"466 558 LINE",
"448 567 LINE"
);
},
{
closed = 1;
nodes = (
"590 203 OFFCURVE",
"538 253 OFFCURVE",
"451 253 CURVE SMOOTH",
"362 253 OFFCURVE",
"311 197 OFFCURVE",
"311 124 CURVE SMOOTH",
"311 48 OFFCURVE",
"352 -7 OFFCURVE",
"448 -7 CURVE SMOOTH",
"546 -7 OFFCURVE",
"590 52 OFFCURVE",
"590 128 CURVE SMOOTH"
);
},
{
closed = 1;
nodes = (
"485 233 OFFCURVE",
"498 201 OFFCURVE",
"498 129 CURVE SMOOTH",
"498 57 OFFCURVE",
"486 12 OFFCURVE",
"452 12 CURVE SMOOTH",
"414 12 OFFCURVE",
"402 56 OFFCURVE",
"402 129 CURVE SMOOTH",
"402 202 OFFCURVE",
"419 233 OFFCURVE",
"451 233 CURVE SMOOTH"
);
}
);
width = 630;
}
);
unicode = 0025;
},
{
glyphname = ampersand;
layers = (
{
layerId = "768AC6A3-7B22-44CA-A065-BD21741E715A";
paths = (
{
closed = 1;
nodes = (
"623 370 OFFCURVE",
"503 312 OFFCURVE",
"467 106 CURVE",
"486 104 LINE",
"520 238 OFFCURVE",
"579 313 OFFCURVE",
"626 294 CURVE SMOOTH",
"661 280 OFFCURVE",
"619 208 OFFCURVE",
"689 179 CURVE SMOOTH",
"729 163 OFFCURVE",
"771 180 OFFCURVE",
"788 220 CURVE SMOOTH",
"810 274 OFFCURVE",
"773 319 OFFCURVE",
"730 334 CURVE SMOOTH"
);
},
{
closed = 1;
nodes = (
"234 369 LINE",
"197 368 OFFCURVE",
"154 358 OFFCURVE",
"120 339 CURVE SMOOTH",
"-34 254 OFFCURVE",
"8 -9 OFFCURVE",
"254 -9 CURVE",
"337 -9 OFFCURVE",
"404 3 OFFCURVE",
"450 69 CURVE",
"450 69 OFFCURVE",
"428 83 OFFCURVE",
"428 83 CURVE",
"364 -12 OFFCURVE",
"228 77 OFFCURVE",
"191 161 CURVE SMOOTH",
"152 249 OFFCURVE",
"186 333 OFFCURVE",
"244 356 CURVE"
);
},
{
closed = 1;
nodes = (
"357 549 OFFCURVE",
"388 586 OFFCURVE",
"433 586 CURVE",
"492 586 OFFCURVE",
"511 542 OFFCURVE",
"511 470 CURVE SMOOTH",
"511 421 OFFCURVE",
"491 358 OFFCURVE",
"456 345 CURVE",
"461 329 LINE",
"561 329 OFFCURVE",
"624 386 OFFCURVE",
"624 468 CURVE",
"624 525 OFFCURVE",
"578 606 OFFCURVE",
"433 606 CURVE",
"309 606 OFFCURVE",
"222 527 OFFCURVE",
"222 418 CURVE",
"222 324 OFFCURVE",
"275 230 OFFCURVE",
"343 154 CURVE SMOOTH",
"419 68 OFFCURVE",
"513 -10 OFFCURVE",
"648 -10 CURVE",
"855 -10 OFFCURVE",
"846 216 OFFCURVE",
"846 216 CURVE",
"846 216 OFFCURVE",
"826 216 OFFCURVE",
"826 216 CURVE",
"826 216 OFFCURVE",
"817 105 OFFCURVE",
"692 105 CURVE",
"599 105 OFFCURVE",
"530 169 OFFCURVE",
"462 246 CURVE SMOOTH",
"391 326 OFFCURVE",
"357 436 OFFCURVE",
"357 486 CURVE SMOOTH"
);
}
);
width = 856;
}
);
unicode = 0026;
},
{
glyphname = quotesingle;
layers = (
{
layerId = "768AC6A3-7B22-44CA-A065-BD21741E715A";
paths = (
{
closed = 1;
nodes = (
"100 451 LINE",
"119 531 OFFCURVE",
"146 614 OFFCURVE",
"146 650 CURVE SMOOTH",
"146 684 OFFCURVE",
"127 712 OFFCURVE",
"96 712 CURVE SMOOTH",
"63 712 OFFCURVE",
"44 684 OFFCURVE",
"44 649 CURVE SMOOTH",
"44 612 OFFCURVE",
"73 531 OFFCURVE",
"90 451 CURVE"
);
}
);
width = 181;
}
);
unicode = 0027;
},
{
glyphname = parenleft;
layers = (
{
layerId = "768AC6A3-7B22-44CA-A065-BD21741E715A";
paths = (
{
closed = 1;
nodes = (
"40 73 OFFCURVE",
"186 -65 OFFCURVE",
"309 -82 CURVE",
"309 -62 LINE",
"228 -24 OFFCURVE",
"180 102 OFFCURVE",
"180 285 CURVE SMOOTH",
"180 468 OFFCURVE",
"228 594 OFFCURVE",
"309 632 CURVE",
"309 652 LINE",
"186 635 OFFCURVE",
"40 497 OFFCURVE",
"40 285 CURVE SMOOTH"
);
}
);
width = 319;
}
);
unicode = 0028;
},
{
glyphname = parenright;
layers = (
{
layerId = "768AC6A3-7B22-44CA-A065-BD21741E715A";
paths = (
{
closed = 1;
nodes = (
"279 497 OFFCURVE",
"133 635 OFFCURVE",
"10 652 CURVE",
"10 632 LINE",
"91 594 OFFCURVE",
"139 468 OFFCURVE",
"139 285 CURVE SMOOTH",
"139 102 OFFCURVE",
"91 -24 OFFCURVE",
"10 -62 CURVE",
"10 -82 LINE",
"133 -65 OFFCURVE",
"279 73 OFFCURVE",
"279 285 CURVE SMOOTH"
);
}
);
width = 319;
}
);
unicode = 0029;
},
{
glyphname = asterisk;
layers = (
{
layerId = "768AC6A3-7B22-44CA-A065-BD21741E715A";
paths = (
{
closed = 1;
nodes = (
"158 439 LINE",
"158 389 OFFCURVE",
"119 380 OFFCURVE",
"119 342 CURVE",
"119 320 OFFCURVE",
"127 291 OFFCURVE",
"163 291 CURVE SMOOTH",
"200 291 OFFCURVE",
"208 320 OFFCURVE",
"208 342 CURVE",
"208 381 OFFCURVE",
"169 389 OFFCURVE",
"169 439 CURVE"
);
},
{
closed = 1;
nodes = (
"151 448 LINE",
"109 423 OFFCURVE",
"81 453 OFFCURVE",
"48 433 CURVE",
"30 423 OFFCURVE",
"9 401 OFFCURVE",
"26 370 CURVE",
"45 338 OFFCURVE",
"75 346 OFFCURVE",
"93 356 CURVE",
"127 376 OFFCURVE",
"115 414 OFFCURVE",
"158 439 CURVE"
);
},
{
closed = 1;
nodes = (
"169 439 LINE",
"212 414 OFFCURVE",
"200 376 OFFCURVE",
"235 356 CURVE",
"253 346 OFFCURVE",
"283 338 OFFCURVE",
"302 370 CURVE",
"319 401 OFFCURVE",
"298 423 OFFCURVE",
"279 433 CURVE",
"247 453 OFFCURVE",
"219 423 OFFCURVE",
"176 448 CURVE"
);
},
{
closed = 1;
nodes = (
"176 448 LINE",
"219 473 OFFCURVE",
"247 443 OFFCURVE",
"279 463 CURVE",
"298 473 OFFCURVE",
"319 495 OFFCURVE",
"302 526 CURVE",
"283 558 OFFCURVE",
"253 550 OFFCURVE",
"235 540 CURVE",
"200 520 OFFCURVE",
"212 482 OFFCURVE",
"169 457 CURVE"
);
},
{
closed = 1;
nodes = (
"158 457 LINE",
"115 482 OFFCURVE",
"127 520 OFFCURVE",
"93 540 CURVE",
"75 550 OFFCURVE",
"45 558 OFFCURVE",
"26 526 CURVE",
"9 495 OFFCURVE",
"30 473 OFFCURVE",
"48 463 CURVE",
"81 443 OFFCURVE",
"109 473 OFFCURVE",
"151 448 CURVE"
);
},
{
closed = 1;
nodes = (
"169 457 LINE",
"169 507 OFFCURVE",
"208 515 OFFCURVE",
"208 554 CURVE",
"208 576 OFFCURVE",
"200 605 OFFCURVE",
"163 605 CURVE SMOOTH",
"127 605 OFFCURVE",
"119 576 OFFCURVE",
"119 554 CURVE",
"119 516 OFFCURVE",
"158 507 OFFCURVE",
"158 457 CURVE"
);
},
{
closed = 1;
nodes = (
"151 439 LINE",
"176 439 LINE",
"176 457 LINE",
"151 457 LINE"
);
}
);
width = 328;
}
);
unicode = 002A;
},
{
glyphname = plus;
layers = (
{
layerId = "768AC6A3-7B22-44CA-A065-BD21741E715A";
paths = (
{
closed = 1;
nodes = (
"252 242 LINE",
"252 454 LINE",
"232 454 LINE",
"232 242 LINE",
"20 242 LINE",
"20 222 LINE",
"232 222 LINE",
"232 9 LINE",
"252 9 LINE",
"252 222 LINE",
"465 222 LINE",
"465 242 LINE"
);
}
);
width = 485;
}
);
unicode = 002B;
},
{
glyphname = comma;
layers = (
{
layerId = "768AC6A3-7B22-44CA-A065-BD21741E715A";
paths = (
{
closed = 1;
nodes = (
"74 -148 LINE",
"175 -102 OFFCURVE",
"231 -30 OFFCURVE",
"231 53 CURVE SMOOTH",
"231 106 OFFCURVE",
"195 164 OFFCURVE",
"126 164 CURVE SMOOTH",
"72 164 OFFCURVE",
"37 125 OFFCURVE",
"37 76 CURVE SMOOTH",
"37 23 OFFCURVE",
"78 -1 OFFCURVE",
"112 -1 CURVE SMOOTH",
"132 -1 OFFCURVE",
"136 5 OFFCURVE",
"153 5 CURVE SMOOTH",
"162 5 OFFCURVE",
"171 -1 OFFCURVE",
"171 -12 CURVE SMOOTH",
"171 -56 OFFCURVE",
"127 -95 OFFCURVE",
"67 -130 CURVE"
);
}
);
width = 290;
}
);
unicode = 002C;
},
{
glyphname = hyphen;
layers = (
{
layerId = "768AC6A3-7B22-44CA-A065-BD21741E715A";
paths = (
{
closed = 1;
nodes = (
"40 198 LINE",
"211 198 LINE",
"211 274 LINE",
"40 274 LINE"
);
}
);
width = 251;
}
);
unicode = 002D;
},
{
glyphname = period;
layers = (
{
layerId = "768AC6A3-7B22-44CA-A065-BD21741E715A";
paths = (
{
closed = 1;
nodes = (
"36 20 OFFCURVE",
"78 -21 OFFCURVE",
"128 -21 CURVE SMOOTH",
"180 -21 OFFCURVE",
"221 20 OFFCURVE",
"221 71 CURVE SMOOTH",
"221 123 OFFCURVE",
"180 164 OFFCURVE",
"128 164 CURVE SMOOTH",
"78 164 OFFCURVE",
"36 123 OFFCURVE",
"36 71 CURVE SMOOTH"
);
}
);
width = 255;
}
);
unicode = 002E;
},
{
glyphname = slash;
layers = (
{
layerId = "768AC6A3-7B22-44CA-A065-BD21741E715A";
paths = (
{
closed = 1;
nodes = (
"40 1 LINE",
"59 -5 LINE",
"224 559 LINE",
"206 564 LINE"
);
}
);
width = 264;
}
);
unicode = 002F;
},
{
glyphname = zero;
layers = (
{
layerId = "768AC6A3-7B22-44CA-A065-BD21741E715A";
paths = (
{
closed = 1;
nodes = (
"363 567 OFFCURVE",
"383 448 OFFCURVE",
"383 298 CURVE SMOOTH",
"383 122 OFFCURVE",
"367 8 OFFCURVE",
"286 8 CURVE SMOOTH",
"208 8 OFFCURVE",
"189 122 OFFCURVE",
"189 298 CURVE SMOOTH",
"189 448 OFFCURVE",
"211 567 OFFCURVE",
"286 567 CURVE SMOOTH"
);
},
{
closed = 1;
nodes = (
"433 -12 OFFCURVE",
"532 99 OFFCURVE",
"532 298 CURVE SMOOTH",
"532 453 OFFCURVE",
"451 587 OFFCURVE",
"286 587 CURVE SMOOTH",
"127 587 OFFCURVE",
"40 453 OFFCURVE",
"40 298 CURVE SMOOTH",
"40 99 OFFCURVE",
"134 -12 OFFCURVE",
"286 -12 CURVE SMOOTH"
);
}
);
width = 572;
}
);
unicode = 0030;
},
{
glyphname = one;
layers = (
{
layerId = "768AC6A3-7B22-44CA-A065-BD21741E715A";
paths = (
{
closed = 1;
nodes = (
"277 0 LINE",
"277 582 LINE",
"241 582 LINE",
"40 489 LINE",
"46 470 LINE",
"127 501 LINE",
"127 0 LINE"
);
},
{
closed = 1;
nodes = (
"347 20 LINE",
"47 20 LINE",
"47 0 LINE",
"347 0 LINE"
);
}
);
width = 377;
}
);
unicode = 0031;
},
{
glyphname = two;
layers = (
{
layerId = "768AC6A3-7B22-44CA-A065-BD21741E715A";
paths = (
{
closed = 1;
nodes = (
"460 205 LINE",
"453 150 OFFCURVE",
"410 145 OFFCURVE",
"358 145 CURVE SMOOTH",
"305 145 OFFCURVE",
"266 171 OFFCURVE",
"204 171 CURVE SMOOTH",
"180 171 OFFCURVE",
"154 166 OFFCURVE",
"136 151 CURVE",
"205 254 OFFCURVE",
"468 221 OFFCURVE",
"468 433 CURVE SMOOTH",
"468 531 OFFCURVE",
"367 587 OFFCURVE",
"232 587 CURVE SMOOTH",
"116 587 OFFCURVE",
"42 524 OFFCURVE",
"42 444 CURVE SMOOTH",
"42 393 OFFCURVE",
"74 355 OFFCURVE",
"122 355 CURVE SMOOTH",
"167 355 OFFCURVE",
"193 386 OFFCURVE",
"193 420 CURVE SMOOTH",
"193 499 OFFCURVE",
"108 478 OFFCURVE",
"108 517 CURVE SMOOTH",
"108 545 OFFCURVE",
"156 563 OFFCURVE",
"198 563 CURVE SMOOTH",
"271 563 OFFCURVE",
"305 511 OFFCURVE",
"305 444 CURVE SMOOTH",
"305 331 OFFCURVE",
"175 261 OFFCURVE",
"86 143 CURVE SMOOTH",
"59 107 OFFCURVE",
"34 52 OFFCURVE",
"30 0 CURVE",
"50 0 LINE",
"59 42 OFFCURVE",
"84 65 OFFCURVE",
"123 65 CURVE SMOOTH",
"195 65 OFFCURVE",
"260 -10 OFFCURVE",
"358 -10 CURVE SMOOTH",
"445 -10 OFFCURVE",
"478 67 OFFCURVE",
"478 142 CURVE SMOOTH",
"478 164 OFFCURVE",
"475 185 OFFCURVE",
"470 205 CURVE"
);
}
);
width = 528;
}
);
unicode = 0032;
},
{
glyphname = three;
layers = (
{
layerId = "768AC6A3-7B22-44CA-A065-BD21741E715A";
paths = (
{
closed = 1;
nodes = (
"116 587 OFFCURVE",
"54 527 OFFCURVE",
"54 456 CURVE SMOOTH",
"54 405 OFFCURVE",
"83 374 OFFCURVE",
"127 374 CURVE SMOOTH",
"167 374 OFFCURVE",
"190 402 OFFCURVE",
"190 432 CURVE SMOOTH",
"190 503 OFFCURVE",
"109 481 OFFCURVE",
"109 516 CURVE SMOOTH",
"109 541 OFFCURVE",
"140 564 OFFCURVE",
"189 564 CURVE SMOOTH",
"257 564 OFFCURVE",
"295 513 OFFCURVE",
"295 447 CURVE SMOOTH",
"295 399 OFFCURVE",
"271 323 OFFCURVE",
"175 323 CURVE SMOOTH",
"159 323 LINE",
"159 303 LINE",
"175 303 LINE SMOOTH",
"290 303 OFFCURVE",
"321 254 OFFCURVE",
"321 163 CURVE SMOOTH",
"321 68 OFFCURVE",
"268 8 OFFCURVE",
"191 8 CURVE SMOOTH",
"145 8 OFFCURVE",
"97 25 OFFCURVE",
"97 55 CURVE SMOOTH",
"97 94 OFFCURVE",
"192 67 OFFCURVE",
"192 150 CURVE SMOOTH",
"192 184 OFFCURVE",
"166 215 OFFCURVE",
"121 215 CURVE SMOOTH",
"70 215 OFFCURVE",
"40 177 OFFCURVE",
"40 125 CURVE SMOOTH",
"40 42 OFFCURVE",
"105 -16 OFFCURVE",
"224 -16 CURVE SMOOTH",
"391 -16 OFFCURVE",
"486 51 OFFCURVE",
"486 164 CURVE SMOOTH",
"486 257 OFFCURVE",
"401 313 OFFCURVE",
"282 314 CURVE",
"394 320 OFFCURVE",
"450 380 OFFCURVE",
"450 449 CURVE SMOOTH",
"450 539 OFFCURVE",
"379 587 OFFCURVE",
"222 587 CURVE SMOOTH"
);
}
);
width = 526;
}
);
unicode = 0033;
},
{
glyphname = four;
layers = (
{
layerId = "768AC6A3-7B22-44CA-A065-BD21741E715A";
paths = (
{
closed = 1;
nodes = (
"244 8 LINE",
"394 8 LINE",
"394 582 LINE",
"294 582 LINE",
"10 163 LINE",
"36 163 LINE",
"244 472 LINE"
);
},
{
closed = 1;
nodes = (
"459 20 LINE",
"179 20 LINE",
"179 0 LINE",
"459 0 LINE"
);
},
{
closed = 1;
nodes = (
"488 163 LINE",
"10 163 LINE",
"10 143 LINE",
"488 143 LINE"
);
},
{
closed = 1;
nodes = (
"468 229 LINE",
"468 75 LINE",
"491 75 LINE",
"491 229 LINE"
);
}
);
width = 531;
}
);
unicode = 0034;
},
{
glyphname = five;
layers = (
{
layerId = "768AC6A3-7B22-44CA-A065-BD21741E715A";
paths = (
{
closed = 1;
nodes = (
"75 272 LINE",
"92 268 LINE",
"113 294 OFFCURVE",
"151 318 OFFCURVE",
"199 318 CURVE SMOOTH",
"296 318 OFFCURVE",
"310 253 OFFCURVE",
"310 177 CURVE SMOOTH",
"310 82 OFFCURVE",
"278 14 OFFCURVE",
"181 14 CURVE SMOOTH",
"135 14 OFFCURVE",
"87 31 OFFCURVE",
"87 61 CURVE SMOOTH",
"87 100 OFFCURVE",
"182 73 OFFCURVE",
"182 156 CURVE SMOOTH",
"182 190 OFFCURVE",
"156 221 OFFCURVE",
"111 221 CURVE SMOOTH",
"60 221 OFFCURVE",
"30 183 OFFCURVE",
"30 131 CURVE SMOOTH",
"30 48 OFFCURVE",
"95 -10 OFFCURVE",
"214 -10 CURVE SMOOTH",
"390 -10 OFFCURVE",
"475 67 OFFCURVE",
"475 180 CURVE SMOOTH",
"475 280 OFFCURVE",
"402 347 OFFCURVE",
"235 347 CURVE SMOOTH",
"169 347 OFFCURVE",
"121 326 OFFCURVE",
"101 307 CURVE",
"122 496 LINE",
"171 444 OFFCURVE",
"241 402 OFFCURVE",
"321 402 CURVE SMOOTH",
"405 402 OFFCURVE",
"443 467 OFFCURVE",
"443 549 CURVE SMOOTH",
"443 580 OFFCURVE",
"441 594 OFFCURVE",
"435 617 CURVE",
"425 617 LINE",
"397 553 OFFCURVE",
"360 554 OFFCURVE",
"286 554 CURVE SMOOTH",
"227 554 OFFCURVE",
"146 562 OFFCURVE",
"109 577 CURVE"
);
}
);
width = 515;
}
);
unicode = 0035;
},
{
glyphname = six;
layers = (
{
layerId = "768AC6A3-7B22-44CA-A065-BD21741E715A";
paths = (
{
closed = 1;
nodes = (
"166 240 LINE",
"194 273 OFFCURVE",
"226 301 OFFCURVE",
"274 301 CURVE SMOOTH",
"340 301 OFFCURVE",
"371 244 OFFCURVE",
"371 164 CURVE SMOOTH",
"371 73 OFFCURVE",
"350 8 OFFCURVE",
"289 8 CURVE SMOOTH",
"220 8 OFFCURVE",
"189 91 OFFCURVE",
"189 284 CURVE SMOOTH",
"189 442 OFFCURVE",
"180 564 OFFCURVE",
"315 564 CURVE SMOOTH",
"345 564 OFFCURVE",
"394 553 OFFCURVE",
"401 528 CURVE SMOOTH",
"411 491 OFFCURVE",
"323 473 OFFCURVE",
"357 401 CURVE SMOOTH",
"372 369 OFFCURVE",
"410 356 OFFCURVE",
"449 372 CURVE SMOOTH",
"493 390 OFFCURVE",
"500 438 OFFCURVE",
"484 487 CURVE SMOOTH",
"460 561 OFFCURVE",
"370 588 OFFCURVE",
"314 588 CURVE SMOOTH",
"126 588 OFFCURVE",
"30 471 OFFCURVE",
"30 284 CURVE SMOOTH",
"30 93 OFFCURVE",
"111 -12 OFFCURVE",
"288 -12 CURVE SMOOTH",
"431 -12 OFFCURVE",
"511 60 OFFCURVE",
"511 175 CURVE SMOOTH",
"511 277 OFFCURVE",
"427 333 OFFCURVE",
"311 333 CURVE SMOOTH",
"237 333 OFFCURVE",
"189 302 OFFCURVE",
"164 265 CURVE"
);
}
);
width = 551;
}
);
unicode = 0036;
},
{
glyphname = seven;
layers = (
{
layerId = "768AC6A3-7B22-44CA-A065-BD21741E715A";
paths = (
{
closed = 1;
nodes = (
"409 485 LINE",
"332 309 OFFCURVE",
"129 294 OFFCURVE",
"129 96 CURVE SMOOTH",
"129 37 OFFCURVE",
"158 -12 OFFCURVE",
"225 -12 CURVE SMOOTH",
"276 -12 OFFCURVE",
"313 37 OFFCURVE",
"313 81 CURVE SMOOTH",
"313 121 OFFCURVE",
"295 150 OFFCURVE",
"295 192 CURVE SMOOTH",
"295 366 OFFCURVE",
"452 375 OFFCURVE",
"452 599 CURVE",
"435 599 LINE",
"428 561 OFFCURVE",
"416 534 OFFCURVE",
"379 534 CURVE SMOOTH",
"313 534 OFFCURVE",
"223 592 OFFCURVE",
"127 592 CURVE SMOOTH",
"44 592 OFFCURVE",
"10 533 OFFCURVE",
"10 460 CURVE SMOOTH",
"10 438 OFFCURVE",
"13 395 OFFCURVE",
"19 372 CURVE",
"30 372 LINE",
"32 414 OFFCURVE",
"56 447 OFFCURVE",
"95 447 CURVE SMOOTH",
"146 447 OFFCURVE",
"212 424 OFFCURVE",
"274 424 CURVE SMOOTH",
"336 424 OFFCURVE",
"378 441 OFFCURVE",
"406 488 CURVE"
);
}
);
width = 472;
}
);
unicode = 0037;
},
{
glyphname = eight;
layers = (
{
layerId = "768AC6A3-7B22-44CA-A065-BD21741E715A";
paths = (
{
closed = 1;
nodes = (
"388 -12 OFFCURVE",
"500 52 OFFCURVE",
"500 153 CURVE SMOOTH",
"500 334 OFFCURVE",
"169 400 OFFCURVE",
"169 496 CURVE SMOOTH",
"169 539 OFFCURVE",
"200 566 OFFCURVE",
"255 566 CURVE SMOOTH",
"314 566 OFFCURVE",
"363 522 OFFCURVE",
"363 460 CURVE SMOOTH",
"363 411 OFFCURVE",
"352 347 OFFCURVE",
"327 334 CURVE",
"333 329 LINE",
"417 347 OFFCURVE",
"476 386 OFFCURVE",
"476 458 CURVE SMOOTH",
"476 525 OFFCURVE",
"400 586 OFFCURVE",
"255 586 CURVE SMOOTH",
"141 586 OFFCURVE",
"74 517 OFFCURVE",
"74 438 CURVE SMOOTH",
"74 249 OFFCURVE",
"382 197 OFFCURVE",
"382 100 CURVE SMOOTH",
"382 44 OFFCURVE",
"341 8 OFFCURVE",
"278 8 CURVE SMOOTH",
"225 8 OFFCURVE",
"153 56 OFFCURVE",
"153 133 CURVE SMOOTH",
"153 194 OFFCURVE",
"170 235 OFFCURVE",
"192 284 CURVE",
"185 289 LINE",
"91 272 OFFCURVE",
"30 214 OFFCURVE",
"30 141 CURVE SMOOTH",
"30 22 OFFCURVE",
"152 -12 OFFCURVE",
"278 -12 CURVE SMOOTH"
);
}
);
width = 530;
}
);
unicode = 0038;
},
{
glyphname = nine;
layers = (
{
layerId = "768AC6A3-7B22-44CA-A065-BD21741E715A";
paths = (
{
closed = 1;
nodes = (
"385 336 LINE",
"357 303 OFFCURVE",
"325 275 OFFCURVE",
"277 275 CURVE SMOOTH",
"211 275 OFFCURVE",
"180 332 OFFCURVE",
"180 412 CURVE SMOOTH",
"180 503 OFFCURVE",
"201 568 OFFCURVE",
"262 568 CURVE SMOOTH",
"331 568 OFFCURVE",
"362 485 OFFCURVE",
"362 292 CURVE SMOOTH",
"362 134 OFFCURVE",
"371 12 OFFCURVE",
"236 12 CURVE SMOOTH",
"206 12 OFFCURVE",
"157 23 OFFCURVE",
"150 48 CURVE SMOOTH",
"140 85 OFFCURVE",
"228 103 OFFCURVE",
"194 175 CURVE SMOOTH",
"179 207 OFFCURVE",
"141 220 OFFCURVE",
"102 204 CURVE SMOOTH",
"58 186 OFFCURVE",
"51 138 OFFCURVE",
"67 89 CURVE SMOOTH",
"91 15 OFFCURVE",
"181 -12 OFFCURVE",
"237 -12 CURVE SMOOTH",
"425 -12 OFFCURVE",
"521 105 OFFCURVE",
"521 292 CURVE SMOOTH",
"521 483 OFFCURVE",
"440 588 OFFCURVE",
"263 588 CURVE SMOOTH",
"120 588 OFFCURVE",
"40 516 OFFCURVE",
"40 401 CURVE SMOOTH",
"40 299 OFFCURVE",
"124 243 OFFCURVE",
"240 243 CURVE SMOOTH",
"314 243 OFFCURVE",
"362 274 OFFCURVE",
"387 311 CURVE"
);
}
);
width = 551;
}
);
unicode = 0039;
},
{
glyphname = colon;
layers = (
{
layerId = "768AC6A3-7B22-44CA-A065-BD21741E715A";
paths = (
{
closed = 1;
nodes = (
"36 323 OFFCURVE",
"78 282 OFFCURVE",
"128 282 CURVE SMOOTH",
"180 282 OFFCURVE",
"221 323 OFFCURVE",
"221 374 CURVE SMOOTH",
"221 426 OFFCURVE",
"180 467 OFFCURVE",
"128 467 CURVE SMOOTH",
"78 467 OFFCURVE",
"36 426 OFFCURVE",
"36 374 CURVE SMOOTH"
);
},
{
closed = 1;
nodes = (
"36 20 OFFCURVE",
"78 -21 OFFCURVE",
"128 -21 CURVE SMOOTH",
"180 -21 OFFCURVE",
"221 20 OFFCURVE",
"221 71 CURVE SMOOTH",
"221 123 OFFCURVE",
"180 164 OFFCURVE",
"128 164 CURVE SMOOTH",
"78 164 OFFCURVE",
"36 123 OFFCURVE",
"36 71 CURVE SMOOTH"
);
}
);
width = 264;
}
);
unicode = 003A;
},
{
glyphname = semicolon;
layers = (
{
layerId = "768AC6A3-7B22-44CA-A065-BD21741E715A";
paths = (
{
closed = 1;
nodes = (
"74 -148 LINE",
"175 -102 OFFCURVE",
"231 -30 OFFCURVE",
"231 53 CURVE SMOOTH",
"231 106 OFFCURVE",
"195 164 OFFCURVE",
"126 164 CURVE SMOOTH",
"72 164 OFFCURVE",
"37 125 OFFCURVE",
"37 76 CURVE SMOOTH",
"37 23 OFFCURVE",
"78 -1 OFFCURVE",
"112 -1 CURVE SMOOTH",
"132 -1 OFFCURVE",
"136 5 OFFCURVE",
"153 5 CURVE SMOOTH",
"162 5 OFFCURVE",
"171 -1 OFFCURVE",
"171 -12 CURVE SMOOTH",
"171 -56 OFFCURVE",
"127 -95 OFFCURVE",
"67 -130 CURVE"
);
},
{
closed = 1;
nodes = (
"36 323 OFFCURVE",
"78 282 OFFCURVE",
"128 282 CURVE SMOOTH",
"180 282 OFFCURVE",
"221 323 OFFCURVE",
"221 374 CURVE SMOOTH",
"221 426 OFFCURVE",
"180 467 OFFCURVE",
"128 467 CURVE SMOOTH",
"78 467 OFFCURVE",
"36 426 OFFCURVE",
"36 374 CURVE SMOOTH"
);
}
);
width = 264;
}
);
unicode = 003B;
},
{
glyphname = less;
layers = (
{
layerId = "768AC6A3-7B22-44CA-A065-BD21741E715A";
paths = (
{
closed = 1;
nodes = (
"453 45 LINE",
"61 242 LINE",
"453 439 LINE",
"453 461 LINE",
"30 249 LINE",
"30 236 LINE",
"453 22 LINE"
);
}
);
width = 483;
}
);
unicode = 003C;
},
{
glyphname = equal;
layers = (
{
layerId = "768AC6A3-7B22-44CA-A065-BD21741E715A";
paths = (
{
closed = 1;
nodes = (
"435 321 LINE",
"30 321 LINE",
"30 301 LINE",
"435 301 LINE"
);
},
{
closed = 1;
nodes = (
"435 166 LINE",
"30 166 LINE",
"30 145 LINE",
"435 145 LINE"
);
}
);
width = 465;
}
);
unicode = 003D;
},
{
glyphname = greater;
layers = (
{
layerId = "768AC6A3-7B22-44CA-A065-BD21741E715A";
paths = (
{
closed = 1;
nodes = (
"30 22 LINE",
"453 236 LINE",
"453 249 LINE",
"30 461 LINE",
"30 439 LINE",
"422 242 LINE",
"30 45 LINE"
);
}
);
width = 483;
}
);
unicode = 003E;
},
{
glyphname = question;
layers = (
{
layerId = "768AC6A3-7B22-44CA-A065-BD21741E715A";
paths = (
{
closed = 1;
nodes = (
"110 20 OFFCURVE",
"152 -21 OFFCURVE",
"202 -21 CURVE SMOOTH",
"254 -21 OFFCURVE",
"295 20 OFFCURVE",
"295 71 CURVE SMOOTH",
"295 123 OFFCURVE",
"254 164 OFFCURVE",
"202 164 CURVE SMOOTH",
"152 164 OFFCURVE",
"110 123 OFFCURVE",
"110 71 CURVE SMOOTH"
);
},
{
closed = 1;
nodes = (
"85 570 OFFCURVE",
"10 507 OFFCURVE",
"10 434 CURVE SMOOTH",
"10 389 OFFCURVE",
"41 354 OFFCURVE",
"88 354 CURVE SMOOTH",
"115 354 OFFCURVE",
"147 381 OFFCURVE",
"147 413 CURVE SMOOTH",
"147 477 OFFCURVE",
"83 466 OFFCURVE",
"83 502 CURVE SMOOTH",
"83 520 OFFCURVE",
"140 543 OFFCURVE",
"183 543 CURVE SMOOTH",
"229 543 OFFCURVE",
"285 519 OFFCURVE",
"267 442 CURVE SMOOTH",
"252 377 OFFCURVE",
"144 363 OFFCURVE",
"134 288 CURVE SMOOTH",
"129 247 OFFCURVE",
"151 217 OFFCURVE",
"190 195 CURVE",
"207 195 LINE",
"177 321 OFFCURVE",
"408 267 OFFCURVE",
"421 425 CURVE SMOOTH",
"430 532 OFFCURVE",
"310 570 OFFCURVE",
"203 570 CURVE SMOOTH"
);
}
);
width = 451;
}
);
unicode = 003F;
},
{
glyphname = at;
layers = (
{
layerId = "768AC6A3-7B22-44CA-A065-BD21741E715A";
paths = (
{
closed = 1;
nodes = (
"533 145 LINE",
"533 105 OFFCURVE",
"503 90 OFFCURVE",
"477 90 CURVE SMOOTH",
"429 90 OFFCURVE",
"391 123 OFFCURVE",
"391 239 CURVE",
"391 343 OFFCURVE",
"433 397 OFFCURVE",
"479 397 CURVE SMOOTH",
"497 397 OFFCURVE",
"518 384 OFFCURVE",
"533 353 CURVE"
);
},
{
closed = 1;
nodes = (
"654 418 LINE",
"694 418 LINE",
"694 434 LINE",
"534 434 LINE",
"533 387 LINE",
"514 426 OFFCURVE",
"469 442 OFFCURVE",
"429 442 CURVE SMOOTH",
"346 442 OFFCURVE",
"268 365 OFFCURVE",
"268 239 CURVE",
"268 94 OFFCURVE",
"347 38 OFFCURVE",
"429 38 CURVE SMOOTH",
"490 38 OFFCURVE",
"518 61 OFFCURVE",
"533 85 CURVE",
"533 85 OFFCURVE",
"555 28 OFFCURVE",
"649 28 CURVE",
"795 28 OFFCURVE",
"818 178 OFFCURVE",
"818 248 CURVE",
"818 439 OFFCURVE",
"703 575 OFFCURVE",
"472 575 CURVE",
"271 575 OFFCURVE",
"127 429 OFFCURVE",
"127 238 CURVE",
"127 17 OFFCURVE",
"281 -99 OFFCURVE",
"472 -99 CURVE",
"490 -99 OFFCURVE",
"509 -98 OFFCURVE",
"526 -95 CURVE",
"526 -68 LINE",
"508 -71 OFFCURVE",
"490 -73 OFFCURVE",
"471 -73 CURVE SMOOTH",
"295 -73 OFFCURVE",
"153 31 OFFCURVE",
"153 238 CURVE",
"153 415 OFFCURVE",
"285 550 OFFCURVE",
"471 550 CURVE",
"688 550 OFFCURVE",
"792 425 OFFCURVE",
"792 248 CURVE",
"792 170 OFFCURVE",
"750 70 OFFCURVE",
"701 70 CURVE SMOOTH",
"665 70 OFFCURVE",
"654 90 OFFCURVE",
"654 117 CURVE"
);
}
);
width = 1000;
}
);
unicode = 0040;
},
{
glyphname = A;
layers = (
{
layerId = "768AC6A3-7B22-44CA-A065-BD21741E715A";
paths = (
{
closed = 1;
nodes = (
"390 180 LINE",
"160 180 LINE",
"157 159 LINE",
"390 159 LINE"
);
},
{
closed = 1;
nodes = (
"633 20 LINE",
"370 20 LINE",
"370 0 LINE",
"633 0 LINE"
);
},
{
closed = 1;
nodes = (
"181 20 LINE",
"10 20 LINE",
"10 0 LINE",
"181 0 LINE"
);
},
{
closed = 1;
nodes = (
"331 570 LINE",
"310 570 LINE",
"310 570 OFFCURVE",
"250 392 OFFCURVE",
"250 392 CURVE",
"438 1 LINE",
"594 1 LINE"
);
},
{
closed = 1;
nodes = (
"94 0 LINE",
"331 570 LINE",
"306 570 LINE",
"69 0 LINE"
);
}
);
width = 643;
}
);
unicode = 0041;
},
{
glyphname = B;
layers = (
{
layerId = "768AC6A3-7B22-44CA-A065-BD21741E715A";
paths = (
{
closed = 1;
nodes = (
"392 333 OFFCURVE",
"338 306 OFFCURVE",
"271 306 CURVE",
"240 306 LINE",
"240 540 LINE",
"271 540 LINE",
"339 540 OFFCURVE",
"392 509 OFFCURVE",
"392 421 CURVE SMOOTH"
);
},
{
closed = 1;
nodes = (
"240 20 LINE",
"240 286 LINE",
"272 286 LINE",
"355 286 OFFCURVE",
"426 261 OFFCURVE",
"426 141 CURVE",
"426 61 OFFCURVE",
"374 20 OFFCURVE",
"296 20 CURVE"
);
},
{
closed = 1;
nodes = (
"40 0 LINE",
"239 0 LINE",
"356 0 LINE",
"497 0 OFFCURVE",
"576 51 OFFCURVE",
"576 141 CURVE",
"576 246 OFFCURVE",
"494 292 OFFCURVE",
"406 292 CURVE",
"406 298 LINE",
"484 298 OFFCURVE",
"533 349 OFFCURVE",
"533 418 CURVE SMOOTH",
"533 502 OFFCURVE",
"464 560 OFFCURVE",
"292 560 CURVE SMOOTH",
"40 560 LINE",
"40 540 LINE",
"90 540 LINE",
"90 20 LINE",
"40 20 LINE"
);
}
);
width = 596;
}
);
unicode = 0042;
},
{
glyphname = C;
layers = (
{
layerId = "768AC6A3-7B22-44CA-A065-BD21741E715A";
paths = (
{
closed = 1;
nodes = (
"186 493 OFFCURVE",
"246 553 OFFCURVE",
"308 553 CURVE SMOOTH",
"447 553 OFFCURVE",
"505 428 OFFCURVE",
"505 337 CURVE",
"505 337 OFFCURVE",
"525 337 OFFCURVE",
"525 337 CURVE",
"525 560 LINE",
"525 560 OFFCURVE",
"506 560 OFFCURVE",
"506 560 CURVE",
"506 548 OFFCURVE",
"497 523 OFFCURVE",
"475 523 CURVE SMOOTH",
"443 523 OFFCURVE",
"406 573 OFFCURVE",
"308 573 CURVE SMOOTH",
"150 573 OFFCURVE",
"25 493 OFFCURVE",
"25 286 CURVE",
"25 67 OFFCURVE",
"143 -15 OFFCURVE",
"333 -15 CURVE",
"429 -15 OFFCURVE",
"516 42 OFFCURVE",
"535 181 CURVE",
"515 181 LINE",
"499 64 OFFCURVE",
"420 5 OFFCURVE",
"333 5 CURVE",
"232 5 OFFCURVE",
"186 71 OFFCURVE",
"186 286 CURVE SMOOTH"
);
}
);
width = 560;
}
);
unicode = 0043;
},
{
glyphname = D;
layers = (
{
layerId = "768AC6A3-7B22-44CA-A065-BD21741E715A";
paths = (
{
closed = 1;
nodes = (
"240 540 LINE",
"377 540 OFFCURVE",
"444 439 OFFCURVE",
"444 281 CURVE SMOOTH",
"444 85 OFFCURVE",
"381 20 OFFCURVE",
"240 20 CURVE"
);
},
{
closed = 1;
nodes = (
"290 0 LINE",
"497 0 OFFCURVE",
"595 94 OFFCURVE",
"595 283 CURVE SMOOTH",
"595 416 OFFCURVE",
"495 560 OFFCURVE",
"290 560 CURVE SMOOTH",
"40 560 LINE",
"40 540 LINE",
"90 540 LINE",
"90 20 LINE",
"40 20 LINE",
"40 0 LINE"
);
}
);
width = 615;
}
);
unicode = 0044;
},
{
glyphname = E;
layers = (
{
layerId = "768AC6A3-7B22-44CA-A065-BD21741E715A";
paths = (
{
closed = 1;
nodes = (
"240 20 LINE",
"240 280 LINE",
"280 280 LINE",
"380 280 OFFCURVE",
"390 262 OFFCURVE",
"390 190 CURVE",
"410 190 LINE",
"410 390 LINE",
"390 390 LINE",
"390 322 OFFCURVE",
"380 300 OFFCURVE",
"280 300 CURVE",
"240 300 LINE",
"240 540 LINE",
"330 540 LINE",
"427 540 OFFCURVE",
"480 516 OFFCURVE",
"480 390 CURVE",
"500 390 LINE",
"500 560 LINE",
"40 560 LINE",
"40 540 LINE",
"90 540 LINE",
"90 20 LINE",
"40 20 LINE",
"40 0 LINE",
"510 0 LINE",
"510 190 LINE",
"490 190 LINE",
"490 54 OFFCURVE",
"417 20 OFFCURVE",
"340 20 CURVE"
);
}
);
width = 545;
}
);
unicode = 0045;
},
{
glyphname = F;
layers = (
{
layerId = "768AC6A3-7B22-44CA-A065-BD21741E715A";
paths = (
{
closed = 1;
nodes = (
"500 390 LINE",
"500 540 LINE",
"330 540 LINE",
"427 540 OFFCURVE",
"480 516 OFFCURVE",
"480 390 CURVE"
);
},
{
closed = 1;
nodes = (
"240 560 LINE",
"90 560 LINE",
"90 1 LINE",
"240 1 LINE"
);
},
{
closed = 1;
nodes = (
"390 278 LINE",
"150 278 LINE",
"150 258 LINE",
"390 258 LINE"
);
},
{
closed = 1;
nodes = (
"500 560 LINE",
"40 560 LINE",
"40 540 LINE",
"500 540 LINE"
);
},
{
closed = 1;
nodes = (
"410 168 LINE",
"410 368 LINE",
"390 368 LINE",
"390 300 OFFCURVE",
"380 278 OFFCURVE",
"280 278 CURVE",
"280 258 LINE",
"380 258 OFFCURVE",
"390 240 OFFCURVE",
"390 168 CURVE"
);
},
{
closed = 1;
nodes = (
"300 20 LINE",
"40 20 LINE",
"40 0 LINE",
"300 0 LINE"
);
}
);
width = 530;
}
);
unicode = 0046;
},
{
glyphname = G;
layers = (
{
layerId = "768AC6A3-7B22-44CA-A065-BD21741E715A";
paths = (
{
closed = 1;
nodes = (
"503 54 OFFCURVE",
"522 31 OFFCURVE",
"522 0 CURVE",
"541 0 LINE",
"541 250 LINE",
"588 250 LINE",
"588 270 LINE",
"348 270 LINE",
"348 250 LINE",
"411 250 LINE",
"411 176 LINE",
"411 61 OFFCURVE",
"380 5 OFFCURVE",
"315 5 CURVE",
"239 5 OFFCURVE",
"191 70 OFFCURVE",
"191 270 CURVE",
"191 484 OFFCURVE",
"237 553 OFFCURVE",
"313 553 CURVE SMOOTH",
"418 553 OFFCURVE",
"510 458 OFFCURVE",
"510 357 CURVE",
"530 357 LINE",
"530 560 LINE",
"511 560 LINE",
"511 548 OFFCURVE",
"502 523 OFFCURVE",
"480 523 CURVE SMOOTH",
"448 523 OFFCURVE",
"401 573 OFFCURVE",
"313 573 CURVE SMOOTH",
"138 573 OFFCURVE",
"30 484 OFFCURVE",
"30 270 CURVE",
"30 72 OFFCURVE",
"139 -15 OFFCURVE",
"315 -15 CURVE",
"409 -15 OFFCURVE",
"421 54 OFFCURVE",
"477 54 CURVE SMOOTH"
);
}
);
width = 608;
}
);
unicode = 0047;
},
{
glyphname = H;
layers = (
{
layerId = "768AC6A3-7B22-44CA-A065-BD21741E715A";
paths = (
{
closed = 1;
nodes = (
"464 308 LINE",
"184 308 LINE",
"184 288 LINE",
"464 288 LINE"
);
},
{
closed = 1;
nodes = (
"627 20 LINE",
"377 20 LINE",
"377 0 LINE",
"627 0 LINE"
);
},
{
closed = 1;
nodes = (
"577 560 LINE",
"427 560 LINE",
"427 1 LINE",
"577 1 LINE"
);
},
{
closed = 1;
nodes = (
"627 560 LINE",
"377 560 LINE",
"377 540 LINE",
"627 540 LINE"
);
},
{
closed = 1;
nodes = (
"280 20 LINE",
"30 20 LINE",
"30 0 LINE",
"280 0 LINE"
);
},
{
closed = 1;
nodes = (
"280 560 LINE",
"30 560 LINE",
"30 540 LINE",
"280 540 LINE"
);
},
{
closed = 1;
nodes = (
"230 560 LINE",
"80 560 LINE",
"80 1 LINE",
"230 1 LINE"
);
}
);
width = 657;
}
);
unicode = 0048;
},
{
glyphname = I;
layers = (
{
layerId = "768AC6A3-7B22-44CA-A065-BD21741E715A";
paths = (
{
closed = 1;
nodes = (
"290 0 LINE",
"290 20 LINE",
"240 20 LINE",
"240 540 LINE",
"290 540 LINE",
"290 560 LINE",
"40 560 LINE",
"40 540 LINE",
"90 540 LINE",
"90 20 LINE",
"40 20 LINE",
"40 0 LINE"
);
}
);
width = 330;
}
);
unicode = 0049;
},
{
glyphname = J;
layers = (
{
layerId = "768AC6A3-7B22-44CA-A065-BD21741E715A";
paths = (
{
closed = 1;
nodes = (
"346 0 OFFCURVE",
"420 80 OFFCURVE",
"420 206 CURVE",
"420 540 LINE",
"470 540 LINE",
"470 560 LINE",
"220 560 LINE",
"220 540 LINE",
"270 540 LINE",
"270 197 LINE",
"270 102 OFFCURVE",
"246 23 OFFCURVE",
"151 23 CURVE SMOOTH",
"107 23 OFFCURVE",
"65 45 OFFCURVE",
"65 70 CURVE SMOOTH",
"65 89 OFFCURVE",
"86 87 OFFCURVE",
"110 95 CURVE SMOOTH",
"146 106 OFFCURVE",
"162 131 OFFCURVE",
"162 160 CURVE SMOOTH",
"162 201 OFFCURVE",
"133 232 OFFCURVE",
"93 232 CURVE SMOOTH",
"43 232 OFFCURVE",
"10 188 OFFCURVE",
"10 140 CURVE SMOOTH",
"10 46 OFFCURVE",
"83 0 OFFCURVE",
"184 0 CURVE SMOOTH"
);
}
);
width = 500;
}
);
unicode = 004A;
},
{
glyphname = K;
layers = (
{
layerId = "768AC6A3-7B22-44CA-A065-BD21741E715A";
paths = (
{
closed = 1;
nodes = (
"630 20 LINE",
"370 20 LINE",
"370 0 LINE",
"630 0 LINE"
);
},
{
closed = 1;
nodes = (
"584 560 LINE",
"380 560 LINE",
"380 540 LINE",
"584 540 LINE"
);
},
{
closed = 1;
nodes = (
"290 560 LINE",
"40 560 LINE",
"40 540 LINE",
"290 540 LINE"
);
},
{
closed = 1;
nodes = (
"426 0 LINE",
"598 0 LINE",
"376 400 LINE",
"277 272 LINE"
);
},
{
closed = 1;
nodes = (
"240 560 LINE",
"90 560 LINE",
"90 0 LINE",
"240 0 LINE"
);
},
{
closed = 1;
nodes = (
"232 200 LINE",
"514 559 LINE",
"487 559 LINE",
"205 200 LINE"
);
},
{
closed = 1;
nodes = (
"290 20 LINE",
"40 20 LINE",
"40 0 LINE",
"290 0 LINE"
);
}
);
width = 640;
}
);
unicode = 004B;
},
{
glyphname = L;
layers = (
{
layerId = "768AC6A3-7B22-44CA-A065-BD21741E715A";
paths = (
{
closed = 1;
nodes = (
"300 560 LINE",
"40 560 LINE",
"40 540 LINE",
"300 540 LINE"
);
},
{
closed = 1;
nodes = (
"510 20 LINE",
"40 20 LINE",
"40 0 LINE",
"510 0 LINE"
);
},
{
closed = 1;
nodes = (
"240 560 LINE",
"90 560 LINE",
"90 1 LINE",
"240 1 LINE"
);
},
{
closed = 1;
nodes = (
"510 190 LINE",
"510 20 LINE",
"340 20 LINE",
"417 20 OFFCURVE",
"490 34 OFFCURVE",
"490 190 CURVE"
);
}
);
width = 520;
}
);
unicode = 004C;
},
{
glyphname = M;
layers = (
{
layerId = "768AC6A3-7B22-44CA-A065-BD21741E715A";
paths = (
{
closed = 1;
nodes = (
"754 20 LINE",
"504 20 LINE",
"504 0 LINE",
"754 0 LINE"
);
},
{
closed = 1;
nodes = (
"754 560 LINE",
"704 560 LINE",
"704 540 LINE",
"754 540 LINE"
);
},
{
closed = 1;
nodes = (
"704 560 LINE",
"554 560 LINE",
"554 1 LINE",
"704 1 LINE"
);
},
{
closed = 1;
nodes = (
"356 -10 LINE",
"576 560 LINE",
"554 560 LINE",
"333 -10 LINE"
);
},
{
closed = 1;
nodes = (
"111 12 LINE",
"111 560 LINE",
"91 560 LINE",
"91 12 LINE"
);
},
{
closed = 1;
nodes = (
"191 20 LINE",
"31 20 LINE",
"31 0 LINE",
"191 0 LINE"
);
},
{
closed = 1;
nodes = (
"253 560 LINE",
"93 560 LINE",
"333 -10 LINE",
"333 -10 OFFCURVE",
"413 175 OFFCURVE",
"413 175 CURVE"
);
},
{
closed = 1;
nodes = (
"91 560 LINE",
"30 560 LINE",
"30 540 LINE",
"91 540 LINE"
);
},
{
closed = 1;
nodes = (
"224 560 LINE",
"82 560 LINE",
"82 540 LINE",
"224 540 LINE"
);
}
);
width = 784;
}
);
unicode = 004D;
},
{
glyphname = N;
layers = (
{
layerId = "768AC6A3-7B22-44CA-A065-BD21741E715A";
paths = (
{
closed = 1;
nodes = (
"488 -10 LINE",
"508 -10 LINE",
"508 540 LINE",
"578 540 LINE",
"578 560 LINE",
"408 560 LINE",
"408 540 LINE",
"488 540 LINE",
"488 227 LINE",
"207 560 LINE",
"20 560 LINE",
"20 540 LINE",
"36 540 OFFCURVE",
"57 528 OFFCURVE",
"80 496 CURVE",
"80 20 LINE",
"20 20 LINE",
"20 0 LINE",
"180 0 LINE",
"180 20 LINE",
"100 20 LINE",
"100 471 LINE"
);
}
);
width = 598;
}
);
unicode = 004E;
},
{
glyphname = O;
layers = (
{
layerId = "768AC6A3-7B22-44CA-A065-BD21741E715A";
paths = (
{
closed = 1;
nodes = (
"473 -10 OFFCURVE",
"602 82 OFFCURVE",
"602 281 CURVE",
"602 456 OFFCURVE",
"491 572 OFFCURVE",
"311 572 CURVE SMOOTH",
"137 572 OFFCURVE",
"20 456 OFFCURVE",
"20 281 CURVE",
"20 82 OFFCURVE",
"144 -10 OFFCURVE",
"311 -10 CURVE SMOOTH"
);
},
{
closed = 1;
nodes = (
"393 552 OFFCURVE",
"441 451 OFFCURVE",
"441 281 CURVE",
"441 105 OFFCURVE",
"397 10 OFFCURVE",
"311 10 CURVE SMOOTH",
"228 10 OFFCURVE",
"181 105 OFFCURVE",
"181 281 CURVE",
"181 451 OFFCURVE",
"231 552 OFFCURVE",
"311 552 CURVE SMOOTH"
);
}
);
width = 622;
}
);
unicode = 004F;
},
{
glyphname = P;
layers = (
{
layerId = "768AC6A3-7B22-44CA-A065-BD21741E715A";
paths = (
{
closed = 1;
nodes = (
"290 20 LINE",
"240 20 LINE",
"240 194 LINE",
"438 184 OFFCURVE",
"533 254 OFFCURVE",
"533 371 CURVE",
"533 499 OFFCURVE",
"447 570 OFFCURVE",
"239 560 CURVE",
"40 560 LINE",
"40 540 LINE",
"90 540 LINE",
"90 20 LINE",
"40 20 LINE",
"40 0 LINE",
"290 0 LINE"
);
},
{
closed = 1;
nodes = (
"240 540 LINE",
"352 540 OFFCURVE",
"382 490 OFFCURVE",
"382 372 CURVE",
"382 260 OFFCURVE",
"352 214 OFFCURVE",
"240 214 CURVE"
);
}
);
width = 563;
}
);
unicode = 0050;
},
{
glyphname = Q;
layers = (
{
layerId = "768AC6A3-7B22-44CA-A065-BD21741E715A";
paths = (
{
closed = 1;
nodes = (
"250 -69 LINE",
"465 -32 OFFCURVE",
"642 71 OFFCURVE",
"642 275 CURVE",
"642 443 OFFCURVE",
"515 570 OFFCURVE",
"331 570 CURVE",
"147 570 OFFCURVE",
"30 440 OFFCURVE",
"30 276 CURVE",
"30 92 OFFCURVE",
"147 8 OFFCURVE",
"321 8 CURVE",
"321 28 LINE",
"232 28 OFFCURVE",
"192 132 OFFCURVE",
"192 276 CURVE",
"192 458 OFFCURVE",
"250 550 OFFCURVE",
"331 550 CURVE",
"411 550 OFFCURVE",
"480 464 OFFCURVE",
"480 276 CURVE",
"480 86 OFFCURVE",
"409 -3 OFFCURVE",
"309 -33 CURVE SMOOTH",
"258 -48 OFFCURVE",
"196 -57 OFFCURVE",
"135 -109 CURVE",
"146 -127 LINE",
"173 -106 OFFCURVE",
"202 -92 OFFCURVE",
"233 -92 CURVE SMOOTH",
"365 -92 OFFCURVE",
"421 -262 OFFCURVE",
"558 -262 CURVE SMOOTH",
"673 -262 OFFCURVE",
"702 -174 OFFCURVE",
"702 -32 CURVE",
"682 -32 LINE",
"682 -77 OFFCURVE",
"645 -113 OFFCURVE",
"586 -113 CURVE SMOOTH",
"443 -113 OFFCURVE",
"403 -63 OFFCURVE",
"250 -73 CURVE"
);
}
);
width = 684;
}
);
unicode = 0051;
},
{
glyphname = R;
layers = (
{
layerId = "768AC6A3-7B22-44CA-A065-BD21741E715A";
paths = (
{
closed = 1;
nodes = (
"623 -10 LINE",
"623 10 LINE",
"585 10 OFFCURVE",
"561 46 OFFCURVE",
"534 139 CURVE SMOOTH",
"517 197 OFFCURVE",
"483 271 OFFCURVE",
"395 271 CURVE",
"395 278 LINE",
"483 278 OFFCURVE",
"548 331 OFFCURVE",
"548 411 CURVE",
"548 490 OFFCURVE",
"496 560 OFFCURVE",
"293 560 CURVE",
"30 560 LINE",
"30 540 LINE",
"80 540 LINE",
"80 20 LINE",
"30 20 LINE",
"30 0 LINE",
"280 0 LINE",
"280 20 LINE",
"230 20 LINE",
"230 262 LINE",
"274 262 LINE",
"409 262 OFFCURVE",
"266 -10 OFFCURVE",
"579 -10 CURVE SMOOTH"
);
},
{
closed = 1;
nodes = (
"230 540 LINE",
"369 540 OFFCURVE",
"398 490 OFFCURVE",
"398 412 CURVE",
"398 320 OFFCURVE",
"369 282 OFFCURVE",
"230 282 CURVE"
);
}
);
width = 633;
}
);
unicode = 0052;
},
{
glyphname = S;
layers = (
{
layerId = "768AC6A3-7B22-44CA-A065-BD21741E715A";
paths = (
{
closed = 1;
nodes = (
"80 28 OFFCURVE",
"95 40 OFFCURVE",
"117 40 CURVE SMOOTH",
"153 40 OFFCURVE",
"205 -15 OFFCURVE",
"316 -15 CURVE SMOOTH",
"434 -15 OFFCURVE",
"507 42 OFFCURVE",
"518 151 CURVE",
"528 283 OFFCURVE",
"418 318 OFFCURVE",
"328 360 CURVE SMOOTH",
"255 394 OFFCURVE",
"182 410 OFFCURVE",
"182 473 CURVE SMOOTH",
"182 517 OFFCURVE",
"211 550 OFFCURVE",
"261 550 CURVE SMOOTH",
"371 550 OFFCURVE",
"450 483 OFFCURVE",
"450 387 CURVE",
"450 387 OFFCURVE",
"470 387 OFFCURVE",
"470 387 CURVE",
"470 570 LINE",
"470 570 OFFCURVE",
"450 570 OFFCURVE",
"450 570 CURVE",
"450 556 OFFCURVE",
"446 535 OFFCURVE",
"430 535 CURVE SMOOTH",
"400 535 OFFCURVE",
"358 570 OFFCURVE",
"260 570 CURVE SMOOTH",
"166 570 OFFCURVE",
"86 511 OFFCURVE",
"76 407 CURVE SMOOTH",
"65 291 OFFCURVE",
"152 257 OFFCURVE",
"261 208 CURVE SMOOTH",
"341 172 OFFCURVE",
"401 146 OFFCURVE",
"401 93 CURVE SMOOTH",
"401 40 OFFCURVE",
"364 7 OFFCURVE",
"312 7 CURVE SMOOTH",
"183 7 OFFCURVE",
"80 108 OFFCURVE",
"80 233 CURVE",
"60 233 LINE",
"60 0 LINE",
"60 0 OFFCURVE",
"80 0 OFFCURVE",
"80 0 CURVE"
);
}
);
width = 558;
}
);
unicode = 0053;
},
{
glyphname = T;
layers = (
{
layerId = "768AC6A3-7B22-44CA-A065-BD21741E715A";
paths = (
{
closed = 1;
nodes = (
"549 390 LINE",
"549 560 LINE",
"20 560 LINE",
"20 390 LINE",
"40 390 LINE",
"40 510 OFFCURVE",
"74 540 OFFCURVE",
"179 540 CURVE",
"209 540 LINE",
"209 20 LINE",
"139 20 LINE",
"139 0 LINE",
"429 0 LINE",
"429 20 LINE",
"359 20 LINE",
"359 540 LINE",
"389 540 LINE SMOOTH",
"495 540 OFFCURVE",
"529 510 OFFCURVE",
"529 390 CURVE"
);
}
);
width = 569;
}
);
unicode = 0054;
},
{
glyphname = U;
layers = (
{
layerId = "768AC6A3-7B22-44CA-A065-BD21741E715A";
paths = (
{
closed = 1;
nodes = (
"545 540 LINE",
"595 540 LINE",
"595 560 LINE",
"441 560 LINE",
"441 540 LINE",
"520 540 LINE",
"520 224 LINE SMOOTH",
"520 85 OFFCURVE",
"439 14 OFFCURVE",
"370 14 CURVE SMOOTH",
"277 14 OFFCURVE",
"230 87 OFFCURVE",
"230 223 CURVE SMOOTH",
"230 540 LINE",
"280 540 LINE",
"280 560 LINE",
"20 560 LINE",
"20 540 LINE",
"70 540 LINE",
"70 234 LINE SMOOTH",
"70 63 OFFCURVE",
"171 -15 OFFCURVE",
"327 -15 CURVE SMOOTH",
"471 -15 OFFCURVE",
"545 71 OFFCURVE",
"545 244 CURVE"
);
}
);
width = 605;
}
);
unicode = 0055;
},
{
glyphname = V;
layers = (
{
layerId = "768AC6A3-7B22-44CA-A065-BD21741E715A";
paths = (
{
closed = 1;
nodes = (
"293 560 LINE",
"10 560 LINE",
"10 540 LINE",
"293 540 LINE"
);
},
{
closed = 1;
nodes = (
"616 560 LINE",
"442 560 LINE",
"442 540 LINE",
"616 540 LINE"
);
},
{
closed = 1;
nodes = (
"235 560 LINE",
"49 560 LINE",
"309 0 LINE",
"309 0 OFFCURVE",
"401 180 OFFCURVE",
"401 180 CURVE"
);
},
{
closed = 1;
nodes = (
"335 0 LINE",
"556 560 LINE",
"530 560 LINE",
"309 0 LINE"
);
}
);
width = 626;
}
);
unicode = 0056;
},
{
glyphname = W;
layers = (
{
layerId = "768AC6A3-7B22-44CA-A065-BD21741E715A";
paths = (
{
closed = 1;
nodes = (
"629 0 LINE",
"634 11 LINE",
"630 0 LINE",
"654 0 LINE",
"841 540 LINE",
"909 540 LINE",
"909 560 LINE",
"737 560 LINE",
"737 540 LINE",
"817 540 LINE",
"711 235 LINE",
"577 540 LINE",
"624 540 LINE",
"624 560 LINE",
"350 560 LINE",
"350 540 LINE",
"388 540 LINE",
"455 390 LINE",
"391 231 LINE",
"254 540 LINE",
"303 540 LINE",
"303 560 LINE",
"10 560 LINE",
"10 540 LINE",
"58 540 LINE",
"299 0 LINE",
"323 0 LINE",
"468 362 LINE"
);
}
);
width = 919;
}
);
unicode = 0057;
},
{
glyphname = X;
layers = (
{
layerId = "768AC6A3-7B22-44CA-A065-BD21741E715A";
paths = (
{
closed = 1;
nodes = (
"340 292 LINE",
"520 560 LINE",
"493 560 LINE",
"313 292 LINE"
);
},
{
closed = 1;
nodes = (
"400 540 LINE",
"580 540 LINE",
"580 560 LINE",
"400 560 LINE"
);
},
{
closed = 1;
nodes = (
"190 20 LINE",
"10 20 LINE",
"10 0 LINE",
"190 0 LINE"
);
},
{
closed = 1;
nodes = (
"250 290 LINE",
"70 0 LINE",
"97 0 LINE",
"277 290 LINE"
);
},
{
closed = 1;
nodes = (
"615 20 LINE",
"340 20 LINE",
"340 0 LINE",
"615 0 LINE"
);
},
{
closed = 1;
nodes = (
"242 560 LINE",
"62 560 LINE",
"402 0 LINE",
"402 0 OFFCURVE",
"579 0 OFFCURVE",
"579 0 CURVE"
);
},
{
closed = 1;
nodes = (
"300 560 LINE",
"21 560 LINE",
"21 540 LINE",
"300 540 LINE"
);
}
);
width = 625;
}
);
unicode = 0058;
},
{
glyphname = Y;
layers = (
{
layerId = "768AC6A3-7B22-44CA-A065-BD21741E715A";
paths = (
{
closed = 1;
nodes = (
"431 0 LINE",
"431 20 LINE",
"391 20 LINE",
"391 258 LINE",
"536 540 LINE",
"606 540 LINE",
"606 560 LINE",
"431 560 LINE",
"431 540 LINE",
"511 540 LINE",
"381 288 LINE",
"241 540 LINE",
"290 540 LINE",
"290 560 LINE",
"10 560 LINE",
"10 540 LINE",
"62 540 LINE",
"241 231 LINE",
"241 20 LINE",
"201 20 LINE",
"201 0 LINE"
);
}
);
width = 616;
}
);
unicode = 0059;
},
{
glyphname = Z;
layers = (
{
layerId = "768AC6A3-7B22-44CA-A065-BD21741E715A";
paths = (
{
closed = 1;
nodes = (
"324 560 LINE",
"30 20 LINE",
"30 20 OFFCURVE",
"35 0 OFFCURVE",
"35 0 CURVE",
"184 0 LINE",
"482 540 LINE",
"482 540 OFFCURVE",
"478 560 OFFCURVE",
"478 560 CURVE"
);
},
{
closed = 1;
nodes = (
"30 0 LINE",
"489 0 LINE",
"489 210 LINE",
"469 210 LINE",
"469 44 OFFCURVE",
"416 20 OFFCURVE",
"300 20 CURVE",
"300 20 OFFCURVE",
"30 20 OFFCURVE",
"30 20 CURVE"
);
},
{
closed = 1;
nodes = (
"482 560 LINE",
"60 560 LINE",
"60 370 LINE",
"80 370 LINE",
"80 516 OFFCURVE",
"133 540 OFFCURVE",
"249 540 CURVE",
"249 540 OFFCURVE",
"482 540 OFFCURVE",
"482 540 CURVE"
);
}
);
width = 529;
}
);
unicode = 005A;
},
{
glyphname = bracketleft;
layers = (
{
layerId = "768AC6A3-7B22-44CA-A065-BD21741E715A";
paths = (
{
closed = 1;
nodes = (
"50 -57 LINE",
"260 -57 LINE",
"260 -37 LINE",
"174 -37 LINE",
"174 597 LINE",
"260 597 LINE",
"260 617 LINE",
"50 617 LINE"
);
}
);
width = 270;
}
);
unicode = 005B;
},
{
glyphname = backslash;
layers = (
{
layerId = "768AC6A3-7B22-44CA-A065-BD21741E715A";
paths = (
{
closed = 1;
nodes = (
"58 564 LINE",
"40 559 LINE",
"205 -5 LINE",
"224 1 LINE"
);
}
);
width = 264;
}
);
unicode = 005C;
},
{
glyphname = bracketright;
layers = (
{
layerId = "768AC6A3-7B22-44CA-A065-BD21741E715A";
paths = (
{
closed = 1;
nodes = (
"220 -57 LINE",
"220 617 LINE",
"10 617 LINE",
"10 597 LINE",
"96 597 LINE",
"96 -37 LINE",
"10 -37 LINE",
"10 -57 LINE"
);
}
);
width = 270;
}
);
unicode = 005D;
},
{
glyphname = asciicircum;
layers = (
{
layerId = "768AC6A3-7B22-44CA-A065-BD21741E715A";
paths = (
{
closed = 1;
nodes = (
"171 455 LINE",
"294 198 LINE",
"312 206 LINE",
"177 489 LINE",
"165 489 LINE",
"30 206 LINE",
"47 198 LINE"
);
}
);
width = 342;
}
);
unicode = 005E;
},
{
glyphname = underscore;
layers = (
{
layerId = "768AC6A3-7B22-44CA-A065-BD21741E715A";
paths = (
{
closed = 1;
nodes = (
"30 -64 LINE",
"492 -64 LINE",
"492 -44 LINE",
"30 -44 LINE"
);
}
);
width = 522;
}
);
unicode = 005F;
},
{
glyphname = grave;
layers = (
{
layerId = "768AC6A3-7B22-44CA-A065-BD21741E715A";
paths = (
{
closed = 1;
nodes = (
"339 511 LINE",
"305 560 OFFCURVE",
"330 587 OFFCURVE",
"297 632 CURVE SMOOTH",
"281 654 OFFCURVE",
"248 663 OFFCURVE",
"227 650 CURVE",
"200 638 OFFCURVE",
"190 600 OFFCURVE",
"213 568 CURVE SMOOTH",
"241 529 OFFCURVE",
"290 552 OFFCURVE",
"325 501 CURVE"
);
}
);
width = 539;
}
);
unicode = 0060;
},
{
glyphname = a;
layers = (
{
layerId = "768AC6A3-7B22-44CA-A065-BD21741E715A";
paths = (
{
closed = 1;
nodes = (
"226 34 OFFCURVE",
"186 58 OFFCURVE",
"179 113 CURVE",
"173 187 OFFCURVE",
"223 222 OFFCURVE",
"278 229 CURVE SMOOTH",
"314 234 LINE",
"314 64 LINE",
"301 47 OFFCURVE",
"281 34 OFFCURVE",
"254 34 CURVE SMOOTH"
);
},
{
closed = 1;
nodes = (
"466 -5 OFFCURVE",
"511 6 OFFCURVE",
"525 20 CURVE",
"525 30 LINE",
"480 20 OFFCURVE",
"464 29 OFFCURVE",
"464 102 CURVE SMOOTH",
"464 282 LINE",
"464 423 OFFCURVE",
"408 468 OFFCURVE",
"269 468 CURVE",
"122 468 OFFCURVE",
"61 406 OFFCURVE",
"61 344 CURVE",
"61 303 OFFCURVE",
"95 270 OFFCURVE",
"135 270 CURVE",
"176 270 OFFCURVE",
"209 303 OFFCURVE",
"209 344 CURVE",
"209 390 OFFCURVE",
"153 449 OFFCURVE",
"243 449 CURVE",
"306 449 OFFCURVE",
"314 411 OFFCURVE",
"314 302 CURVE",
"314 253 LINE",
"274 248 LINE SMOOTH",
"95 227 OFFCURVE",
"40 179 OFFCURVE",
"40 93 CURVE",
"40 23 OFFCURVE",
"98 -8 OFFCURVE",
"166 -8 CURVE SMOOTH",
"234 -8 OFFCURVE",
"286 10 OFFCURVE",
"319 44 CURVE",
"336 5 OFFCURVE",
"373 -5 OFFCURVE",
"433 -5 CURVE SMOOTH"
);
}
);
width = 545;
}
);
unicode = 0061;
},
{
glyphname = b;
layers = (
{
layerId = "768AC6A3-7B22-44CA-A065-BD21741E715A";
paths = (
{
closed = 1;
nodes = (
"384 -9 OFFCURVE",
"528 32 OFFCURVE",
"528 230 CURVE SMOOTH",
"528 398 OFFCURVE",
"432 482 OFFCURVE",
"339 482 CURVE SMOOTH",
"289 482 OFFCURVE",
"232 462 OFFCURVE",
"210 424 CURVE",
"210 670 LINE",
"10 670 LINE",
"10 650 LINE",
"60 650 LINE",
"60 0 LINE",
"79 0 LINE",
"79 41 OFFCURVE",
"100 70 OFFCURVE",
"124 70 CURVE SMOOTH",
"178 70 OFFCURVE",
"209 -9 OFFCURVE",
"303 -9 CURVE SMOOTH"
);
},
{
closed = 1;
nodes = (
"210 394 LINE",
"227 428 OFFCURVE",
"251 441 OFFCURVE",
"277 441 CURVE SMOOTH",
"324 441 OFFCURVE",
"377 374 OFFCURVE",
"377 231 CURVE SMOOTH",
"377 81 OFFCURVE",
"327 13 OFFCURVE",
"280 13 CURVE SMOOTH",
"233 13 OFFCURVE",
"210 52 OFFCURVE",
"210 156 CURVE"
);
}
);
width = 558;
}
);
unicode = 0062;
},
{
glyphname = c;
layers = (
{
layerId = "768AC6A3-7B22-44CA-A065-BD21741E715A";
paths = (
{
closed = 1;
nodes = (
"30 68 OFFCURVE",
"121 -9 OFFCURVE",
"291 -9 CURVE SMOOTH",
"369 -9 OFFCURVE",
"433 25 OFFCURVE",
"463 75 CURVE",
"449 85 LINE",
"427 52 OFFCURVE",
"374 24 OFFCURVE",
"328 24 CURVE SMOOTH",
"229 24 OFFCURVE",
"181 98 OFFCURVE",
"181 230 CURVE SMOOTH",
"181 352 OFFCURVE",
"206 441 OFFCURVE",
"271 451 CURVE",
"350 461 OFFCURVE",
"318 389 OFFCURVE",
"318 326 CURVE",
"318 287 OFFCURVE",
"339 263 OFFCURVE",
"381 253 CURVE SMOOTH",
"420 244 OFFCURVE",
"459 264 OFFCURVE",
"470 306 CURVE SMOOTH",
"487 371 OFFCURVE",
"430 470 OFFCURVE",
"274 470 CURVE",
"141 470 OFFCURVE",
"30 395 OFFCURVE",
"30 230 CURVE SMOOTH"
);
}
);
width = 503;
}
);
unicode = 0063;
},
{
glyphname = d;
layers = (
{
layerId = "768AC6A3-7B22-44CA-A065-BD21741E715A";
paths = (
{
closed = 1;
nodes = (
"358 219 LINE",
"358 55 OFFCURVE",
"336 35 OFFCURVE",
"291 28 CURVE SMOOTH",
"238 20 OFFCURVE",
"182 74 OFFCURVE",
"182 229 CURVE",
"182 384 OFFCURVE",
"234 438 OFFCURVE",
"291 438 CURVE SMOOTH",
"314 438 OFFCURVE",
"339 422 OFFCURVE",
"358 384 CURVE"
);
},
{
closed = 1;
nodes = (
"358 0 LINE",
"558 0 LINE",
"558 20 LINE",
"508 20 LINE",
"508 670 LINE",
"308 670 LINE",
"308 650 LINE",
"358 650 LINE",
"358 414 LINE",
"335 462 OFFCURVE",
"279 482 OFFCURVE",
"229 482 CURVE SMOOTH",
"126 482 OFFCURVE",
"30 398 OFFCURVE",
"30 230 CURVE",
"30 70 OFFCURVE",
"128 -12 OFFCURVE",
"229 -12 CURVE SMOOTH",
"279 -12 OFFCURVE",
"335 -4 OFFCURVE",
"358 46 CURVE"
);
}
);
width = 588;
}
);
unicode = 0064;
},
{
glyphname = e;
layers = (
{
layerId = "768AC6A3-7B22-44CA-A065-BD21741E715A";
paths = (
{
closed = 1;
nodes = (
"244 24 OFFCURVE",
"179 69 OFFCURVE",
"179 231 CURVE SMOOTH",
"179 323 OFFCURVE",
"196 450 OFFCURVE",
"260 450 CURVE",
"323 450 OFFCURVE",
"342 322 OFFCURVE",
"342 220 CURVE",
"342 220 OFFCURVE",
"135 220 OFFCURVE",
"135 220 CURVE",
"135 200 LINE",
"482 200 LINE",
"482 405 OFFCURVE",
"371 470 OFFCURVE",
"261 470 CURVE",
"146 470 OFFCURVE",
"30 406 OFFCURVE",
"30 232 CURVE SMOOTH",
"30 33 OFFCURVE",
"168 -10 OFFCURVE",
"290 -10 CURVE",
"361 -10 OFFCURVE",
"442 25 OFFCURVE",
"472 75 CURVE",
"458 85 LINE",
"429 42 OFFCURVE",
"353 24 OFFCURVE",
"317 24 CURVE SMOOTH"
);
}
);
width = 515;
}
);
unicode = 0065;
},
{
glyphname = f;
layers = (
{
layerId = "768AC6A3-7B22-44CA-A065-BD21741E715A";
paths = (
{
closed = 1;
nodes = (
"290 0 LINE",
"290 20 LINE",
"240 20 LINE",
"240 440 LINE",
"370 440 LINE",
"370 460 LINE",
"240 460 LINE",
"240 588 OFFCURVE",
"249 660 OFFCURVE",
"288 660 CURVE",
"315 660 OFFCURVE",
"326 636 OFFCURVE",
"326 591 CURVE",
"326 548 OFFCURVE",
"349 531 OFFCURVE",
"380 531 CURVE SMOOTH",
"407 531 OFFCURVE",
"432 549 OFFCURVE",
"432 582 CURVE SMOOTH",
"432 629 OFFCURVE",
"388 680 OFFCURVE",
"288 680 CURVE SMOOTH",
"149 680 OFFCURVE",
"90 602 OFFCURVE",
"90 460 CURVE",
"30 460 LINE",
"30 440 LINE",
"90 440 LINE",
"90 20 LINE",
"40 20 LINE",
"40 0 LINE"
);
}
);
width = 432;
}
);
unicode = 0066;
},
{
glyphname = g;
layers = (
{
layerId = "768AC6A3-7B22-44CA-A065-BD21741E715A";
paths = (
{
closed = 1;
nodes = (
"416 431 LINE",
"378 452 OFFCURVE",
"360 491 OFFCURVE",
"360 523 CURVE SMOOTH",
"360 565 OFFCURVE",
"384 594 OFFCURVE",
"397 599 CURVE SMOOTH",
"412 605 OFFCURVE",
"420 601 OFFCURVE",
"422 592 CURVE SMOOTH",
"423 586 OFFCURVE",
"418 581 OFFCURVE",
"415 575 CURVE SMOOTH",
"411 568 OFFCURVE",
"407 558 OFFCURVE",
"407 548 CURVE SMOOTH",
"407 515 OFFCURVE",
"430 484 OFFCURVE",
"470 484 CURVE SMOOTH",
"509 484 OFFCURVE",
"533 516 OFFCURVE",
"533 551 CURVE",
"533 590 OFFCURVE",
"504 629 OFFCURVE",
"449 629 CURVE SMOOTH",
"382 629 OFFCURVE",
"340 589 OFFCURVE",
"340 522 CURVE SMOOTH",
"340 482 OFFCURVE",
"363 440 OFFCURVE",
"411 418 CURVE"
);
},
{
closed = 1;
nodes = (
"315 449 OFFCURVE",
"345 423 OFFCURVE",
"345 298 CURVE SMOOTH",
"345 184 OFFCURVE",
"315 150 OFFCURVE",
"264 150 CURVE SMOOTH",
"219 150 OFFCURVE",
"190 185 OFFCURVE",
"190 299 CURVE SMOOTH",
"190 424 OFFCURVE",
"220 449 OFFCURVE",
"261 449 CURVE SMOOTH"
);
},
{
closed = 1;
nodes = (
"495 414 OFFCURVE",
"376 469 OFFCURVE",
"273 469 CURVE SMOOTH",
"162 469 OFFCURVE",
"30 416 OFFCURVE",
"30 299 CURVE SMOOTH",
"30 187 OFFCURVE",
"133 130 OFFCURVE",
"256 130 CURVE SMOOTH",
"374 130 OFFCURVE",
"495 184 OFFCURVE",
"495 297 CURVE SMOOTH"
);
},
{
closed = 1;
nodes = (
"196 61 LINE",
"196 61 OFFCURVE",
"160 61 OFFCURVE",
"160 93 CURVE SMOOTH",
"160 134 OFFCURVE",
"187 159 OFFCURVE",
"187 159 CURVE",
"187 159 OFFCURVE",
"179 162 OFFCURVE",
"172 160 CURVE SMOOTH",
"141 152 OFFCURVE",
"64 98 OFFCURVE",
"64 30 CURVE SMOOTH",
"64 -42 OFFCURVE",
"127 -69 OFFCURVE",
"194 -69 CURVE",
"362 -69 LINE SMOOTH",
"473 -69 OFFCURVE",
"487 -117 OFFCURVE",
"434 -157 CURVE SMOOTH",
"405 -179 OFFCURVE",
"360 -201 OFFCURVE",
"288 -201 CURVE SMOOTH",
"172 -201 OFFCURVE",
"86 -147 OFFCURVE",
"116 -38 CURVE",
"85 -39 OFFCURVE",
"36 -61 OFFCURVE",
"31 -115 CURVE SMOOTH",
"23 -197 OFFCURVE",
"157 -221 OFFCURVE",
"288 -221 CURVE",
"440 -221 OFFCURVE",
"506 -129 OFFCURVE",
"516 -75 CURVE SMOOTH",
"530 -1 OFFCURVE",
"493 61 OFFCURVE",
"368 61 CURVE"
);
}
);
width = 553;
}
);
unicode = 0067;
},
{
glyphname = h;
layers = (
{
layerId = "768AC6A3-7B22-44CA-A065-BD21741E715A";
paths = (
{
closed = 1;
nodes = (
"240 670 LINE",
"40 670 LINE",
"40 650 LINE",
"240 650 LINE"
);
},
{
closed = 1;
nodes = (
"240 661 LINE",
"90 661 LINE",
"90 1 LINE",
"240 1 LINE"
);
},
{
closed = 1;
nodes = (
"290 20 LINE",
"40 20 LINE",
"40 0 LINE",
"290 0 LINE"
);
},
{
closed = 1;
nodes = (
"230 351 LINE",
"252 404 OFFCURVE",
"290 431 OFFCURVE",
"331 431 CURVE SMOOTH",
"385 431 OFFCURVE",
"415 398 OFFCURVE",
"415 300 CURVE SMOOTH",
"415 14 LINE",
"565 14 LINE",
"565 278 LINE SMOOTH",
"565 405 OFFCURVE",
"504 471 OFFCURVE",
"387 471 CURVE SMOOTH",
"308 471 OFFCURVE",
"241 429 OFFCURVE",
"230 387 CURVE"
);
},
{
closed = 1;
nodes = (
"615 20 LINE",
"365 20 LINE",
"365 0 LINE",
"615 0 LINE"
);
}
);
width = 645;
}
);
unicode = 0068;
},
{
glyphname = i;
layers = (
{
layerId = "768AC6A3-7B22-44CA-A065-BD21741E715A";
paths = (
{
closed = 1;
nodes = (
"249 641 OFFCURVE",
"210 681 OFFCURVE",
"162 681 CURVE SMOOTH",
"113 681 OFFCURVE",
"73 641 OFFCURVE",
"73 592 CURVE SMOOTH",
"73 544 OFFCURVE",
"113 505 OFFCURVE",
"162 505 CURVE SMOOTH",
"210 505 OFFCURVE",
"249 544 OFFCURVE",
"249 592 CURVE SMOOTH"
);
},
{
closed = 1;
nodes = (
"240 460 LINE",
"240 460 OFFCURVE",
"90 460 OFFCURVE",
"90 460 CURVE",
"90 1 LINE",
"240 1 LINE"
);
},
{
closed = 1;
nodes = (
"230 460 LINE",
"50 460 LINE",
"50 440 LINE",
"230 440 LINE"
);
},
{
closed = 1;
nodes = (
"290 20 LINE",
"40 20 LINE",
"40 0 LINE",
"290 0 LINE"
);
}
);
width = 320;
}
);
unicode = 0069;
},
{
glyphname = j;
layers = (
{
layerId = "768AC6A3-7B22-44CA-A065-BD21741E715A";
paths = (
{
closed = 1;
nodes = (
"100 0 LINE",
"100 -128 OFFCURVE",
"91 -200 OFFCURVE",
"52 -200 CURVE",
"25 -200 OFFCURVE",
"14 -176 OFFCURVE",
"14 -131 CURVE",
"14 -88 OFFCURVE",
"-9 -71 OFFCURVE",
"-40 -71 CURVE SMOOTH",
"-67 -71 OFFCURVE",
"-92 -89 OFFCURVE",
"-92 -122 CURVE SMOOTH",
"-92 -169 OFFCURVE",
"-58 -220 OFFCURVE",
"52 -220 CURVE SMOOTH",
"191 -220 OFFCURVE",
"250 -142 OFFCURVE",
"250 0 CURVE",
"250 0 OFFCURVE",
"250 460 OFFCURVE",
"250 460 CURVE",
"50 460 LINE",
"50 440 LINE",
"100 440 LINE"
);
},
{
closed = 1;
nodes = (
"262 641 OFFCURVE",
"223 681 OFFCURVE",
"175 681 CURVE SMOOTH",
"126 681 OFFCURVE",
"86 641 OFFCURVE",
"86 592 CURVE SMOOTH",
"86 544 OFFCURVE",
"126 505 OFFCURVE",
"175 505 CURVE SMOOTH",
"223 505 OFFCURVE",
"262 544 OFFCURVE",
"262 592 CURVE SMOOTH"
);
}
);
width = 332;
}
);
unicode = 006A;
},
{
glyphname = k;
layers = (
{
layerId = "768AC6A3-7B22-44CA-A065-BD21741E715A";
paths = (
{
closed = 1;
nodes = (
"608 20 LINE",
"580 20 OFFCURVE",
"536 56 OFFCURVE",
"479 141 CURVE SMOOTH",
"357 324 LINE",
"245 226 LINE",
"316 117 LINE SMOOTH",
"386 9 OFFCURVE",
"434 0 OFFCURVE",
"608 0 CURVE"
);
},
{
closed = 1;
nodes = (
"558 460 LINE",
"368 460 LINE",
"368 440 LINE",
"558 440 LINE"
);
},
{
closed = 1;
nodes = (
"226 188 LINE",
"498 459 LINE",
"468 459 LINE",
"196 188 LINE"
);
},
{
closed = 1;
nodes = (
"290 20 LINE",
"40 20 LINE",
"40 0 LINE",
"290 0 LINE"
);
},
{
closed = 1;
nodes = (
"240 670 LINE",
"90 670 LINE",
"90 0 LINE",
"240 0 LINE"
);
},
{
closed = 1;
nodes = (
"230 670 LINE",
"40 670 LINE",
"40 650 LINE",
"230 650 LINE"
);
}
);
width = 618;
}
);
unicode = 006B;
},
{
glyphname = l;
layers = (
{
layerId = "768AC6A3-7B22-44CA-A065-BD21741E715A";
paths = (
{
closed = 1;
nodes = (
"230 670 LINE",
"40 670 LINE",
"40 650 LINE",
"230 650 LINE"
);
},
{
closed = 1;
nodes = (
"290 20 LINE",
"40 20 LINE",
"40 0 LINE",
"290 0 LINE"
);
},
{
closed = 1;
nodes = (
"240 670 LINE",
"90 670 LINE",
"90 1 LINE",
"240 1 LINE"
);
}
);
width = 320;
}
);
unicode = 006C;
},
{
glyphname = m;
layers = (
{
layerId = "768AC6A3-7B22-44CA-A065-BD21741E715A";
paths = (
{
closed = 1;
nodes = (
"535 341 LINE",
"554 400 OFFCURVE",
"605 431 OFFCURVE",
"646 431 CURVE SMOOTH",
"700 431 OFFCURVE",
"730 398 OFFCURVE",
"730 300 CURVE SMOOTH",
"730 14 LINE",
"880 14 LINE",
"880 278 LINE SMOOTH",
"880 405 OFFCURVE",
"819 471 OFFCURVE",
"702 471 CURVE SMOOTH",
"623 471 OFFCURVE",
"543 433 OFFCURVE",
"521 365 CURVE"
);
},
{
closed = 1;
nodes = (
"930 20 LINE",
"680 20 LINE",
"680 0 LINE",
"930 0 LINE"
);
},
{
closed = 1;
nodes = (
"290 20 LINE",
"40 20 LINE",
"40 0 LINE",
"290 0 LINE"
);
},
{
closed = 1;
nodes = (
"230 351 LINE",
"252 404 OFFCURVE",
"290 431 OFFCURVE",
"331 431 CURVE SMOOTH",
"385 431 OFFCURVE",
"415 398 OFFCURVE",
"415 300 CURVE SMOOTH",
"415 14 LINE",
"565 14 LINE",
"565 278 LINE SMOOTH",
"565 415 OFFCURVE",
"524 471 OFFCURVE",
"387 471 CURVE SMOOTH",
"308 471 OFFCURVE",
"241 428 OFFCURVE",
"230 387 CURVE"
);
},
{
closed = 1;
nodes = (
"615 20 LINE",
"355 20 LINE",
"355 0 LINE",
"615 0 LINE"
);
},
{
closed = 1;
nodes = (
"240 451 LINE",
"90 451 LINE",
"90 1 LINE",
"240 1 LINE"
);
},
{
closed = 1;
nodes = (
"240 460 LINE",
"40 460 LINE",
"40 440 LINE",
"240 440 LINE"
);
}
);
width = 960;
}
);
unicode = 006D;
},
{
glyphname = n;
layers = (
{
layerId = "768AC6A3-7B22-44CA-A065-BD21741E715A";
paths = (
{
closed = 1;
nodes = (
"240 460 LINE",
"40 460 LINE",
"40 440 LINE",
"240 440 LINE"
);
},
{
closed = 1;
nodes = (
"230 351 LINE",
"252 404 OFFCURVE",
"290 431 OFFCURVE",
"331 431 CURVE SMOOTH",
"385 431 OFFCURVE",
"415 398 OFFCURVE",
"415 300 CURVE SMOOTH",
"415 14 LINE",
"565 14 LINE",
"565 278 LINE SMOOTH",
"565 405 OFFCURVE",
"504 471 OFFCURVE",
"387 471 CURVE SMOOTH",
"308 471 OFFCURVE",
"241 428 OFFCURVE",
"230 387 CURVE"
);
},
{
closed = 1;
nodes = (
"615 20 LINE",
"365 20 LINE",
"365 0 LINE",
"615 0 LINE"
);
},
{
closed = 1;
nodes = (
"290 20 LINE",
"40 20 LINE",
"40 0 LINE",
"290 0 LINE"
);
},
{
closed = 1;
nodes = (
"240 451 LINE",
"90 451 LINE",
"90 1 LINE",
"240 1 LINE"
);
}
);
width = 645;
}
);
unicode = 006E;
},
{
glyphname = o;
layers = (
{
layerId = "768AC6A3-7B22-44CA-A065-BD21741E715A";
paths = (
{
closed = 1;
nodes = (
"396 -10 OFFCURVE",
"534 64 OFFCURVE",
"534 228 CURVE SMOOTH",
"534 398 OFFCURVE",
"396 470 OFFCURVE",
"281 470 CURVE",
"166 470 OFFCURVE",
"30 398 OFFCURVE",
"30 228 CURVE SMOOTH",
"30 64 OFFCURVE",
"166 -10 OFFCURVE",
"281 -10 CURVE SMOOTH"
);
},
{
closed = 1;
nodes = (
"208 10 OFFCURVE",
"183 75 OFFCURVE",
"183 228 CURVE SMOOTH",
"183 385 OFFCURVE",
"208 450 OFFCURVE",
"281 450 CURVE",
"354 450 OFFCURVE",
"381 385 OFFCURVE",
"381 228 CURVE",
"381 75 OFFCURVE",
"354 10 OFFCURVE",
"281 10 CURVE SMOOTH"
);
}
);
width = 564;
}
);
unicode = 006F;
},
{
glyphname = p;
layers = (
{
layerId = "768AC6A3-7B22-44CA-A065-BD21741E715A";
paths = (
{
closed = 1;
nodes = (
"220 460 LINE",
"20 460 LINE",
"20 440 LINE",
"70 440 LINE",
"70 -210 LINE",
"270 -210 LINE",
"270 -190 LINE",
"220 -190 LINE",
"220 46 LINE",
"243 -2 OFFCURVE",
"299 -22 OFFCURVE",
"349 -22 CURVE SMOOTH",
"452 -22 OFFCURVE",
"548 62 OFFCURVE",
"548 230 CURVE",
"548 390 OFFCURVE",
"450 472 OFFCURVE",
"349 472 CURVE SMOOTH",
"299 472 OFFCURVE",
"249 464 OFFCURVE",
"220 414 CURVE"
);
},
{
closed = 1;
nodes = (
"220 241 LINE",
"220 385 OFFCURVE",
"233 432 OFFCURVE",
"297 432 CURVE",
"362 432 OFFCURVE",
"396 386 OFFCURVE",
"396 231 CURVE",
"396 76 OFFCURVE",
"344 22 OFFCURVE",
"287 22 CURVE SMOOTH",
"264 22 OFFCURVE",
"239 38 OFFCURVE",
"220 76 CURVE"
);
}
);
width = 578;
}
);
unicode = 0070;
},
{
glyphname = q;
layers = (
{
layerId = "768AC6A3-7B22-44CA-A065-BD21741E715A";
paths = (
{
closed = 1;
nodes = (
"358 76 LINE",
"339 38 OFFCURVE",
"314 22 OFFCURVE",
"291 22 CURVE SMOOTH",
"234 22 OFFCURVE",
"182 76 OFFCURVE",
"182 231 CURVE",
"182 386 OFFCURVE",
"216 432 OFFCURVE",
"281 432 CURVE",
"345 432 OFFCURVE",
"358 385 OFFCURVE",
"358 241 CURVE"
);
},
{
closed = 1;
nodes = (
"358 414 LINE",
"329 464 OFFCURVE",
"279 472 OFFCURVE",
"229 472 CURVE SMOOTH",
"128 472 OFFCURVE",
"30 390 OFFCURVE",
"30 230 CURVE",
"30 62 OFFCURVE",
"126 -22 OFFCURVE",
"229 -22 CURVE SMOOTH",
"279 -22 OFFCURVE",
"335 -2 OFFCURVE",
"358 46 CURVE",
"358 -190 LINE",
"308 -190 LINE",
"308 -210 LINE",
"558 -210 LINE",
"558 -190 LINE",
"508 -190 LINE",
"508 440 LINE",
"558 440 LINE",
"558 460 LINE",
"358 460 LINE"
);
}
);
width = 578;
}
);
unicode = 0071;
},
{
glyphname = r;
layers = (
{
layerId = "768AC6A3-7B22-44CA-A065-BD21741E715A";
paths = (
{
closed = 1;
nodes = (
"290 0 LINE",
"290 20 LINE",
"240 20 LINE",
"240 211 LINE",
"240 314 OFFCURVE",
"281 415 OFFCURVE",
"305 415 CURVE SMOOTH",
"334 415 OFFCURVE",
"325 346 OFFCURVE",
"372 327 CURVE SMOOTH",
"412 311 OFFCURVE",
"453 330 OFFCURVE",
"468 368 CURVE",
"483 405 OFFCURVE",
"465 449 OFFCURVE",
"427 464 CURVE",
"377 484 OFFCURVE",
"265 479 OFFCURVE",
"240 341 CURVE",
"240 460 LINE",
"40 460 LINE",
"40 440 LINE",
"90 440 LINE",
"90 20 LINE",
"40 20 LINE",
"40 0 LINE"
);
}
);
width = 483;
}
);
unicode = 0072;
},
{
color = (153, 154, 255, 255);
glyphname = s;
layers = (
{
layerId = "7235136D-3CF1-47D2-8391-CCDCEC602622";
name = public.background;
paths = (
{
closed = 1;
nodes = (
"197 8 OFFCURVE",
"114 24 OFFCURVE",
"114 53 CURVE SMOOTH",
"114 75 OFFCURVE",
"145 80 OFFCURVE",
"145 118 CURVE SMOOTH",
"145 148 OFFCURVE",
"115 169 OFFCURVE",
"85 169 CURVE SMOOTH",
"43 169 OFFCURVE",
"30 134 OFFCURVE",
"30 107 CURVE SMOOTH",
"30 41 OFFCURVE",
"113 -12 OFFCURVE",
"260 -12 CURVE SMOOTH",
"396 -12 OFFCURVE",
"456 53 OFFCURVE",
"456 140 CURVE SMOOTH",
"456 327 OFFCURVE",
"131 273 OFFCURVE",
"131 387 CURVE SMOOTH",
"131 420 OFFCURVE",
"170 450 OFFCURVE",
"226 450 CURVE SMOOTH",
"279 450 OFFCURVE",
"335 440 OFFCURVE",
"335 416 CURVE SMOOTH",
"335 392 OFFCURVE",
"304 389 OFFCURVE",
"304 351 CURVE SMOOTH",
"304 321 OFFCURVE",
"334 300 OFFCURVE",
"364 300 CURVE SMOOTH",
"406 300 OFFCURVE",
"419 334 OFFCURVE",
"419 362 CURVE SMOOTH",
"419 427 OFFCURVE",
"351 470 OFFCURVE",
"226 470 CURVE SMOOTH",
"117 470 OFFCURVE",
"31 408 OFFCURVE",
"31 312 CURVE SMOOTH",
"31 127 OFFCURVE",
"364 181 OFFCURVE",
"364 65 CURVE SMOOTH",
"364 29 OFFCURVE",
"334 8 OFFCURVE",
"260 8 CURVE SMOOTH"
);
},
{
closed = 1;
nodes = (
"832 448 OFFCURVE",
"864 429 OFFCURVE",
"865 381 CURVE SMOOTH",
"866 348 OFFCURVE",
"885 334 OFFCURVE",
"911 334 CURVE SMOOTH",
"937 334 OFFCURVE",
"950 352 OFFCURVE",
"950 376 CURVE SMOOTH",
"950 428 OFFCURVE",
"881 470 OFFCURVE",
"766 470 CURVE SMOOTH",
"634 470 OFFCURVE",
"556 408 OFFCURVE",
"556 312 CURVE SMOOTH",
"556 127 OFFCURVE",
"889 181 OFFCURVE",
"889 70 CURVE SMOOTH",
"889 26 OFFCURVE",
"832 8 OFFCURVE",
"768 8 CURVE SMOOTH",
"671 8 OFFCURVE",
"653 35 OFFCURVE",
"653 84 CURVE SMOOTH",
"653 117 OFFCURVE",
"634 136 OFFCURVE",
"603 136 CURVE SMOOTH",
"576 136 OFFCURVE",
"559 115 OFFCURVE",
"559 91 CURVE SMOOTH",
"559 36 OFFCURVE",
"628 -12 OFFCURVE",
"775 -12 CURVE SMOOTH",
"911 -12 OFFCURVE",
"981 53 OFFCURVE",
"981 140 CURVE SMOOTH",
"981 327 OFFCURVE",
"656 273 OFFCURVE",
"656 387 CURVE SMOOTH",
"656 420 OFFCURVE",
"688 450 OFFCURVE",
"766 450 CURVE"
);
}
);
width = 475;
},
{
layerId = "768AC6A3-7B22-44CA-A065-BD21741E715A";
paths = (
{
closed = 1;
nodes = (
"181 8 OFFCURVE",
"108 19 OFFCURVE",
"108 48 CURVE SMOOTH",
"108 67 OFFCURVE",
"128 66 OFFCURVE",
"128 97 CURVE SMOOTH",
"128 121 OFFCURVE",
"109 140 OFFCURVE",
"79 140 CURVE SMOOTH",
"45 140 OFFCURVE",
"29 118 OFFCURVE",
"29 91 CURVE SMOOTH",
"29 19 OFFCURVE",
"118 -12 OFFCURVE",
"239 -12 CURVE SMOOTH",
"381 -12 OFFCURVE",
"456 53 OFFCURVE",
"456 140 CURVE SMOOTH",
"456 327 OFFCURVE",
"131 273 OFFCURVE",
"131 387 CURVE SMOOTH",
"131 420 OFFCURVE",
"163 450 OFFCURVE",
"241 450 CURVE SMOOTH",
"286 450 OFFCURVE",
"340 439 OFFCURVE",
"340 419 CURVE SMOOTH",
"340 404 OFFCURVE",
"323 398 OFFCURVE",
"323 374 CURVE SMOOTH",
"323 347 OFFCURVE",
"344 331 OFFCURVE",
"374 331 CURVE SMOOTH",
"404 331 OFFCURVE",
"420 350 OFFCURVE",
"420 378 CURVE SMOOTH",
"420 436 OFFCURVE",
"337 470 OFFCURVE",
"241 470 CURVE SMOOTH",
"109 470 OFFCURVE",
"31 408 OFFCURVE",
"31 312 CURVE SMOOTH",
"31 127 OFFCURVE",
"364 181 OFFCURVE",
"364 70 CURVE SMOOTH",
"364 26 OFFCURVE",
"303 8 OFFCURVE",
"239 8 CURVE SMOOTH"
);
}
);
width = 475;
}
);
unicode = 0073;
},
{
glyphname = t;
layers = (
{
layerId = "768AC6A3-7B22-44CA-A065-BD21741E715A";
paths = (
{
closed = 1;
nodes = (
"351 44 LINE",
"339 36 OFFCURVE",
"319 34 OFFCURVE",
"298 34 CURVE SMOOTH",
"224 34 OFFCURVE",
"224 118 OFFCURVE",
"224 196 CURVE",
"224 613 LINE",
"210 613 LINE",
"190 518 OFFCURVE",
"134 470 OFFCURVE",
"74 460 CURVE",
"74 173 LINE SMOOTH",
"74 27 OFFCURVE",
"144 -10 OFFCURVE",
"246 -10 CURVE SMOOTH",
"293 -10 OFFCURVE",
"324 5 OFFCURVE",
"351 24 CURVE"
);
},
{
closed = 1;
nodes = (
"0 440 LINE",
"340 440 LINE",
"340 460 LINE",
"0 460 LINE"
);
}
);
width = 361;
}
);
unicode = 0074;
},
{
glyphname = u;
layers = (
{
layerId = "768AC6A3-7B22-44CA-A065-BD21741E715A";
paths = (
{
closed = 1;
nodes = (
"385 0 LINE",
"585 0 LINE",
"585 20 LINE",
"535 20 LINE",
"535 460 LINE",
"335 460 LINE",
"335 440 LINE",
"385 440 LINE",
"385 89 LINE",
"362 49 OFFCURVE",
"329 29 OFFCURVE",
"294 29 CURVE SMOOTH",
"240 29 OFFCURVE",
"210 62 OFFCURVE",
"210 160 CURVE SMOOTH",
"210 460 LINE",
"10 460 LINE",
"10 440 LINE",
"60 440 LINE",
"60 182 LINE SMOOTH",
"60 55 OFFCURVE",
"121 -11 OFFCURVE",
"238 -11 CURVE SMOOTH",
"304 -11 OFFCURVE",
"361 19 OFFCURVE",
"385 53 CURVE"
);
}
);
width = 615;
}
);
unicode = 0075;
},
{
glyphname = v;
layers = (
{
layerId = "768AC6A3-7B22-44CA-A065-BD21741E715A";
paths = (
{
closed = 1;
nodes = (
"526 460 LINE",
"376 460 LINE",
"376 440 LINE",
"526 440 LINE"
);
},
{
closed = 1;
nodes = (
"270 460 LINE",
"10 460 LINE",
"10 440 LINE",
"270 440 LINE"
);
},
{
closed = 1;
nodes = (
"290 0 LINE",
"486 460 LINE",
"464 460 LINE",
"275 19 LINE",
"272 0 LINE"
);
},
{
closed = 1;
nodes = (
"44 452 LINE",
"272 0 LINE",
"349 169 LINE",
"214 452 LINE"
);
}
);
width = 536;
}
);
unicode = 0076;
},
{
glyphname = w;
layers = (
{
layerId = "768AC6A3-7B22-44CA-A065-BD21741E715A";
paths = (
{
closed = 1;
nodes = (
"570 0 LINE",
"591 0 LINE",
"760 440 LINE",
"820 440 LINE",
"820 460 LINE",
"657 460 LINE",
"657 440 LINE",
"737 440 LINE",
"644 198 LINE",
"536 440 LINE",
"580 440 LINE",
"580 460 LINE",
"330 460 LINE",
"330 440 LINE",
"367 440 LINE",
"400 361 LINE",
"335 198 LINE",
"335 198 OFFCURVE",
"227 440 OFFCURVE",
"227 440 CURVE",
"280 440 LINE",
"280 460 LINE",
"10 460 LINE",
"10 440 LINE",
"57 440 LINE",
"260 0 LINE",
"281 0 LINE",
"412 331 LINE"
);
}
);
width = 830;
}
);
unicode = 0077;
},
{
glyphname = x;
layers = (
{
layerId = "768AC6A3-7B22-44CA-A065-BD21741E715A";
paths = (
{
closed = 1;
nodes = (
"182 0 LINE",
"182 20 LINE",
"101 20 LINE",
"228 188 LINE",
"354 20 LINE",
"304 20 LINE",
"304 0 LINE",
"566 0 LINE",
"566 20 LINE",
"526 20 LINE",
"339 270 LINE",
"477 440 LINE",
"537 440 LINE",
"537 460 LINE",
"369 460 LINE",
"369 440 LINE",
"449 440 LINE",
"327 287 LINE",
"213 440 LINE",
"263 440 LINE",
"263 460 LINE",
"0 460 LINE",
"0 440 LINE",
"40 440 LINE",
"214 207 LINE",
"73 20 LINE",
"13 20 LINE",
"13 0 LINE"
);
}
);
width = 576;
}
);
unicode = 0078;
},
{
glyphname = y;
layers = (
{
layerId = "768AC6A3-7B22-44CA-A065-BD21741E715A";
paths = (
{
closed = 1;
nodes = (
"184 -220 OFFCURVE",
"218 -185 OFFCURVE",
"252 -111 CURVE",
"252 -111 OFFCURVE",
"492 440 OFFCURVE",
"492 440 CURVE",
"552 440 LINE",
"552 460 LINE",
"388 460 LINE",
"388 440 LINE",
"468 440 LINE",
"353 176 LINE",
"353 176 OFFCURVE",
"219 440 OFFCURVE",
"219 440 CURVE",
"269 440 LINE",
"269 460 LINE",
"0 460 LINE",
"0 440 LINE",
"40 440 LINE",
"274 -1 LINE",
"232 -100 LINE SMOOTH",
"222 -123 OFFCURVE",
"213 -134 OFFCURVE",
"199 -134 CURVE SMOOTH",
"160 -134 OFFCURVE",
"162 -64 OFFCURVE",
"81 -64 CURVE SMOOTH",
"41 -64 OFFCURVE",
"9 -94 OFFCURVE",
"9 -140 CURVE",
"9 -189 OFFCURVE",
"48 -220 OFFCURVE",
"114 -220 CURVE SMOOTH"
);
}
);
width = 562;
}
);
unicode = 0079;
},
{
glyphname = z;
layers = (
{
layerId = "768AC6A3-7B22-44CA-A065-BD21741E715A";
paths = (
{
closed = 1;
nodes = (
"456 0 LINE",
"456 0 OFFCURVE",
"456 199 OFFCURVE",
"456 199 CURVE",
"456 199 OFFCURVE",
"442 199 OFFCURVE",
"442 199 CURVE",
"442 42 OFFCURVE",
"373 20 OFFCURVE",
"243 20 CURVE",
"243 20 OFFCURVE",
"182 20 OFFCURVE",
"182 20 CURVE",
"182 20 OFFCURVE",
"462 448 OFFCURVE",
"462 448 CURVE",
"462 448 OFFCURVE",
"462 460 OFFCURVE",
"462 460 CURVE",
"462 460 OFFCURVE",
"41 460 OFFCURVE",
"41 460 CURVE",
"41 275 LINE",
"41 275 OFFCURVE",
"57 275 OFFCURVE",
"57 275 CURVE",
"57 402 OFFCURVE",
"132 440 OFFCURVE",
"234 440 CURVE",
"234 440 OFFCURVE",
"293 440 OFFCURVE",
"293 440 CURVE",
"293 440 OFFCURVE",
"10 15 OFFCURVE",
"10 15 CURVE",
"10 15 OFFCURVE",
"10 0 OFFCURVE",
"10 0 CURVE"
);
}
);
width = 502;
}
);
unicode = 007A;
},
{
glyphname = braceleft;
layers = (
{
layerId = "768AC6A3-7B22-44CA-A065-BD21741E715A";
paths = (
{
closed = 1;
nodes = (
"241 231 OFFCURVE",
"208 269 OFFCURVE",
"145 272 CURVE",
"208 272 OFFCURVE",
"241 319 OFFCURVE",
"241 362 CURVE SMOOTH",
"241 412 OFFCURVE",
"214 480 OFFCURVE",
"214 529 CURVE SMOOTH",
"214 582 OFFCURVE",
"228 609 OFFCURVE",
"278 609 CURVE",
"278 629 LINE",
"212 629 LINE",
"153 629 OFFCURVE",
"90 590 OFFCURVE",
"90 501 CURVE SMOOTH",
"90 451 OFFCURVE",
"118 390 OFFCURVE",
"118 354 CURVE SMOOTH",
"118 307 OFFCURVE",
"93 280 OFFCURVE",
"30 280 CURVE",
"30 265 LINE",
"93 265 OFFCURVE",
"118 238 OFFCURVE",
"118 191 CURVE SMOOTH",
"118 155 OFFCURVE",
"90 94 OFFCURVE",
"90 44 CURVE SMOOTH",
"90 -45 OFFCURVE",
"153 -78 OFFCURVE",
"212 -78 CURVE",
"278 -78 LINE",
"278 -58 LINE",
"228 -58 OFFCURVE",
"214 -37 OFFCURVE",
"214 16 CURVE SMOOTH",
"214 65 OFFCURVE",
"241 133 OFFCURVE",
"241 183 CURVE SMOOTH"
);
}
);
width = 288;
}
);
unicode = 007B;
},
{
glyphname = bar;
layers = (
{
layerId = "768AC6A3-7B22-44CA-A065-BD21741E715A";
paths = (
{
closed = 1;
nodes = (
"60 -99 LINE",
"80 -99 LINE",
"80 585 LINE",
"60 585 LINE"
);
}
);
width = 140;
}
);
unicode = 007C;
},
{
glyphname = braceright;
layers = (
{
layerId = "768AC6A3-7B22-44CA-A065-BD21741E715A";
paths = (
{
closed = 1;
nodes = (
"47 133 OFFCURVE",
"74 65 OFFCURVE",
"74 16 CURVE SMOOTH",
"74 -37 OFFCURVE",
"60 -58 OFFCURVE",
"10 -58 CURVE",
"10 -78 LINE",
"76 -78 LINE",
"135 -78 OFFCURVE",
"198 -45 OFFCURVE",
"198 44 CURVE SMOOTH",
"198 94 OFFCURVE",
"170 155 OFFCURVE",
"170 191 CURVE SMOOTH",
"170 238 OFFCURVE",
"195 265 OFFCURVE",
"258 265 CURVE",
"258 280 LINE",
"195 280 OFFCURVE",
"170 307 OFFCURVE",
"170 354 CURVE SMOOTH",
"170 390 OFFCURVE",
"198 451 OFFCURVE",
"198 501 CURVE SMOOTH",
"198 590 OFFCURVE",
"135 629 OFFCURVE",
"76 629 CURVE",
"10 629 LINE",
"10 609 LINE",
"60 609 OFFCURVE",
"74 582 OFFCURVE",
"74 529 CURVE SMOOTH",
"74 480 OFFCURVE",
"47 412 OFFCURVE",
"47 362 CURVE SMOOTH",
"47 319 OFFCURVE",
"80 272 OFFCURVE",
"143 272 CURVE",
"80 269 OFFCURVE",
"47 231 OFFCURVE",
"47 183 CURVE SMOOTH"
);
}
);
width = 288;
}
);
unicode = 007D;
},
{
glyphname = asciitilde;
layers = (
{
layerId = "768AC6A3-7B22-44CA-A065-BD21741E715A";
paths = (
{
closed = 1;
nodes = (
"41 148 OFFCURVE",
"53 148 OFFCURVE",
"53 148 CURVE",
"53 148 OFFCURVE",
"52 156 OFFCURVE",
"52 166 CURVE SMOOTH",
"52 194 OFFCURVE",
"70 215 OFFCURVE",
"97 215 CURVE SMOOTH",
"176 215 OFFCURVE",
"230 157 OFFCURVE",
"321 157 CURVE SMOOTH",
"393 157 OFFCURVE",
"454 212 OFFCURVE",
"454 279 CURVE SMOOTH",
"454 293 OFFCURVE",
"453 308 OFFCURVE",
"447 324 CURVE",
"447 324 OFFCURVE",
"433 324 OFFCURVE",
"431 324 CURVE",
"431 324 OFFCURVE",
"432 315 OFFCURVE",
"432 306 CURVE SMOOTH",
"432 279 OFFCURVE",
"416 257 OFFCURVE",
"386 257 CURVE SMOOTH",
"306 257 OFFCURVE",
"252 315 OFFCURVE",
"162 315 CURVE SMOOTH",
"91 315 OFFCURVE",
"30 262 OFFCURVE",
"30 193 CURVE SMOOTH",
"30 178 OFFCURVE",
"32 164 OFFCURVE",
"37 148 CURVE"
);
}
);
width = 484;
}
);
unicode = 007E;
},
{
color = (153, 154, 255, 255);
glyphname = exclamdown;
layers = (
{
guideLines = (
{
position = "{0, 460}";
}
);
layerId = "768AC6A3-7B22-44CA-A065-BD21741E715A";
paths = (
{
closed = 1;
nodes = (
"85 465 OFFCURVE",
"50 430 OFFCURVE",
"50 390 CURVE SMOOTH",
"50 348 OFFCURVE",
"85 314 OFFCURVE",
"125 314 CURVE SMOOTH",
"167 314 OFFCURVE",
"201 348 OFFCURVE",
"201 390 CURVE SMOOTH",
"201 430 OFFCURVE",
"167 465 OFFCURVE",
"125 465 CURVE SMOOTH"
);
},
{
closed = 1;
nodes = (
"118 280 LINE",
"100 151 OFFCURVE",
"35 68 OFFCURVE",
"35 -11 CURVE SMOOTH",
"35 -67 OFFCURVE",
"64 -112 OFFCURVE",
"127 -112 CURVE SMOOTH",
"187 -112 OFFCURVE",
"217 -67 OFFCURVE",
"217 -12 CURVE SMOOTH",
"217 65 OFFCURVE",
"155 151 OFFCURVE",
"134 280 CURVE"
);
}
);
width = 252;
}
);
unicode = 00A1;
},
{
glyphname = cent;
layers = (
{
layerId = "768AC6A3-7B22-44CA-A065-BD21741E715A";
paths = (
{
closed = 1;
nodes = (
"126 36 LINE",
"144 27 LINE",
"375 468 LINE",
"358 476 LINE",
"324 411 LINE",
"322 376 LINE",
"295 355 LINE"
);
},
{
closed = 1;
nodes = (
"363 223 LINE",
"357 183 OFFCURVE",
"331 142 OFFCURVE",
"281 142 CURVE SMOOTH",
"214 142 OFFCURVE",
"170 196 OFFCURVE",
"170 274 CURVE SMOOTH",
"170 359 OFFCURVE",
"203 425 OFFCURVE",
"260 425 CURVE SMOOTH",
"298 425 OFFCURVE",
"320 407 OFFCURVE",
"320 388 CURVE SMOOTH",
"320 360 OFFCURVE",
"257 377 OFFCURVE",
"257 322 CURVE SMOOTH",
"257 299 OFFCURVE",
"275 277 OFFCURVE",
"306 277 CURVE SMOOTH",
"340 277 OFFCURVE",
"363 301 OFFCURVE",
"363 341 CURVE SMOOTH",
"363 396 OFFCURVE",
"315 443 OFFCURVE",
"232 443 CURVE SMOOTH",
"104 443 OFFCURVE",
"40 354 OFFCURVE",
"40 270 CURVE SMOOTH",
"40 151 OFFCURVE",
"113 89 OFFCURVE",
"225 89 CURVE SMOOTH",
"319 89 OFFCURVE",
"375 147 OFFCURVE",
"375 223 CURVE"
);
}
);
width = 415;
}
);
unicode = 00A2;
},
{
glyphname = sterling;
layers = (
{
layerId = "768AC6A3-7B22-44CA-A065-BD21741E715A";
paths = (
{
closed = 1;
nodes = (
"129 135 LINE",
"174 161 OFFCURVE",
"243 209 OFFCURVE",
"243 288 CURVE SMOOTH",
"243 350 OFFCURVE",
"208 374 OFFCURVE",
"208 446 CURVE SMOOTH",
"208 510 OFFCURVE",
"243 564 OFFCURVE",
"308 564 CURVE SMOOTH",
"358 564 OFFCURVE",
"391 539 OFFCURVE",
"391 518 CURVE SMOOTH",
"391 479 OFFCURVE",
"298 500 OFFCURVE",
"298 421 CURVE SMOOTH",
"298 387 OFFCURVE",
"324 356 OFFCURVE",
"369 356 CURVE SMOOTH",
"417 356 OFFCURVE",
"449 394 OFFCURVE",
"449 445 CURVE SMOOTH",
"449 527 OFFCURVE",
"387 588 OFFCURVE",
"270 588 CURVE SMOOTH",
"158 588 OFFCURVE",
"67 519 OFFCURVE",
"67 412 CURVE SMOOTH",
"67 314 OFFCURVE",
"122 306 OFFCURVE",
"122 217 CURVE SMOOTH",
"122 129 OFFCURVE",
"44 115 OFFCURVE",
"44 -1 CURVE",
"64 -1 LINE",
"73 41 OFFCURVE",
"98 74 OFFCURVE",
"137 74 CURVE SMOOTH",
"209 74 OFFCURVE",
"254 -11 OFFCURVE",
"352 -11 CURVE SMOOTH",
"439 -11 OFFCURVE",
"472 66 OFFCURVE",
"472 141 CURVE SMOOTH",
"472 163 OFFCURVE",
"469 184 OFFCURVE",
"464 204 CURVE",
"454 204 LINE",
"447 149 OFFCURVE",
"404 124 OFFCURVE",
"352 124 CURVE SMOOTH",
"299 124 OFFCURVE",
"260 150 OFFCURVE",
"198 150 CURVE SMOOTH",
"177 150 OFFCURVE",
"152 142 OFFCURVE",
"132 129 CURVE"
);
},
{
closed = 1;
nodes = (
"46 272 LINE",
"380 272 LINE",
"380 292 LINE",
"46 292 LINE"
);
}
);
width = 503;
}
);
unicode = 00A3;
},
{
glyphname = currency;
layers = (
{
layerId = "768AC6A3-7B22-44CA-A065-BD21741E715A";
paths = (
{
closed = 1;
nodes = (
"351 270 OFFCURVE",
"339 299 OFFCURVE",
"321 321 CURVE",
"408 408 LINE",
"394 422 LINE",
"306 335 LINE",
"284 354 OFFCURVE",
"255 365 OFFCURVE",
"224 365 CURVE SMOOTH",
"192 365 OFFCURVE",
"163 354 OFFCURVE",
"141 335 CURVE",
"54 422 LINE",
"40 408 LINE",
"127 320 LINE",
"108 298 OFFCURVE",
"97 270 OFFCURVE",
"97 239 CURVE SMOOTH",
"97 206 OFFCURVE",
"110 176 OFFCURVE",
"130 154 CURVE",
"40 64 LINE",
"54 50 LINE",
"144 140 LINE",
"166 123 OFFCURVE",
"194 112 OFFCURVE",
"224 112 CURVE SMOOTH",
"254 112 OFFCURVE",
"282 123 OFFCURVE",
"303 140 CURVE",
"394 50 LINE",
"408 64 LINE",
"318 154 LINE",
"338 176 OFFCURVE",
"351 206 OFFCURVE",
"351 239 CURVE SMOOTH"
);
},
{
closed = 1;
nodes = (
"165 132 OFFCURVE",
"117 180 OFFCURVE",
"117 239 CURVE SMOOTH",
"117 298 OFFCURVE",
"165 345 OFFCURVE",
"224 345 CURVE SMOOTH",
"283 345 OFFCURVE",
"331 298 OFFCURVE",
"331 239 CURVE SMOOTH",
"331 180 OFFCURVE",
"283 132 OFFCURVE",
"224 132 CURVE SMOOTH"
);
}
);
width = 448;
}
);
unicode = 00A4;
},
{
color = (153, 154, 255, 255);
glyphname = yen;
layers = (
{
layerId = "768AC6A3-7B22-44CA-A065-BD21741E715A";
paths = (
{
closed = 1;
nodes = (
"456 0 LINE",
"456 20 LINE",
"391 20 LINE",
"391 171 LINE",
"546 171 LINE",
"546 191 LINE",
"391 191 LINE",
"391 258 LINE",
"412 300 LINE",
"546 300 LINE",
"546 320 LINE",
"423 320 LINE",
"536 540 LINE",
"606 540 LINE",
"606 560 LINE",
"431 560 LINE",
"431 540 LINE",
"511 540 LINE",
"381 288 LINE",
"241 540 LINE",
"290 540 LINE",
"290 560 LINE",
"10 560 LINE",
"10 540 LINE",
"62 540 LINE",
"190 320 LINE",
"91 320 LINE",
"91 300 LINE",
"201 300 LINE",
"241 231 LINE",
"241 191 LINE",
"91 191 LINE",
"91 171 LINE",
"241 171 LINE",
"241 20 LINE",
"175 20 LINE",
"175 0 LINE"
);
}
);
width = 616;
}
);
unicode = 00A5;
},
{
glyphname = brokenbar;
layers = (
{
layerId = "768AC6A3-7B22-44CA-A065-BD21741E715A";
paths = (
{
closed = 1;
nodes = (
"60 0 LINE",
"80 0 LINE",
"80 227 LINE",
"60 227 LINE"
);
},
{
closed = 1;
nodes = (
"60 333 LINE",
"80 333 LINE",
"80 560 LINE",
"60 560 LINE"
);
}
);
width = 140;
}
);
unicode = 00A6;
},
{
glyphname = section;
layers = (
{
layerId = "768AC6A3-7B22-44CA-A065-BD21741E715A";
paths = (
{
closed = 1;
nodes = (
"154 364 LINE",
"16 364 OFFCURVE",
"-37 203 OFFCURVE",
"100 137 CURVE SMOOTH",
"213 84 LINE SMOOTH",
"265 58 OFFCURVE",
"269 10 OFFCURVE",
"191 10 CURVE SMOOTH",
"139 10 OFFCURVE",
"89 40 OFFCURVE",
"65 121 CURVE",
"65 121 OFFCURVE",
"45 121 OFFCURVE",
"45 121 CURVE",
"45 -3 LINE",
"45 -3 OFFCURVE",
"61 -3 OFFCURVE",
"61 -3 CURVE",
"61 7 OFFCURVE",
"64 18 OFFCURVE",
"79 18 CURVE SMOOTH",
"104 18 OFFCURVE",
"132 -10 OFFCURVE",
"191 -10 CURVE SMOOTH",
"274 -10 OFFCURVE",
"319 31 OFFCURVE",
"327 85 CURVE SMOOTH",
"335 139 OFFCURVE",
"308 185 OFFCURVE",
"246 211 CURVE SMOOTH",
"143 256 LINE SMOOTH",
"73 286 OFFCURVE",
"71 348 OFFCURVE",
"153 348 CURVE"
);
},
{
closed = 1;
nodes = (
"180 477 LINE SMOOTH",
"128 501 OFFCURVE",
"132 550 OFFCURVE",
"191 550 CURVE SMOOTH",
"243 550 OFFCURVE",
"294 521 OFFCURVE",
"317 448 CURVE",
"317 448 OFFCURVE",
"337 448 OFFCURVE",
"337 448 CURVE",
"337 562 LINE",
"337 562 OFFCURVE",
"322 562 OFFCURVE",
"322 562 CURVE",
"322 552 OFFCURVE",
"317 542 OFFCURVE",
"301 542 CURVE SMOOTH",
"278 542 OFFCURVE",
"241 570 OFFCURVE",
"191 570 CURVE SMOOTH",
"109 570 OFFCURVE",
"64 528 OFFCURVE",
"55 475 CURVE SMOOTH",
"47 422 OFFCURVE",
"75 375 OFFCURVE",
"136 348 CURVE SMOOTH",
"240 303 LINE SMOOTH",
"309 274 OFFCURVE",
"311 212 OFFCURVE",
"229 212 CURVE",
"228 197 LINE",
"368 197 OFFCURVE",
"430 357 OFFCURVE",
"292 423 CURVE"
);
}
);
width = 389;
}
);
unicode = 00A7;
},
{
glyphname = dieresis;
layers = (
{
layerId = "768AC6A3-7B22-44CA-A065-BD21741E715A";
paths = (
{
closed = 1;
nodes = (
"325 617 OFFCURVE",
"297 645 OFFCURVE",
"264 645 CURVE SMOOTH",
"229 645 OFFCURVE",
"200 617 OFFCURVE",
"200 582 CURVE SMOOTH",
"200 548 OFFCURVE",
"229 521 OFFCURVE",
"264 521 CURVE SMOOTH",
"297 521 OFFCURVE",
"325 548 OFFCURVE",
"325 582 CURVE SMOOTH"
);
},
{
closed = 1;
nodes = (
"496 617 OFFCURVE",
"470 645 OFFCURVE",
"434 645 CURVE SMOOTH",
"401 645 OFFCURVE",
"373 617 OFFCURVE",
"373 582 CURVE SMOOTH",
"373 548 OFFCURVE",
"401 521 OFFCURVE",
"434 521 CURVE SMOOTH",
"470 521 OFFCURVE",
"496 548 OFFCURVE",
"496 582 CURVE SMOOTH"
);
}
);
width = 696;
}
);
unicode = 00A8;
},
{
glyphname = copyright;
layers = (
{
layerId = "768AC6A3-7B22-44CA-A065-BD21741E715A";
paths = (
{
closed = 1;
nodes = (
"572 431 OFFCURVE",
"451 553 OFFCURVE",
"301 553 CURVE SMOOTH",
"151 553 OFFCURVE",
"30 431 OFFCURVE",
"30 282 CURVE SMOOTH",
"30 131 OFFCURVE",
"151 10 OFFCURVE",
"301 10 CURVE SMOOTH",
"451 10 OFFCURVE",
"572 131 OFFCURVE",
"572 282 CURVE SMOOTH"
);
},
{
closed = 1;
nodes = (
"439 533 OFFCURVE",
"552 419 OFFCURVE",
"552 282 CURVE SMOOTH",
"552 143 OFFCURVE",
"439 30 OFFCURVE",
"301 30 CURVE SMOOTH",
"163 30 OFFCURVE",
"50 143 OFFCURVE",
"50 282 CURVE SMOOTH",
"50 419 OFFCURVE",
"163 533 OFFCURVE",
"301 533 CURVE SMOOTH"
);
},
{
closed = 1;
nodes = (
"438 240 LINE",
"433 204 OFFCURVE",
"409 167 OFFCURVE",
"364 167 CURVE SMOOTH",
"303 167 OFFCURVE",
"264 216 OFFCURVE",
"264 286 CURVE SMOOTH",
"264 363 OFFCURVE",
"293 423 OFFCURVE",
"345 423 CURVE SMOOTH",
"379 423 OFFCURVE",
"399 407 OFFCURVE",
"399 389 CURVE SMOOTH",
"399 364 OFFCURVE",
"342 379 OFFCURVE",
"342 330 CURVE SMOOTH",
"342 309 OFFCURVE",
"359 289 OFFCURVE",
"387 289 CURVE SMOOTH",
"417 289 OFFCURVE",
"438 311 OFFCURVE",
"438 347 CURVE SMOOTH",
"438 397 OFFCURVE",
"395 439 OFFCURVE",
"320 439 CURVE SMOOTH",
"204 439 OFFCURVE",
"146 359 OFFCURVE",
"146 283 CURVE SMOOTH",
"146 175 OFFCURVE",
"212 119 OFFCURVE",
"313 119 CURVE SMOOTH",
"398 119 OFFCURVE",
"449 171 OFFCURVE",
"449 240 CURVE"
);
}
);
width = 602;
}
);
unicode = 00A9;
},
{
glyphname = guilsinglleft;
layers = (
{
layerId = "768AC6A3-7B22-44CA-A065-BD21741E715A";
paths = (
{
closed = 1;
nodes = (
"224 88 LINE",
"224 88 OFFCURVE",
"174 186 OFFCURVE",
"147 226 CURVE",
"177 266 OFFCURVE",
"224 364 OFFCURVE",
"224 364 CURVE",
"212 376 LINE",
"212 376 OFFCURVE",
"59 254 OFFCURVE",
"48 243 CURVE SMOOTH",
"37 232 OFFCURVE",
"38 218 OFFCURVE",
"48 209 CURVE SMOOTH",
"59 199 OFFCURVE",
"212 76 OFFCURVE",
"212 76 CURVE"
);
}
);
width = 264;
}
);
unicode = 2039;
},
{
glyphname = logicalnot;
layers = (
{
layerId = "768AC6A3-7B22-44CA-A065-BD21741E715A";
paths = (
{
closed = 1;
nodes = (
"465 245 LINE",
"40 245 LINE",
"40 225 LINE",
"465 225 LINE"
);
},
{
closed = 1;
nodes = (
"445 245 LINE",
"445 -1 LINE",
"465 -1 LINE",
"465 245 LINE"
);
}
);
width = 505;
}
);
unicode = 00AC;
},
{
glyphname = registered;
layers = (
{
layerId = "7235136D-3CF1-47D2-8391-CCDCEC602622";
name = public.background;
paths = (
{
closed = 1;
nodes = (
"358 279 OFFCURVE",
"312 136 OFFCURVE",
"412 136 CURVE SMOOTH",
"425 136 OFFCURVE",
"453 140 OFFCURVE",
"466 147 CURVE",
"465 154 LINE",
"402 154 OFFCURVE",
"444 290 OFFCURVE",
"332 290 CURVE",
"395 294 OFFCURVE",
"423 321 OFFCURVE",
"423 360 CURVE SMOOTH",
"423 417 OFFCURVE",
"373 436 OFFCURVE",
"290 436 CURVE SMOOTH",
"185 436 LINE",
"185 417 LINE",
"213 417 LINE",
"213 162 LINE",
"185 162 LINE",
"185 143 LINE",
"185 143 OFFCURVE",
"251 143 OFFCURVE",
"310 143 CURVE",
"310 162 LINE",
"279 162 LINE",
"279 207 OFFCURVE",
"279 279 OFFCURVE",
"279 279 CURVE"
);
},
{
closed = 1;
nodes = (
"279 418 LINE",
"330 418 OFFCURVE",
"353 402 OFFCURVE",
"353 357 CURVE SMOOTH",
"353 321 OFFCURVE",
"331 298 OFFCURVE",
"279 298 CURVE"
);
},
{
closed = 1;
nodes = (
"572 431 OFFCURVE",
"451 553 OFFCURVE",
"301 553 CURVE SMOOTH",
"151 553 OFFCURVE",
"30 431 OFFCURVE",
"30 282 CURVE SMOOTH",
"30 131 OFFCURVE",
"151 10 OFFCURVE",
"301 10 CURVE SMOOTH",
"451 10 OFFCURVE",
"572 131 OFFCURVE",
"572 282 CURVE SMOOTH"
);
},
{
closed = 1;
nodes = (
"439 533 OFFCURVE",
"552 419 OFFCURVE",
"552 282 CURVE SMOOTH",
"552 143 OFFCURVE",
"439 30 OFFCURVE",
"301 30 CURVE SMOOTH",
"163 30 OFFCURVE",
"50 143 OFFCURVE",
"50 282 CURVE SMOOTH",
"50 419 OFFCURVE",
"163 533 OFFCURVE",
"301 533 CURVE SMOOTH"
);
}
);
width = 336;
},
{
layerId = "768AC6A3-7B22-44CA-A065-BD21741E715A";
paths = (
{
closed = 1;
nodes = (
"190 432 OFFCURVE",
"167 360 OFFCURVE",
"217 360 CURVE SMOOTH",
"224 360 OFFCURVE",
"243 362 OFFCURVE",
"250 366 CURVE",
"249 369 LINE",
"217 369 OFFCURVE",
"238 438 OFFCURVE",
"181 438 CURVE",
"214 440 OFFCURVE",
"228 454 OFFCURVE",
"228 473 CURVE SMOOTH",
"228 502 OFFCURVE",
"197 512 OFFCURVE",
"155 512 CURVE SMOOTH",
"92 512 LINE",
"92 502 LINE",
"106 502 LINE",
"106 374 LINE",
"92 374 LINE",
"92 364 LINE",
"92 364 OFFCURVE",
"136 364 OFFCURVE",
"166 364 CURVE",
"166 374 LINE",
"150 374 LINE",
"150 396 OFFCURVE",
"150 432 OFFCURVE",
"150 432 CURVE"
);
},
{
closed = 1;
nodes = (
"150 503 LINE",
"176 503 OFFCURVE",
"188 494 OFFCURVE",
"188 472 CURVE SMOOTH",
"188 454 OFFCURVE",
"176 442 OFFCURVE",
"150 442 CURVE"
);
},
{
closed = 1;
nodes = (
"304 511 OFFCURVE",
"249 573 OFFCURVE",
"167 573 CURVE SMOOTH",
"86 573 OFFCURVE",
"30 511 OFFCURVE",
"30 436 CURVE SMOOTH",
"30 360 OFFCURVE",
"86 298 OFFCURVE",
"167 298 CURVE SMOOTH",
"248 298 OFFCURVE",
"304 360 OFFCURVE",
"304 436 CURVE SMOOTH"
);
},
{
closed = 1;
nodes = (
"237 556 OFFCURVE",
"287 501 OFFCURVE",
"287 436 CURVE SMOOTH",
"287 370 OFFCURVE",
"237 316 OFFCURVE",
"167 316 CURVE SMOOTH",
"97 316 OFFCURVE",
"47 370 OFFCURVE",
"47 436 CURVE SMOOTH",
"47 501 OFFCURVE",
"97 556 OFFCURVE",
"167 556 CURVE SMOOTH"
);
}
);
width = 336;
}
);
unicode = 00AE;
},
{
glyphname = macron;
layers = (
{
layerId = "768AC6A3-7B22-44CA-A065-BD21741E715A";
paths = (
{
closed = 1;
nodes = (
"400 607 LINE",
"200 607 LINE",
"200 557 LINE",
"400 557 LINE"
);
}
);
width = 600;
}
);
unicode = 00AF;
},
{
glyphname = degree;
layers = (
{
layerId = "768AC6A3-7B22-44CA-A065-BD21741E715A";
paths = (
{
closed = 1;
nodes = (
"281 590 OFFCURVE",
"315 619 OFFCURVE",
"315 693 CURVE SMOOTH",
"315 768 OFFCURVE",
"281 796 OFFCURVE",
"207 796 CURVE",
"132 796 OFFCURVE",
"100 768 OFFCURVE",
"100 693 CURVE SMOOTH",
"100 619 OFFCURVE",
"132 590 OFFCURVE",
"207 590 CURVE SMOOTH"
);
},
{
closed = 1;
nodes = (
"179 610 OFFCURVE",
"169 623 OFFCURVE",
"169 693 CURVE SMOOTH",
"169 763 OFFCURVE",
"179 776 OFFCURVE",
"207 776 CURVE",
"235 776 OFFCURVE",
"246 763 OFFCURVE",
"246 693 CURVE",
"246 623 OFFCURVE",
"235 610 OFFCURVE",
"207 610 CURVE SMOOTH"
);
}
);
width = 415;
}
);
unicode = 00B0;
},
{
glyphname = plusminus;
layers = (
{
layerId = "768AC6A3-7B22-44CA-A065-BD21741E715A";
paths = (
{
closed = 1;
nodes = (
"262 302 LINE",
"262 494 LINE",
"242 494 LINE",
"242 302 LINE",
"40 302 LINE",
"40 282 LINE",
"242 282 LINE",
"242 89 LINE",
"262 89 LINE",
"262 282 LINE",
"465 282 LINE",
"465 302 LINE"
);
},
{
closed = 1;
nodes = (
"465 39 LINE",
"40 39 LINE",
"40 19 LINE",
"465 19 LINE"
);
}
);
width = 505;
}
);
unicode = 00B1;
},
{
glyphname = twosuperior;
layers = (
{
layerId = "768AC6A3-7B22-44CA-A065-BD21741E715A";
paths = (
{
closed = 1;
nodes = (
"212 412 LINE",
"209 390 OFFCURVE",
"192 388 OFFCURVE",
"171 388 CURVE SMOOTH",
"150 388 OFFCURVE",
"134 398 OFFCURVE",
"110 398 CURVE SMOOTH",
"102 398 OFFCURVE",
"92 396 OFFCURVE",
"84 390 CURVE",
"112 432 OFFCURVE",
"215 418 OFFCURVE",
"215 503 CURVE SMOOTH",
"215 542 OFFCURVE",
"175 565 OFFCURVE",
"121 565 CURVE SMOOTH",
"74 565 OFFCURVE",
"45 540 OFFCURVE",
"45 508 CURVE SMOOTH",
"45 487 OFFCURVE",
"58 472 OFFCURVE",
"77 472 CURVE SMOOTH",
"95 472 OFFCURVE",
"105 484 OFFCURVE",
"105 498 CURVE SMOOTH",
"105 530 OFFCURVE",
"71 520 OFFCURVE",
"71 532 CURVE",
"71 542 OFFCURVE",
"90 550 OFFCURVE",
"107 550 CURVE SMOOTH",
"136 550 OFFCURVE",
"150 529 OFFCURVE",
"150 508 CURVE SMOOTH",
"150 462 OFFCURVE",
"98 434 OFFCURVE",
"62 387 CURVE",
"52 373 OFFCURVE",
"42 351 OFFCURVE",
"40 330 CURVE",
"53 330 LINE",
"53 350 OFFCURVE",
"62 356 OFFCURVE",
"77 356 CURVE SMOOTH",
"106 356 OFFCURVE",
"132 326 OFFCURVE",
"171 326 CURVE SMOOTH",
"206 326 OFFCURVE",
"219 357 OFFCURVE",
"219 387 CURVE SMOOTH",
"219 396 OFFCURVE",
"218 404 OFFCURVE",
"216 412 CURVE"
);
}
);
width = 259;
}
);
unicode = 00B2;
},
{
glyphname = threesuperior;
layers = (
{
layerId = "768AC6A3-7B22-44CA-A065-BD21741E715A";
paths = (
{
closed = 1;
nodes = (
"70 567 OFFCURVE",
"46 543 OFFCURVE",
"46 514 CURVE SMOOTH",
"46 494 OFFCURVE",
"57 482 OFFCURVE",
"75 482 CURVE SMOOTH",
"91 482 OFFCURVE",
"100 493 OFFCURVE",
"100 505 CURVE SMOOTH",
"100 530 OFFCURVE",
"68 521 OFFCURVE",
"68 535 CURVE SMOOTH",
"68 545 OFFCURVE",
"80 555 OFFCURVE",
"100 555 CURVE SMOOTH",
"127 555 OFFCURVE",
"142 537 OFFCURVE",
"142 511 CURVE SMOOTH",
"142 492 OFFCURVE",
"132 464 OFFCURVE",
"94 464 CURVE SMOOTH",
"88 464 LINE",
"88 450 LINE",
"94 450 LINE SMOOTH",
"140 450 OFFCURVE",
"152 434 OFFCURVE",
"152 397 CURVE SMOOTH",
"152 359 OFFCURVE",
"131 340 OFFCURVE",
"100 340 CURVE SMOOTH",
"82 340 OFFCURVE",
"63 347 OFFCURVE",
"63 359 CURVE SMOOTH",
"63 375 OFFCURVE",
"101 364 OFFCURVE",
"101 392 CURVE SMOOTH",
"101 406 OFFCURVE",
"90 418 OFFCURVE",
"72 418 CURVE SMOOTH",
"52 418 OFFCURVE",
"40 403 OFFCURVE",
"40 382 CURVE SMOOTH",
"40 349 OFFCURVE",
"66 326 OFFCURVE",
"114 326 CURVE SMOOTH",
"180 326 OFFCURVE",
"218 352 OFFCURVE",
"218 398 CURVE SMOOTH",
"218 435 OFFCURVE",
"184 457 OFFCURVE",
"137 458 CURVE",
"182 460 OFFCURVE",
"204 484 OFFCURVE",
"204 512 CURVE SMOOTH",
"204 548 OFFCURVE",
"176 567 OFFCURVE",
"113 567 CURVE SMOOTH"
);
}
);
width = 258;
}
);
unicode = 00B3;
},
{
glyphname = acute;
layers = (
{
layerId = "768AC6A3-7B22-44CA-A065-BD21741E715A";
paths = (
{
closed = 1;
nodes = (
"214 501 LINE",
"249 552 OFFCURVE",
"298 529 OFFCURVE",
"326 568 CURVE SMOOTH",
"349 600 OFFCURVE",
"339 638 OFFCURVE",
"312 650 CURVE",
"291 663 OFFCURVE",
"258 654 OFFCURVE",
"242 632 CURVE SMOOTH",
"209 587 OFFCURVE",
"234 560 OFFCURVE",
"200 511 CURVE"
);
}
);
width = 538;
}
);
unicode = 00B4;
},
{
glyphname = micro;
layers = (
{
layerId = "768AC6A3-7B22-44CA-A065-BD21741E715A";
paths = (
{
closed = 1;
nodes = (
"535 20 LINE",
"535 460 LINE",
"335 460 LINE",
"335 440 LINE",
"385 440 LINE",
"385 89 LINE",
"362 49 OFFCURVE",
"329 29 OFFCURVE",
"294 29 CURVE SMOOTH",
"240 29 OFFCURVE",
"210 62 OFFCURVE",
"210 160 CURVE SMOOTH",
"210 460 LINE",
"10 460 LINE",
"10 440 LINE",
"60 440 LINE",
"60 -210 LINE",
"210 -210 LINE",
"210 -10 LINE",
"219 -11 OFFCURVE",
"228 -11 OFFCURVE",
"238 -11 CURVE SMOOTH",
"304 -11 OFFCURVE",
"361 19 OFFCURVE",
"385 53 CURVE",
"385 0 LINE",
"585 0 LINE",
"585 20 LINE"
);
}
);
width = 595;
}
);
unicode = 00B5;
},
{
glyphname = paragraph;
layers = (
{
layerId = "768AC6A3-7B22-44CA-A065-BD21741E715A";
paths = (
{
closed = 1;
nodes = (
"192 560 LINE",
"80 560 OFFCURVE",
"20 520 OFFCURVE",
"20 402 CURVE",
"20 290 OFFCURVE",
"80 234 OFFCURVE",
"192 234 CURVE"
);
},
{
closed = 1;
nodes = (
"447 560 LINE",
"197 560 LINE",
"197 540 LINE",
"447 540 LINE"
);
},
{
closed = 1;
nodes = (
"387 12 LINE",
"387 560 LINE",
"367 560 LINE",
"367 12 LINE"
);
},
{
closed = 1;
nodes = (
"447 20 LINE",
"367 20 LINE",
"367 0 LINE",
"447 0 LINE"
);
},
{
closed = 1;
nodes = (
"207 20 LINE",
"127 20 LINE",
"127 0 LINE",
"207 0 LINE"
);
},
{
closed = 1;
nodes = (
"207 12 LINE",
"207 560 LINE",
"187 560 LINE",
"187 12 LINE"
);
}
);
width = 467;
}
);
unicode = 00B6;
},
{
glyphname = periodcentered;
layers = (
{
layerId = "768AC6A3-7B22-44CA-A065-BD21741E715A";
paths = (
{
closed = 1;
nodes = (
"168 145 OFFCURVE",
"213 191 OFFCURVE",
"213 244 CURVE SMOOTH",
"213 299 OFFCURVE",
"168 344 OFFCURVE",
"113 344 CURVE SMOOTH",
"60 344 OFFCURVE",
"14 299 OFFCURVE",
"14 244 CURVE SMOOTH",
"14 191 OFFCURVE",
"60 145 OFFCURVE",
"113 145 CURVE SMOOTH"
);
}
);
width = 225;
}
);
unicode = 00B7;
},
{
glyphname = cedilla;
layers = (
{
layerId = "768AC6A3-7B22-44CA-A065-BD21741E715A";
paths = (
{
closed = 1;
nodes = (
"282 -92 OFFCURVE",
"329 -119 OFFCURVE",
"320 -171 CURVE SMOOTH",
"310 -226 OFFCURVE",
"247 -230 OFFCURVE",
"216 -177 CURVE",
"216 -177 OFFCURVE",
"200 -192 OFFCURVE",
"200 -192 CURVE",
"200 -192 OFFCURVE",
"221 -235 OFFCURVE",
"287 -238 CURVE SMOOTH",
"354 -241 OFFCURVE",
"383 -209 OFFCURVE",
"388 -160 CURVE SMOOTH",
"393 -108 OFFCURVE",
"339 -77 OFFCURVE",
"274 -77 CURVE",
"274 -77 OFFCURVE",
"242 -92 OFFCURVE",
"242 -92 CURVE"
);
},
{
closed = 1;
nodes = (
"294 4 LINE",
"242 -92 LINE",
"269 -92 LINE",
"322 4 LINE"
);
}
);
width = 588;
}
);
unicode = 00B8;
},
{
glyphname = onesuperior;
layers = (
{
layerId = "768AC6A3-7B22-44CA-A065-BD21741E715A";
paths = (
{
closed = 1;
nodes = (
"173 335 LINE",
"43 335 LINE",
"43 317 LINE",
"173 317 LINE"
);
},
{
closed = 1;
nodes = (
"145 327 LINE",
"145 560 LINE",
"120 560 LINE",
"40 523 LINE",
"42 508 LINE",
"75 520 LINE",
"75 327 LINE"
);
}
);
width = 213;
}
);
unicode = 00B9;
},
{
glyphname = guilsinglright;
layers = (
{
layerId = "768AC6A3-7B22-44CA-A065-BD21741E715A";
paths = (
{
closed = 1;
nodes = (
"52 76 LINE",
"52 76 OFFCURVE",
"205 199 OFFCURVE",
"216 209 CURVE SMOOTH",
"226 218 OFFCURVE",
"227 232 OFFCURVE",
"216 243 CURVE SMOOTH",
"205 254 OFFCURVE",
"52 376 OFFCURVE",
"52 376 CURVE",
"40 364 LINE",
"40 364 OFFCURVE",
"87 266 OFFCURVE",
"117 226 CURVE",
"90 186 OFFCURVE",
"40 88 OFFCURVE",
"40 88 CURVE"
);
}
);
width = 264;
}
);
unicode = 203A;
},
{
glyphname = onequarter;
layers = (
{
layerId = "768AC6A3-7B22-44CA-A065-BD21741E715A";
paths = (
{
closed = 1;
nodes = (
"487 115 LINE",
"487 38 LINE",
"499 38 LINE",
"499 115 LINE"
);
},
{
closed = 1;
nodes = (
"497 82 LINE",
"258 82 LINE",
"258 72 LINE",
"497 72 LINE"
);
},
{
closed = 1;
nodes = (
"375 4 LINE",
"450 4 LINE",
"450 291 LINE",
"400 291 LINE",
"258 82 LINE",
"271 82 LINE",
"375 236 LINE"
);
},
{
closed = 1;
nodes = (
"483 10 LINE",
"343 10 LINE",
"343 0 LINE",
"483 0 LINE"
);
},
{
closed = 1;
nodes = (
"194 279 LINE",
"44 279 LINE",
"44 269 LINE",
"194 269 LINE"
);
},
{
closed = 1;
nodes = (
"159 269 LINE",
"159 560 LINE",
"141 560 LINE",
"40 514 LINE",
"43 504 LINE",
"84 520 LINE",
"84 269 LINE"
);
},
{
closed = 1;
nodes = (
"100 0 LINE",
"121 0 LINE",
"421 561 LINE",
"400 561 LINE"
);
}
);
width = 539;
}
);
unicode = 00BC;
},
{
glyphname = onehalf;
layers = (
{
layerId = "768AC6A3-7B22-44CA-A065-BD21741E715A";
paths = (
{
closed = 1;
nodes = (
"510 103 LINE",
"507 75 OFFCURVE",
"485 73 OFFCURVE",
"459 73 CURVE SMOOTH",
"433 73 OFFCURVE",
"413 86 OFFCURVE",
"382 86 CURVE SMOOTH",
"370 86 OFFCURVE",
"357 83 OFFCURVE",
"348 76 CURVE",
"383 127 OFFCURVE",
"514 111 OFFCURVE",
"514 217 CURVE SMOOTH",
"514 266 OFFCURVE",
"464 294 OFFCURVE",
"396 294 CURVE SMOOTH",
"338 294 OFFCURVE",
"301 262 OFFCURVE",
"301 222 CURVE SMOOTH",
"301 197 OFFCURVE",
"317 178 OFFCURVE",
"341 178 CURVE SMOOTH",
"364 178 OFFCURVE",
"377 193 OFFCURVE",
"377 210 CURVE SMOOTH",
"377 250 OFFCURVE",
"334 239 OFFCURVE",
"334 259 CURVE SMOOTH",
"334 273 OFFCURVE",
"358 282 OFFCURVE",
"379 282 CURVE SMOOTH",
"416 282 OFFCURVE",
"433 256 OFFCURVE",
"433 222 CURVE SMOOTH",
"433 166 OFFCURVE",
"368 131 OFFCURVE",
"323 72 CURVE SMOOTH",
"310 54 OFFCURVE",
"297 26 OFFCURVE",
"295 0 CURVE",
"305 0 LINE",
"310 21 OFFCURVE",
"322 33 OFFCURVE",
"342 33 CURVE SMOOTH",
"378 33 OFFCURVE",
"410 -5 OFFCURVE",
"459 -5 CURVE SMOOTH",
"503 -5 OFFCURVE",
"519 34 OFFCURVE",
"519 71 CURVE SMOOTH",
"519 82 OFFCURVE",
"518 93 OFFCURVE",
"515 103 CURVE"
);
},
{
closed = 1;
nodes = (
"194 279 LINE",
"44 279 LINE",
"44 269 LINE",
"194 269 LINE"
);
},
{
closed = 1;
nodes = (
"159 269 LINE",
"159 560 LINE",
"141 560 LINE",
"40 514 LINE",
"43 504 LINE",
"84 520 LINE",
"84 269 LINE"
);
},
{
closed = 1;
nodes = (
"100 0 LINE",
"121 0 LINE",
"421 561 LINE",
"400 561 LINE"
);
}
);
width = 559;
}
);
unicode = 00BD;
},
{
glyphname = threequarters;
layers = (
{
layerId = "768AC6A3-7B22-44CA-A065-BD21741E715A";
paths = (
{
closed = 1;
nodes = (
"78 560 OFFCURVE",
"47 530 OFFCURVE",
"47 494 CURVE SMOOTH",
"47 469 OFFCURVE",
"62 453 OFFCURVE",
"84 453 CURVE SMOOTH",
"104 453 OFFCURVE",
"115 467 OFFCURVE",
"115 482 CURVE SMOOTH",
"115 518 OFFCURVE",
"75 507 OFFCURVE",
"75 524 CURVE SMOOTH",
"75 537 OFFCURVE",
"90 548 OFFCURVE",
"115 548 CURVE SMOOTH",
"149 548 OFFCURVE",
"168 523 OFFCURVE",
"168 490 CURVE SMOOTH",
"168 466 OFFCURVE",
"156 428 OFFCURVE",
"108 428 CURVE SMOOTH",
"100 428 LINE",
"100 418 LINE",
"108 418 LINE SMOOTH",
"165 418 OFFCURVE",
"181 393 OFFCURVE",
"181 348 CURVE SMOOTH",
"181 300 OFFCURVE",
"154 270 OFFCURVE",
"116 270 CURVE SMOOTH",
"93 270 OFFCURVE",
"69 279 OFFCURVE",
"69 294 CURVE SMOOTH",
"69 313 OFFCURVE",
"116 300 OFFCURVE",
"116 341 CURVE SMOOTH",
"116 358 OFFCURVE",
"103 374 OFFCURVE",
"81 374 CURVE SMOOTH",
"55 374 OFFCURVE",
"40 355 OFFCURVE",
"40 329 CURVE SMOOTH",
"40 287 OFFCURVE",
"73 258 OFFCURVE",
"132 258 CURVE SMOOTH",
"216 258 OFFCURVE",
"263 292 OFFCURVE",
"263 348 CURVE SMOOTH",
"263 395 OFFCURVE",
"221 423 OFFCURVE",
"161 423 CURVE",
"217 426 OFFCURVE",
"245 456 OFFCURVE",
"245 491 CURVE SMOOTH",
"245 536 OFFCURVE",
"210 560 OFFCURVE",
"131 560 CURVE SMOOTH"
);
},
{
closed = 1;
nodes = (
"543 10 LINE",
"403 10 LINE",
"403 0 LINE",
"543 0 LINE"
);
},
{
closed = 1;
nodes = (
"435 4 LINE",
"510 4 LINE",
"510 291 LINE",
"460 291 LINE",
"318 82 LINE",
"331 82 LINE",
"435 236 LINE"
);
},
{
closed = 1;
nodes = (
"547 115 LINE",
"547 38 LINE",
"559 38 LINE",
"559 115 LINE"
);
},
{
closed = 1;
nodes = (
"557 82 LINE",
"318 82 LINE",
"318 72 LINE",
"557 72 LINE"
);
},
{
closed = 1;
nodes = (
"150 0 LINE",
"171 0 LINE",
"471 561 LINE",
"450 561 LINE"
);
}
);
width = 599;
}
);
unicode = 00BE;
},
{
color = (153, 154, 255, 255);
glyphname = questiondown;
layers = (
{
guideLines = (
{
position = "{0, 460}";
}
);
layerId = "768AC6A3-7B22-44CA-A065-BD21741E715A";
paths = (
{
closed = 1;
nodes = (
"208 464 OFFCURVE",
"173 429 OFFCURVE",
"173 389 CURVE SMOOTH",
"173 347 OFFCURVE",
"208 313 OFFCURVE",
"250 313 CURVE SMOOTH",
"290 313 OFFCURVE",
"325 347 OFFCURVE",
"325 389 CURVE SMOOTH",
"325 429 OFFCURVE",
"290 464 OFFCURVE",
"250 464 CURVE SMOOTH"
);
},
{
closed = 1;
nodes = (
"367 -132 OFFCURVE",
"442 -65 OFFCURVE",
"442 13 CURVE SMOOTH",
"442 62 OFFCURVE",
"411 99 OFFCURVE",
"364 99 CURVE SMOOTH",
"327 99 OFFCURVE",
"295 70 OFFCURVE",
"295 36 CURVE SMOOTH",
"295 -41 OFFCURVE",
"369 -21 OFFCURVE",
"369 -59 CURVE SMOOTH",
"369 -84 OFFCURVE",
"332 -108 OFFCURVE",
"289 -108 CURVE SMOOTH",
"233 -108 OFFCURVE",
"185 -74 OFFCURVE",
"185 5 CURVE SMOOTH",
"185 94 OFFCURVE",
"298 119 OFFCURVE",
"298 180 CURVE",
"298 215 OFFCURVE",
"291 236 OFFCURVE",
"262 279 CURVE",
"245 279 LINE",
"245 234 OFFCURVE",
"222 211 OFFCURVE",
"196 190 CURVE SMOOTH",
"145 150 OFFCURVE",
"38 141 OFFCURVE",
"31 33 CURVE SMOOTH",
"22 -91 OFFCURVE",
"132 -132 OFFCURVE",
"249 -132 CURVE SMOOTH"
);
}
);
width = 451;
}
);
unicode = 00BF;
},
{
glyphname = grave.cap;
layers = (
{
layerId = "768AC6A3-7B22-44CA-A065-BD21741E715A";
paths = (
{
closed = 1;
nodes = (
"339 611 LINE",
"305 660 OFFCURVE",
"330 687 OFFCURVE",
"297 732 CURVE SMOOTH",
"281 754 OFFCURVE",
"248 763 OFFCURVE",
"227 750 CURVE",
"200 738 OFFCURVE",
"190 700 OFFCURVE",
"213 668 CURVE SMOOTH",
"241 629 OFFCURVE",
"290 652 OFFCURVE",
"325 601 CURVE"
);
}
);
width = 539;
}
);
},
{
glyphname = acute.cap;
layers = (
{
layerId = "768AC6A3-7B22-44CA-A065-BD21741E715A";
paths = (
{
closed = 1;
nodes = (
"212 601 LINE",
"247 652 OFFCURVE",
"296 629 OFFCURVE",
"324 668 CURVE SMOOTH",
"347 700 OFFCURVE",
"337 738 OFFCURVE",
"310 750 CURVE",
"289 763 OFFCURVE",
"256 754 OFFCURVE",
"240 732 CURVE SMOOTH",
"207 687 OFFCURVE",
"232 660 OFFCURVE",
"198 611 CURVE"
);
}
);
width = 536;
}
);
},
{
glyphname = circumflex.cap;
layers = (
{
layerId = "768AC6A3-7B22-44CA-A065-BD21741E715A";
paths = (
{
closed = 1;
nodes = (
"209 614 LINE",
"297 654 LINE",
"385 614 LINE",
"394 623 LINE",
"306 751 LINE",
"287 751 LINE",
"200 623 LINE"
);
}
);
width = 594;
}
);
},
{
glyphname = tilde.cap;
layers = (
{
layerId = "768AC6A3-7B22-44CA-A065-BD21741E715A";
paths = (
{
closed = 1;
nodes = (
"220 630 LINE",
"220 644 OFFCURVE",
"226 657 OFFCURVE",
"244 657 CURVE SMOOTH",
"274 657 OFFCURVE",
"292 625 OFFCURVE",
"330 625 CURVE SMOOTH",
"368 625 OFFCURVE",
"398 649 OFFCURVE",
"398 721 CURVE",
"378 721 LINE",
"378 707 OFFCURVE",
"372 695 OFFCURVE",
"352 695 CURVE SMOOTH",
"322 695 OFFCURVE",
"304 726 OFFCURVE",
"267 726 CURVE SMOOTH",
"230 726 OFFCURVE",
"200 704 OFFCURVE",
"200 630 CURVE"
);
}
);
width = 598;
}
);
},
{
glyphname = dieresis.cap;
layers = (
{
layerId = "768AC6A3-7B22-44CA-A065-BD21741E715A";
paths = (
{
closed = 1;
nodes = (
"496 717 OFFCURVE",
"470 745 OFFCURVE",
"434 745 CURVE SMOOTH",
"401 745 OFFCURVE",
"373 717 OFFCURVE",
"373 682 CURVE SMOOTH",
"373 648 OFFCURVE",
"401 621 OFFCURVE",
"434 621 CURVE SMOOTH",
"470 621 OFFCURVE",
"496 648 OFFCURVE",
"496 682 CURVE SMOOTH"
);
},
{
closed = 1;
nodes = (
"325 717 OFFCURVE",
"297 745 OFFCURVE",
"264 745 CURVE SMOOTH",
"229 745 OFFCURVE",
"200 717 OFFCURVE",
"200 682 CURVE SMOOTH",
"200 648 OFFCURVE",
"229 621 OFFCURVE",
"264 621 CURVE SMOOTH",
"297 621 OFFCURVE",
"325 648 OFFCURVE",
"325 682 CURVE SMOOTH"
);
}
);
width = 696;
}
);
},
{
glyphname = ring.cap;
layers = (
{
layerId = "768AC6A3-7B22-44CA-A065-BD21741E715A";
paths = (
{
closed = 1;
nodes = (
"259 635 OFFCURVE",
"240 658 OFFCURVE",
"240 682 CURVE",
"240 707 OFFCURVE",
"257 727 OFFCURVE",
"283 727 CURVE",
"309 727 OFFCURVE",
"327 707 OFFCURVE",
"327 682 CURVE",
"327 658 OFFCURVE",
"307 635 OFFCURVE",
"283 635 CURVE SMOOTH"
);
},
{
closed = 1;
nodes = (
"329 598 OFFCURVE",
"368 636 OFFCURVE",
"368 682 CURVE",
"368 728 OFFCURVE",
"329 767 OFFCURVE",
"283 767 CURVE",
"237 767 OFFCURVE",
"200 728 OFFCURVE",
"200 682 CURVE",
"200 636 OFFCURVE",
"237 598 OFFCURVE",
"283 598 CURVE SMOOTH"
);
}
);
width = 568;
}
);
},
{
glyphname = AE;
layers = (
{
layerId = "768AC6A3-7B22-44CA-A065-BD21741E715A";
paths = (
{
closed = 1;
nodes = (
"511 20 LINE",
"340 20 LINE",
"340 0 LINE",
"511 0 LINE"
);
},
{
closed = 1;
nodes = (
"430 560 LINE",
"320 560 LINE",
"320 539 LINE",
"430 539 LINE"
);
},
{
closed = 1;
nodes = (
"171 20 LINE",
"0 20 LINE",
"0 0 LINE",
"171 0 LINE"
);
},
{
closed = 1;
nodes = (
"86 0 LINE",
"423 560 LINE",
"396 560 LINE",
"59 0 LINE"
);
},
{
closed = 1;
nodes = (
"448 210 LINE",
"188 210 LINE",
"185 189 LINE",
"448 189 LINE"
);
},
{
closed = 1;
nodes = (
"400 560 LINE",
"400 0 LINE",
"800 0 LINE",
"800 20 LINE",
"550 20 LINE",
"550 280 LINE",
"570 280 LINE",
"670 280 OFFCURVE",
"680 262 OFFCURVE",
"680 190 CURVE",
"700 190 LINE",
"700 390 LINE",
"680 390 LINE",
"680 322 OFFCURVE",
"670 300 OFFCURVE",
"570 300 CURVE",
"550 300 LINE",
"550 540 LINE",
"620 540 LINE",
"717 540 OFFCURVE",
"770 516 OFFCURVE",
"770 390 CURVE",
"790 390 LINE",
"790 560 LINE"
);
},
{
closed = 1;
nodes = (
"780 190 LINE",
"780 54 OFFCURVE",
"707 20 OFFCURVE",
"630 20 CURVE",
"800 20 LINE",
"800 190 LINE"
);
}
);
width = 820;
}
);
unicode = 00C6;
},
{
glyphname = cedilla.cap;
layers = (
{
layerId = "768AC6A3-7B22-44CA-A065-BD21741E715A";
paths = (
{
closed = 1;
nodes = (
"294 4 LINE",
"242 -92 LINE",
"269 -92 LINE",
"322 4 LINE"
);
},
{
closed = 1;
nodes = (
"282 -92 OFFCURVE",
"329 -119 OFFCURVE",
"320 -171 CURVE SMOOTH",
"310 -226 OFFCURVE",
"247 -230 OFFCURVE",
"216 -177 CURVE",
"216 -177 OFFCURVE",
"200 -192 OFFCURVE",
"200 -192 CURVE",
"200 -192 OFFCURVE",
"221 -235 OFFCURVE",
"287 -238 CURVE SMOOTH",
"354 -241 OFFCURVE",
"383 -209 OFFCURVE",
"388 -160 CURVE SMOOTH",
"393 -108 OFFCURVE",
"339 -77 OFFCURVE",
"274 -77 CURVE",
"274 -77 OFFCURVE",
"242 -92 OFFCURVE",
"242 -92 CURVE"
);
}
);
width = 588;
}
);
},
{
glyphname = Eth;
layers = (
{
layerId = "768AC6A3-7B22-44CA-A065-BD21741E715A";
paths = (
{
closed = 1;
nodes = (
"290 0 LINE",
"497 0 OFFCURVE",
"595 94 OFFCURVE",
"595 283 CURVE SMOOTH",
"595 416 OFFCURVE",
"495 560 OFFCURVE",
"290 560 CURVE SMOOTH",
"40 560 LINE",
"40 540 LINE",
"90 540 LINE",
"90 20 LINE",
"40 20 LINE",
"40 0 LINE"
);
},
{
closed = 1;
nodes = (
"357 298 LINE",
"40 298 LINE",
"40 278 LINE",
"357 278 LINE"
);
},
{
closed = 1;
nodes = (
"240 540 LINE",
"377 540 OFFCURVE",
"444 439 OFFCURVE",
"444 281 CURVE SMOOTH",
"444 85 OFFCURVE",
"381 20 OFFCURVE",
"240 20 CURVE"
);
}
);
width = 625;
}
);
unicode = 00D0;
},
{
glyphname = multiply;
layers = (
{
layerId = "768AC6A3-7B22-44CA-A065-BD21741E715A";
paths = (
{
closed = 1;
nodes = (
"212 230 LINE",
"355 373 LINE",
"340 387 LINE",
"198 244 LINE",
"55 387 LINE",
"41 373 LINE",
"183 230 LINE",
"40 87 LINE",
"54 73 LINE",
"198 216 LINE",
"341 73 LINE",
"355 87 LINE"
);
}
);
width = 395;
}
);
unicode = 00D7;
},
{
glyphname = Oslash;
layers = (
{
layerId = "768AC6A3-7B22-44CA-A065-BD21741E715A";
paths = (
{
closed = 1;
nodes = (
"74 -10 LINE",
"642 558 LINE",
"627 572 LINE",
"60 5 LINE"
);
},
{
closed = 1;
nodes = (
"433 552 OFFCURVE",
"481 451 OFFCURVE",
"481 281 CURVE",
"481 105 OFFCURVE",
"437 10 OFFCURVE",
"351 10 CURVE SMOOTH",
"268 10 OFFCURVE",
"221 105 OFFCURVE",
"221 281 CURVE",
"221 451 OFFCURVE",
"271 552 OFFCURVE",
"351 552 CURVE SMOOTH"
);
},
{
closed = 1;
nodes = (
"513 -10 OFFCURVE",
"642 82 OFFCURVE",
"642 281 CURVE",
"642 456 OFFCURVE",
"531 572 OFFCURVE",
"351 572 CURVE SMOOTH",
"177 572 OFFCURVE",
"60 456 OFFCURVE",
"60 281 CURVE",
"60 82 OFFCURVE",
"184 -10 OFFCURVE",
"351 -10 CURVE SMOOTH"
);
}
);
width = 702;
}
);
unicode = 00D8;
},
{
glyphname = Thorn;
layers = (
{
layerId = "768AC6A3-7B22-44CA-A065-BD21741E715A";
paths = (
{
closed = 1;
nodes = (
"240 540 LINE",
"290 540 LINE",
"290 560 LINE",
"40 560 LINE",
"40 540 LINE",
"90 540 LINE",
"90 20 LINE",
"40 20 LINE",
"40 0 LINE",
"290 0 LINE",
"290 20 LINE",
"240 20 LINE",
"240 97 LINE",
"438 87 OFFCURVE",
"533 157 OFFCURVE",
"533 274 CURVE SMOOTH",
"533 402 OFFCURVE",
"447 473 OFFCURVE",
"240 463 CURVE"
);
},
{
closed = 1;
nodes = (
"240 443 LINE",
"352 443 OFFCURVE",
"382 393 OFFCURVE",
"382 275 CURVE SMOOTH",
"382 163 OFFCURVE",
"352 117 OFFCURVE",
"240 117 CURVE"
);
}
);
width = 543;
}
);
unicode = 00DE;
},
{
glyphname = germandbls;
layers = (
{
layerId = "768AC6A3-7B22-44CA-A065-BD21741E715A";
paths = (
{
closed = 1;
nodes = (
"430 659 OFFCURVE",
"471 626 OFFCURVE",
"481 574 CURVE SMOOTH",
"491 521 OFFCURVE",
"470 479 OFFCURVE",
"432 458 CURVE SMOOTH",
"340 407 OFFCURVE",
"280 370 OFFCURVE",
"300 287 CURVE SMOOTH",
"329 168 OFFCURVE",
"558 216 OFFCURVE",
"558 76 CURVE SMOOTH",
"558 27 OFFCURVE",
"517 9 OFFCURVE",
"479 9 CURVE SMOOTH",
"443 9 OFFCURVE",
"391 20 OFFCURVE",
"391 50 CURVE SMOOTH",
"391 75 OFFCURVE",
"434 74 OFFCURVE",
"434 118 CURVE SMOOTH",
"434 150 OFFCURVE",
"408 175 OFFCURVE",
"369 175 CURVE SMOOTH",
"324 175 OFFCURVE",
"301 142 OFFCURVE",
"301 105 CURVE SMOOTH",
"301 33 OFFCURVE",
"386 -11 OFFCURVE",
"478 -11 CURVE SMOOTH",
"586 -11 OFFCURVE",
"684 56 OFFCURVE",
"684 150 CURVE SMOOTH",
"684 315 OFFCURVE",
"456 291 OFFCURVE",
"410 369 CURVE SMOOTH",
"396 393 OFFCURVE",
"411 423 OFFCURVE",
"447 442 CURVE SMOOTH",
"542 493 OFFCURVE",
"614 527 OFFCURVE",
"594 591 CURVE SMOOTH",
"573 658 OFFCURVE",
"455 680 OFFCURVE",
"358 680 CURVE",
"229 680 OFFCURVE",
"90 622 OFFCURVE",
"90 460 CURVE",
"40 460 LINE",
"40 440 LINE",
"90 440 LINE",
"90 20 LINE",
"40 20 LINE",
"40 0 LINE",
"290 0 LINE",
"290 20 LINE",
"240 20 LINE",
"240 460 LINE",
"240 595 OFFCURVE",
"282 659 OFFCURVE",
"359 659 CURVE SMOOTH"
);
}
);
width = 694;
}
);
unicode = 00DF;
},
{
glyphname = circumflex;
layers = (
{
layerId = "768AC6A3-7B22-44CA-A065-BD21741E715A";
paths = (
{
closed = 1;
nodes = (
"209 514 LINE",
"297 554 LINE",
"385 514 LINE",
"394 523 LINE",
"306 651 LINE",
"287 651 LINE",
"200 523 LINE"
);
}
);
width = 594;
}
);
unicode = 02C6;
},
{
glyphname = tilde;
layers = (
{
layerId = "768AC6A3-7B22-44CA-A065-BD21741E715A";
paths = (
{
closed = 1;
nodes = (
"220 537 LINE",
"220 551 OFFCURVE",
"226 564 OFFCURVE",
"244 564 CURVE SMOOTH",
"274 564 OFFCURVE",
"292 532 OFFCURVE",
"330 532 CURVE SMOOTH",
"368 532 OFFCURVE",
"398 556 OFFCURVE",
"398 628 CURVE",
"378 628 LINE",
"378 614 OFFCURVE",
"372 602 OFFCURVE",
"352 602 CURVE SMOOTH",
"322 602 OFFCURVE",
"304 633 OFFCURVE",
"267 633 CURVE SMOOTH",
"230 633 OFFCURVE",
"200 611 OFFCURVE",
"200 537 CURVE"
);
}
);
width = 598;
}
);
unicode = 02DC;
},
{
glyphname = ring;
layers = (
{
layerId = "768AC6A3-7B22-44CA-A065-BD21741E715A";
paths = (
{
closed = 1;
nodes = (
"259 535 OFFCURVE",
"240 558 OFFCURVE",
"240 582 CURVE",
"240 607 OFFCURVE",
"257 627 OFFCURVE",
"283 627 CURVE",
"309 627 OFFCURVE",
"327 607 OFFCURVE",
"327 582 CURVE",
"327 558 OFFCURVE",
"307 535 OFFCURVE",
"283 535 CURVE SMOOTH"
);
},
{
closed = 1;
nodes = (
"329 498 OFFCURVE",
"368 536 OFFCURVE",
"368 582 CURVE",
"368 628 OFFCURVE",
"329 667 OFFCURVE",
"283 667 CURVE",
"237 667 OFFCURVE",
"200 628 OFFCURVE",
"200 582 CURVE",
"200 536 OFFCURVE",
"237 498 OFFCURVE",
"283 498 CURVE SMOOTH"
);
}
);
width = 568;
}
);
unicode = 02DA;
},
{
glyphname = ae;
layers = (
{
layerId = "768AC6A3-7B22-44CA-A065-BD21741E715A";
paths = (
{
closed = 1;
nodes = (
"598 450 OFFCURVE",
"617 322 OFFCURVE",
"617 220 CURVE",
"455 220 LINE",
"455 270 LINE",
"459 355 OFFCURVE",
"480 450 OFFCURVE",
"535 450 CURVE SMOOTH"
);
},
{
closed = 1;
nodes = (
"217 34 OFFCURVE",
"177 58 OFFCURVE",
"170 113 CURVE",
"164 187 OFFCURVE",
"214 222 OFFCURVE",
"269 229 CURVE",
"269 229 OFFCURVE",
"305 234 OFFCURVE",
"305 234 CURVE",
"305 162 OFFCURVE",
"314 107 OFFCURVE",
"344 61 CURVE",
"342 59 OFFCURVE",
"339 58 OFFCURVE",
"336 56 CURVE",
"313 43 OFFCURVE",
"281 34 OFFCURVE",
"245 34 CURVE SMOOTH"
);
},
{
closed = 1;
nodes = (
"733 85 LINE",
"704 42 OFFCURVE",
"628 24 OFFCURVE",
"592 24 CURVE",
"499 24 OFFCURVE",
"461 61 OFFCURVE",
"455 188 CURVE",
"455 200 LINE",
"760 200 LINE",
"760 405 OFFCURVE",
"648 470 OFFCURVE",
"543 470 CURVE",
"494 470 OFFCURVE",
"433 453 OFFCURVE",
"401 421 CURVE",
"367 455 OFFCURVE",
"311 468 OFFCURVE",
"260 468 CURVE",
"220 468 OFFCURVE",
"189 464 OFFCURVE",
"163 456 CURVE SMOOTH",
"87 432 OFFCURVE",
"52 389 OFFCURVE",
"52 346 CURVE",
"52 298 OFFCURVE",
"86 270 OFFCURVE",
"126 270 CURVE",
"167 270 OFFCURVE",
"200 303 OFFCURVE",
"200 344 CURVE",
"200 363 OFFCURVE",
"193 390 OFFCURVE",
"181 403 CURVE",
"167 420 OFFCURVE",
"183 449 OFFCURVE",
"234 449 CURVE",
"297 449 OFFCURVE",
"305 411 OFFCURVE",
"305 302 CURVE",
"305 253 LINE",
"265 248 LINE SMOOTH",
"86 227 OFFCURVE",
"21 179 OFFCURVE",
"31 93 CURVE",
"41 13 OFFCURVE",
"109 -8 OFFCURVE",
"187 -8 CURVE",
"247 -8 OFFCURVE",
"317 6 OFFCURVE",
"356 46 CURVE",
"389 10 OFFCURVE",
"469 -10 OFFCURVE",
"565 -10 CURVE",
"636 -10 OFFCURVE",
"717 25 OFFCURVE",
"747 75 CURVE"
);
}
);
width = 792;
}
);
unicode = 00E6;
},
{
glyphname = igrave;
layers = (
{
components = (
{
name = grave;
transform = "{1, 0, 0, 1, -139, 0}";
alignment = -1;
}
);
layerId = "768AC6A3-7B22-44CA-A065-BD21741E715A";
paths = (
{
closed = 1;
nodes = (
"290 20 LINE",
"40 20 LINE",
"40 0 LINE",
"290 0 LINE"
);
},
{
closed = 1;
nodes = (
"240 460 LINE",
"240 460 OFFCURVE",
"90 460 OFFCURVE",
"90 460 CURVE",
"90 1 LINE",
"240 1 LINE"
);
},
{
closed = 1;
nodes = (
"230 460 LINE",
"50 460 LINE",
"50 440 LINE",
"230 440 LINE"
);
}
);
width = 320;
}
);
unicode = 00EC;
},
{
glyphname = iacute;
layers = (
{
components = (
{
name = acute;
transform = "{1, 0, 0, 1, -90, 0}";
alignment = -1;
}
);
layerId = "768AC6A3-7B22-44CA-A065-BD21741E715A";
paths = (
{
closed = 1;
nodes = (
"230 460 LINE",
"50 460 LINE",
"50 440 LINE",
"230 440 LINE"
);
},
{
closed = 1;
nodes = (
"290 20 LINE",
"40 20 LINE",
"40 0 LINE",
"290 0 LINE"
);
},
{
closed = 1;
nodes = (
"240 460 LINE",
"240 460 OFFCURVE",
"90 460 OFFCURVE",
"90 460 CURVE",
"90 1 LINE",
"240 1 LINE"
);
}
);
width = 320;
}
);
unicode = 00ED;
},
{
glyphname = icircumflex;
layers = (
{
components = (
{
name = circumflex;
transform = "{1, 0, 0, 1, -132, 0}";
alignment = -1;
}
);
layerId = "768AC6A3-7B22-44CA-A065-BD21741E715A";
paths = (
{
closed = 1;
nodes = (
"230 460 LINE",
"50 460 LINE",
"50 440 LINE",
"230 440 LINE"
);
},
{
closed = 1;
nodes = (
"290 20 LINE",
"40 20 LINE",
"40 0 LINE",
"290 0 LINE"
);
},
{
closed = 1;
nodes = (
"240 460 LINE",
"240 460 OFFCURVE",
"90 460 OFFCURVE",
"90 460 CURVE",
"90 1 LINE",
"240 1 LINE"
);
}
);
width = 320;
}
);
unicode = 00EE;
},
{
glyphname = idieresis;
layers = (
{
components = (
{
name = dieresis;
transform = "{1, 0, 0, 1, -193, 0}";
alignment = -1;
}
);
layerId = "768AC6A3-7B22-44CA-A065-BD21741E715A";
paths = (
{
closed = 1;
nodes = (
"290 20 LINE",
"40 20 LINE",
"40 0 LINE",
"290 0 LINE"
);
},
{
closed = 1;
nodes = (
"230 460 LINE",
"50 460 LINE",
"50 440 LINE",
"230 440 LINE"
);
},
{
closed = 1;
nodes = (
"240 460 LINE",
"240 460 OFFCURVE",
"90 460 OFFCURVE",
"90 460 CURVE",
"90 1 LINE",
"240 1 LINE"
);
}
);
width = 320;
}
);
unicode = 00EF;
},
{
glyphname = eth;
layers = (
{
layerId = "768AC6A3-7B22-44CA-A065-BD21741E715A";
paths = (
{
closed = 1;
nodes = (
"519 670 LINE",
"125 526 LINE",
"134 506 LINE",
"527 651 LINE"
);
},
{
closed = 1;
nodes = (
"389 84 OFFCURVE",
"349 10 OFFCURVE",
"280 10 CURVE",
"204 10 OFFCURVE",
"181 116 OFFCURVE",
"181 220 CURVE",
"181 308 OFFCURVE",
"196 430 OFFCURVE",
"331 430 CURVE",
"331 430 OFFCURVE",
"331 450 OFFCURVE",
"331 450 CURVE",
"112 450 OFFCURVE",
"21 368 OFFCURVE",
"21 220 CURVE SMOOTH",
"21 30 OFFCURVE",
"183 -10 OFFCURVE",
"280 -10 CURVE",
"444 -10 OFFCURVE",
"551 54 OFFCURVE",
"551 278 CURVE",
"551 502 OFFCURVE",
"374 672 OFFCURVE",
"120 672 CURVE",
"120 652 LINE",
"271 652 OFFCURVE",
"389 520 OFFCURVE",
"389 278 CURVE SMOOTH"
);
}
);
width = 572;
}
);
unicode = 00F0;
},
{
glyphname = divide;
layers = (
{
layerId = "768AC6A3-7B22-44CA-A065-BD21741E715A";
paths = (
{
closed = 1;
nodes = (
"184 70 OFFCURVE",
"209 45 OFFCURVE",
"241 45 CURVE SMOOTH",
"272 45 OFFCURVE",
"298 70 OFFCURVE",
"298 102 CURVE SMOOTH",
"298 133 OFFCURVE",
"272 159 OFFCURVE",
"241 159 CURVE SMOOTH",
"209 159 OFFCURVE",
"184 133 OFFCURVE",
"184 102 CURVE SMOOTH"
);
},
{
closed = 1;
nodes = (
"184 331 OFFCURVE",
"209 305 OFFCURVE",
"241 305 CURVE SMOOTH",
"272 305 OFFCURVE",
"298 331 OFFCURVE",
"298 362 CURVE SMOOTH",
"298 393 OFFCURVE",
"272 419 OFFCURVE",
"241 419 CURVE SMOOTH",
"209 419 OFFCURVE",
"184 393 OFFCURVE",
"184 362 CURVE SMOOTH"
);
},
{
closed = 1;
nodes = (
"445 222 LINE",
"40 222 LINE",
"40 242 LINE",
"445 242 LINE"
);
}
);
width = 485;
}
);
unicode = 00F7;
},
{
glyphname = oslash;
layers = (
{
layerId = "768AC6A3-7B22-44CA-A065-BD21741E715A";
paths = (
{
closed = 1;
nodes = (
"44 -10 LINE",
"534 456 LINE",
"520 470 LINE",
"30 4 LINE"
);
},
{
closed = 1;
nodes = (
"208 10 OFFCURVE",
"183 75 OFFCURVE",
"183 228 CURVE SMOOTH",
"183 385 OFFCURVE",
"208 450 OFFCURVE",
"281 450 CURVE",
"354 450 OFFCURVE",
"381 385 OFFCURVE",
"381 228 CURVE",
"381 75 OFFCURVE",
"354 10 OFFCURVE",
"281 10 CURVE SMOOTH"
);
},
{
closed = 1;
nodes = (
"396 -10 OFFCURVE",
"534 64 OFFCURVE",
"534 228 CURVE SMOOTH",
"534 398 OFFCURVE",
"396 470 OFFCURVE",
"281 470 CURVE",
"166 470 OFFCURVE",
"30 398 OFFCURVE",
"30 228 CURVE SMOOTH",
"30 64 OFFCURVE",
"166 -10 OFFCURVE",
"281 -10 CURVE SMOOTH"
);
}
);
width = 564;
}
);
unicode = 00F8;
},
{
glyphname = thorn;
layers = (
{
layerId = "768AC6A3-7B22-44CA-A065-BD21741E715A";
paths = (
{
closed = 1;
nodes = (
"240 46 LINE",
"263 -4 OFFCURVE",
"319 -12 OFFCURVE",
"369 -12 CURVE SMOOTH",
"470 -12 OFFCURVE",
"568 70 OFFCURVE",
"568 230 CURVE",
"568 398 OFFCURVE",
"472 482 OFFCURVE",
"369 482 CURVE SMOOTH",
"319 482 OFFCURVE",
"263 462 OFFCURVE",
"240 414 CURVE",
"240 670 LINE",
"90 670 LINE",
"90 -209 LINE",
"240 -209 LINE"
);
},
{
closed = 1;
nodes = (
"240 387 LINE",
"259 426 OFFCURVE",
"284 445 OFFCURVE",
"307 445 CURVE SMOOTH",
"364 445 OFFCURVE",
"416 384 OFFCURVE",
"416 229 CURVE",
"416 74 OFFCURVE",
"361 18 OFFCURVE",
"307 18 CURVE SMOOTH",
"284 18 OFFCURVE",
"258 32 OFFCURVE",
"240 68 CURVE"
);
},
{
closed = 1;
nodes = (
"290 -190 LINE",
"40 -190 LINE",
"40 -210 LINE",
"290 -210 LINE"
);
},
{
closed = 1;
nodes = (
"230 670 LINE",
"40 670 LINE",
"40 650 LINE",
"230 650 LINE"
);
}
);
width = 598;
}
);
unicode = 00FE;
},
{
glyphname = macron.cap;
layers = (
{
layerId = "768AC6A3-7B22-44CA-A065-BD21741E715A";
paths = (
{
closed = 1;
nodes = (
"400 707 LINE",
"200 707 LINE",
"200 657 LINE",
"400 657 LINE"
);
}
);
width = 600;
}
);
},
{
glyphname = breve.cap;
layers = (
{
layerId = "768AC6A3-7B22-44CA-A065-BD21741E715A";
paths = (
{
closed = 1;
nodes = (
"236 696 OFFCURVE",
"220 718 OFFCURVE",
"220 745 CURVE",
"200 745 LINE",
"200 671 OFFCURVE",
"224 620 OFFCURVE",
"293 620 CURVE",
"364 620 OFFCURVE",
"384 671 OFFCURVE",
"384 745 CURVE",
"364 745 LINE",
"364 718 OFFCURVE",
"350 696 OFFCURVE",
"293 696 CURVE SMOOTH"
);
}
);
width = 584;
}
);
},
{
glyphname = breve;
layers = (
{
layerId = "768AC6A3-7B22-44CA-A065-BD21741E715A";
paths = (
{
closed = 1;
nodes = (
"236 596 OFFCURVE",
"220 618 OFFCURVE",
"220 645 CURVE",
"200 645 LINE",
"200 571 OFFCURVE",
"224 520 OFFCURVE",
"293 520 CURVE",
"364 520 OFFCURVE",
"384 571 OFFCURVE",
"384 645 CURVE",
"364 645 LINE",
"364 618 OFFCURVE",
"350 596 OFFCURVE",
"293 596 CURVE SMOOTH"
);
}
);
width = 584;
}
);
unicode = 02D8;
},
{
glyphname = ogonek.cap;
layers = (
{
layerId = "768AC6A3-7B22-44CA-A065-BD21741E715A";
paths = (
{
closed = 1;
nodes = (
"149 -114 OFFCURVE",
"202 -177 OFFCURVE",
"266 -177 CURVE SMOOTH",
"298 -177 OFFCURVE",
"330 -154 OFFCURVE",
"348 -131 CURVE",
"338 -119 LINE",
"325 -131 OFFCURVE",
"302 -135 OFFCURVE",
"282 -121 CURVE SMOOTH",
"259 -104 OFFCURVE",
"252 -69 OFFCURVE",
"303 1 CURVE",
"303 1 OFFCURVE",
"288 11 OFFCURVE",
"288 11 CURVE"
);
}
);
width = 547;
}
);
},
{
glyphname = ogonek;
layers = (
{
layerId = "768AC6A3-7B22-44CA-A065-BD21741E715A";
paths = (
{
closed = 1;
nodes = (
"149 -114 OFFCURVE",
"202 -177 OFFCURVE",
"266 -177 CURVE SMOOTH",
"298 -177 OFFCURVE",
"330 -154 OFFCURVE",
"348 -131 CURVE",
"338 -119 LINE",
"325 -131 OFFCURVE",
"302 -135 OFFCURVE",
"282 -121 CURVE SMOOTH",
"259 -104 OFFCURVE",
"252 -69 OFFCURVE",
"303 1 CURVE",
"303 1 OFFCURVE",
"288 11 OFFCURVE",
"288 11 CURVE"
);
}
);
width = 548;
}
);
unicode = 02DB;
},
{
glyphname = caron.cap;
layers = (
{
layerId = "768AC6A3-7B22-44CA-A065-BD21741E715A";
paths = (
{
closed = 1;
nodes = (
"209 751 LINE",
"200 742 LINE",
"287 614 LINE",
"306 614 LINE",
"394 742 LINE",
"385 751 LINE",
"297 711 LINE"
);
}
);
width = 594;
}
);
},
{
glyphname = caron;
layers = (
{
layerId = "768AC6A3-7B22-44CA-A065-BD21741E715A";
paths = (
{
closed = 1;
nodes = (
"209 651 LINE",
"200 642 LINE",
"287 514 LINE",
"306 514 LINE",
"394 642 LINE",
"385 651 LINE",
"297 611 LINE"
);
}
);
width = 594;
}
);
unicode = 02C7;
},
{
glyphname = quoteright;
layers = (
{
layerId = "768AC6A3-7B22-44CA-A065-BD21741E715A";
paths = (
{
closed = 1;
nodes = (
"43 428 LINE",
"133 469 OFFCURVE",
"184 534 OFFCURVE",
"184 609 CURVE SMOOTH",
"184 656 OFFCURVE",
"152 708 OFFCURVE",
"89 708 CURVE SMOOTH",
"42 708 OFFCURVE",
"10 672 OFFCURVE",
"10 628 CURVE SMOOTH",
"10 581 OFFCURVE",
"46 560 OFFCURVE",
"77 560 CURVE SMOOTH",
"95 560 OFFCURVE",
"99 566 OFFCURVE",
"114 566 CURVE SMOOTH",
"122 566 OFFCURVE",
"130 560 OFFCURVE",
"130 550 CURVE SMOOTH",
"130 511 OFFCURVE",
"90 475 OFFCURVE",
"36 445 CURVE"
);
}
);
width = 198;
}
);
unicode = 2019;
},
{
glyphname = Dcroat;
layers = (
{
layerId = "768AC6A3-7B22-44CA-A065-BD21741E715A";
paths = (
{
closed = 1;
nodes = (
"357 298 LINE",
"40 298 LINE",
"40 278 LINE",
"357 278 LINE"
);
},
{
closed = 1;
nodes = (
"240 540 LINE",
"377 540 OFFCURVE",
"444 439 OFFCURVE",
"444 281 CURVE SMOOTH",
"444 85 OFFCURVE",
"381 20 OFFCURVE",
"240 20 CURVE"
);
},
{
closed = 1;
nodes = (
"290 0 LINE",
"497 0 OFFCURVE",
"595 94 OFFCURVE",
"595 283 CURVE SMOOTH",
"595 416 OFFCURVE",
"495 560 OFFCURVE",
"290 560 CURVE SMOOTH",
"40 560 LINE",
"40 540 LINE",
"90 540 LINE",
"90 20 LINE",
"40 20 LINE",
"40 0 LINE"
);
}
);
width = 625;
}
);
unicode = 0110;
},
{
glyphname = dcroat;
layers = (
{
layerId = "768AC6A3-7B22-44CA-A065-BD21741E715A";
paths = (
{
closed = 1;
nodes = (
"558 582 LINE",
"198 582 LINE",
"198 562 LINE",
"558 562 LINE"
);
},
{
closed = 1;
nodes = (
"498 670 LINE",
"308 670 LINE",
"308 650 LINE",
"498 650 LINE"
);
},
{
closed = 1;
nodes = (
"388 73 OFFCURVE",
"335 18 OFFCURVE",
"291 18 CURVE SMOOTH",
"237 18 OFFCURVE",
"182 74 OFFCURVE",
"182 229 CURVE",
"182 384 OFFCURVE",
"234 445 OFFCURVE",
"291 445 CURVE SMOOTH",
"335 445 OFFCURVE",
"388 375 OFFCURVE",
"388 230 CURVE SMOOTH"
);
},
{
closed = 1;
nodes = (
"358 1 LINE",
"508 1 LINE",
"508 670 LINE",
"358 670 LINE",
"358 414 LINE",
"335 462 OFFCURVE",
"279 482 OFFCURVE",
"229 482 CURVE SMOOTH",
"126 482 OFFCURVE",
"30 398 OFFCURVE",
"30 230 CURVE",
"30 70 OFFCURVE",
"128 -12 OFFCURVE",
"229 -12 CURVE SMOOTH",
"279 -12 OFFCURVE",
"335 -4 OFFCURVE",
"358 46 CURVE"
);
},
{
closed = 1;
nodes = (
"558 20 LINE",
"358 20 LINE",
"358 0 LINE",
"558 0 LINE"
);
}
);
width = 598;
}
);
unicode = 0111;
},
{
glyphname = dotaccent.cap;
layers = (
{
layerId = "768AC6A3-7B22-44CA-A065-BD21741E715A";
paths = (
{
closed = 1;
nodes = (
"325 717 OFFCURVE",
"297 745 OFFCURVE",
"264 745 CURVE SMOOTH",
"229 745 OFFCURVE",
"200 717 OFFCURVE",
"200 682 CURVE SMOOTH",
"200 648 OFFCURVE",
"229 621 OFFCURVE",
"264 621 CURVE SMOOTH",
"297 621 OFFCURVE",
"325 648 OFFCURVE",
"325 682 CURVE SMOOTH"
);
}
);
width = 525;
}
);
},
{
glyphname = dotaccent;
layers = (
{
layerId = "768AC6A3-7B22-44CA-A065-BD21741E715A";
paths = (
{
closed = 1;
nodes = (
"325 617 OFFCURVE",
"297 645 OFFCURVE",
"264 645 CURVE SMOOTH",
"229 645 OFFCURVE",
"200 617 OFFCURVE",
"200 582 CURVE SMOOTH",
"200 548 OFFCURVE",
"229 521 OFFCURVE",
"264 521 CURVE SMOOTH",
"297 521 OFFCURVE",
"325 548 OFFCURVE",
"325 582 CURVE SMOOTH"
);
}
);
width = 525;
}
);
unicode = 02D9;
},
{
glyphname = gbreve;
layers = (
{
components = (
{
name = breve;
transform = "{1, 0, 0, 1, -25, -1}";
alignment = -1;
}
);
layerId = "768AC6A3-7B22-44CA-A065-BD21741E715A";
paths = (
{
closed = 1;
nodes = (
"196 61 LINE",
"196 61 OFFCURVE",
"160 61 OFFCURVE",
"160 93 CURVE SMOOTH",
"160 134 OFFCURVE",
"187 159 OFFCURVE",
"187 159 CURVE",
"187 159 OFFCURVE",
"179 162 OFFCURVE",
"172 160 CURVE SMOOTH",
"141 152 OFFCURVE",
"64 98 OFFCURVE",
"64 30 CURVE SMOOTH",
"64 -42 OFFCURVE",
"127 -69 OFFCURVE",
"194 -69 CURVE",
"362 -69 LINE SMOOTH",
"473 -69 OFFCURVE",
"487 -117 OFFCURVE",
"434 -157 CURVE SMOOTH",
"405 -179 OFFCURVE",
"360 -201 OFFCURVE",
"288 -201 CURVE SMOOTH",
"172 -201 OFFCURVE",
"86 -147 OFFCURVE",
"116 -38 CURVE",
"85 -39 OFFCURVE",
"36 -61 OFFCURVE",
"31 -115 CURVE SMOOTH",
"23 -197 OFFCURVE",
"157 -221 OFFCURVE",
"288 -221 CURVE",
"440 -221 OFFCURVE",
"506 -129 OFFCURVE",
"516 -75 CURVE SMOOTH",
"530 -1 OFFCURVE",
"493 61 OFFCURVE",
"368 61 CURVE"
);
},
{
closed = 1;
nodes = (
"315 449 OFFCURVE",
"345 423 OFFCURVE",
"345 298 CURVE SMOOTH",
"345 184 OFFCURVE",
"315 150 OFFCURVE",
"264 150 CURVE SMOOTH",
"219 150 OFFCURVE",
"190 185 OFFCURVE",
"190 299 CURVE SMOOTH",
"190 424 OFFCURVE",
"220 449 OFFCURVE",
"261 449 CURVE SMOOTH"
);
},
{
closed = 1;
nodes = (
"495 414 OFFCURVE",
"376 469 OFFCURVE",
"273 469 CURVE SMOOTH",
"162 469 OFFCURVE",
"30 416 OFFCURVE",
"30 299 CURVE SMOOTH",
"30 187 OFFCURVE",
"133 130 OFFCURVE",
"256 130 CURVE SMOOTH",
"374 130 OFFCURVE",
"495 184 OFFCURVE",
"495 297 CURVE SMOOTH"
);
}
);
width = 538;
}
);
unicode = 011F;
},
{
glyphname = commaaccentcomb;
layers = (
{
layerId = "768AC6A3-7B22-44CA-A065-BD21741E715A";
paths = (
{
closed = 1;
nodes = (
"245 -240 LINE",
"305 -212 OFFCURVE",
"334 -164 OFFCURVE",
"334 -115 CURVE SMOOTH",
"334 -84 OFFCURVE",
"313 -49 OFFCURVE",
"272 -49 CURVE SMOOTH",
"240 -49 OFFCURVE",
"219 -73 OFFCURVE",
"219 -101 CURVE SMOOTH",
"219 -133 OFFCURVE",
"243 -148 OFFCURVE",
"264 -148 CURVE SMOOTH",
"276 -148 OFFCURVE",
"278 -144 OFFCURVE",
"288 -144 CURVE SMOOTH",
"293 -144 OFFCURVE",
"299 -148 OFFCURVE",
"299 -154 CURVE SMOOTH",
"299 -180 OFFCURVE",
"273 -204 OFFCURVE",
"237 -224 CURVE"
);
}
);
width = 552;
}
);
unicode = 0326;
},
{
glyphname = gcommaaccent;
layers = (
{
layerId = "768AC6A3-7B22-44CA-A065-BD21741E715A";
paths = (
{
closed = 1;
nodes = (
"315 449 OFFCURVE",
"345 423 OFFCURVE",
"345 298 CURVE SMOOTH",
"345 184 OFFCURVE",
"315 150 OFFCURVE",
"264 150 CURVE SMOOTH",
"219 150 OFFCURVE",
"190 185 OFFCURVE",
"190 299 CURVE SMOOTH",
"190 424 OFFCURVE",
"220 449 OFFCURVE",
"261 449 CURVE SMOOTH"
);
},
{
closed = 1;
nodes = (
"196 61 LINE",
"196 61 OFFCURVE",
"160 61 OFFCURVE",
"160 93 CURVE SMOOTH",
"160 134 OFFCURVE",
"187 159 OFFCURVE",
"187 159 CURVE",
"187 159 OFFCURVE",
"179 162 OFFCURVE",
"172 160 CURVE SMOOTH",
"141 152 OFFCURVE",
"64 98 OFFCURVE",
"64 30 CURVE SMOOTH",
"64 -42 OFFCURVE",
"127 -69 OFFCURVE",
"194 -69 CURVE",
"362 -69 LINE SMOOTH",
"473 -69 OFFCURVE",
"487 -117 OFFCURVE",
"434 -157 CURVE SMOOTH",
"405 -179 OFFCURVE",
"360 -201 OFFCURVE",
"288 -201 CURVE SMOOTH",
"172 -201 OFFCURVE",
"86 -147 OFFCURVE",
"116 -38 CURVE",
"85 -39 OFFCURVE",
"36 -61 OFFCURVE",
"31 -115 CURVE SMOOTH",
"23 -197 OFFCURVE",
"157 -221 OFFCURVE",
"288 -221 CURVE",
"440 -221 OFFCURVE",
"506 -129 OFFCURVE",
"516 -75 CURVE SMOOTH",
"530 -1 OFFCURVE",
"493 61 OFFCURVE",
"368 61 CURVE"
);
},
{
closed = 1;
nodes = (
"495 414 OFFCURVE",
"376 469 OFFCURVE",
"273 469 CURVE SMOOTH",
"162 469 OFFCURVE",
"30 416 OFFCURVE",
"30 299 CURVE SMOOTH",
"30 187 OFFCURVE",
"133 130 OFFCURVE",
"256 130 CURVE SMOOTH",
"374 130 OFFCURVE",
"495 184 OFFCURVE",
"495 297 CURVE SMOOTH"
);
},
{
closed = 1;
nodes = (
"308 729 LINE",
"234 695 OFFCURVE",
"193 643 OFFCURVE",
"193 582 CURVE SMOOTH",
"193 543 OFFCURVE",
"219 501 OFFCURVE",
"270 501 CURVE SMOOTH",
"309 501 OFFCURVE",
"335 529 OFFCURVE",
"335 565 CURVE SMOOTH",
"335 604 OFFCURVE",
"305 622 OFFCURVE",
"280 622 CURVE",
"265 622 OFFCURVE",
"262 617 OFFCURVE",
"250 617 CURVE SMOOTH",
"243 617 OFFCURVE",
"237 622 OFFCURVE",
"237 630 CURVE SMOOTH",
"237 662 OFFCURVE",
"269 690 OFFCURVE",
"313 716 CURVE"
);
}
);
width = 538;
}
);
unicode = 0123;
},
{
glyphname = imacron;
layers = (
{
components = (
{
name = macron;
transform = "{1, 0, 0, 1, -136, 0}";
alignment = -1;
}
);
layerId = "768AC6A3-7B22-44CA-A065-BD21741E715A";
paths = (
{
closed = 1;
nodes = (
"290 20 LINE",
"40 20 LINE",
"40 0 LINE",
"290 0 LINE"
);
},
{
closed = 1;
nodes = (
"230 460 LINE",
"50 460 LINE",
"50 440 LINE",
"230 440 LINE"
);
},
{
closed = 1;
nodes = (
"240 460 LINE",
"240 460 OFFCURVE",
"90 460 OFFCURVE",
"90 460 CURVE",
"90 1 LINE",
"240 1 LINE"
);
}
);
width = 320;
}
);
unicode = 012B;
},
{
glyphname = iogonek;
layers = (
{
components = (
{
name = ogonek;
transform = "{1, 0, 0, 1, -110, 0}";
alignment = -1;
}
);
layerId = "768AC6A3-7B22-44CA-A065-BD21741E715A";
paths = (
{
closed = 1;
nodes = (
"249 641 OFFCURVE",
"210 681 OFFCURVE",
"162 681 CURVE SMOOTH",
"113 681 OFFCURVE",
"73 641 OFFCURVE",
"73 592 CURVE SMOOTH",
"73 544 OFFCURVE",
"113 505 OFFCURVE",
"162 505 CURVE SMOOTH",
"210 505 OFFCURVE",
"249 544 OFFCURVE",
"249 592 CURVE SMOOTH"
);
},
{
closed = 1;
nodes = (
"290 20 LINE",
"40 20 LINE",
"40 0 LINE",
"290 0 LINE"
);
},
{
closed = 1;
nodes = (
"240 460 LINE",
"240 460 OFFCURVE",
"90 460 OFFCURVE",
"90 460 CURVE",
"90 1 LINE",
"240 1 LINE"
);
},
{
closed = 1;
nodes = (
"230 460 LINE",
"50 460 LINE",
"50 440 LINE",
"230 440 LINE"
);
}
);
width = 320;
}
);
unicode = 012F;
},
{
glyphname = dotlessi;
layers = (
{
layerId = "768AC6A3-7B22-44CA-A065-BD21741E715A";
paths = (
{
closed = 1;
nodes = (
"230 460 LINE",
"50 460 LINE",
"50 440 LINE",
"230 440 LINE"
);
},
{
closed = 1;
nodes = (
"240 460 LINE",
"240 460 OFFCURVE",
"90 460 OFFCURVE",
"90 460 CURVE",
"90 1 LINE",
"240 1 LINE"
);
},
{
closed = 1;
nodes = (
"290 20 LINE",
"40 20 LINE",
"40 0 LINE",
"290 0 LINE"
);
}
);
width = 330;
}
);
unicode = 0131;
},
{
glyphname = lcaron;
layers = (
{
components = (
{
name = quoteright;
transform = "{0.74, 0, 0, 0.74, 273, 173}";
alignment = -1;
}
);
layerId = "768AC6A3-7B22-44CA-A065-BD21741E715A";
paths = (
{
closed = 1;
nodes = (
"240 670 LINE",
"90 670 LINE",
"90 1 LINE",
"240 1 LINE"
);
},
{
closed = 1;
nodes = (
"290 20 LINE",
"40 20 LINE",
"40 0 LINE",
"290 0 LINE"
);
},
{
closed = 1;
nodes = (
"230 670 LINE",
"40 670 LINE",
"40 650 LINE",
"230 650 LINE"
);
}
);
width = 408;
}
);
unicode = 013E;
},
{
glyphname = Lslash;
layers = (
{
layerId = "768AC6A3-7B22-44CA-A065-BD21741E715A";
paths = (
{
closed = 1;
nodes = (
"380 470 LINE",
"20 280 LINE",
"20 255 LINE",
"380 445 LINE"
);
},
{
closed = 1;
nodes = (
"510 190 LINE",
"510 20 LINE",
"340 20 LINE",
"417 20 OFFCURVE",
"490 34 OFFCURVE",
"490 190 CURVE"
);
},
{
closed = 1;
nodes = (
"300 560 LINE",
"40 560 LINE",
"40 540 LINE",
"300 540 LINE"
);
},
{
closed = 1;
nodes = (
"510 20 LINE",
"40 20 LINE",
"40 0 LINE",
"510 0 LINE"
);
},
{
closed = 1;
nodes = (
"240 560 LINE",
"90 560 LINE",
"90 1 LINE",
"240 1 LINE"
);
}
);
width = 530;
}
);
unicode = 0141;
},
{
glyphname = lslash;
layers = (
{
layerId = "768AC6A3-7B22-44CA-A065-BD21741E715A";
paths = (
{
closed = 1;
nodes = (
"330 470 LINE",
"40 280 LINE",
"40 255 LINE",
"330 445 LINE"
);
},
{
closed = 1;
nodes = (
"260 670 LINE",
"110 670 LINE",
"110 1 LINE",
"260 1 LINE"
);
},
{
closed = 1;
nodes = (
"250 670 LINE",
"60 670 LINE",
"60 650 LINE",
"250 650 LINE"
);
},
{
closed = 1;
nodes = (
"310 20 LINE",
"60 20 LINE",
"60 0 LINE",
"310 0 LINE"
);
}
);
width = 360;
}
);
unicode = 0142;
},
{
glyphname = hungarumlaut.cap;
layers = (
{
layerId = "768AC6A3-7B22-44CA-A065-BD21741E715A";
paths = (
{
closed = 1;
nodes = (
"366 594 LINE",
"387 652 OFFCURVE",
"440 643 OFFCURVE",
"457 688 CURVE SMOOTH",
"471 725 OFFCURVE",
"451 759 OFFCURVE",
"422 764 CURVE",
"398 771 OFFCURVE",
"369 753 OFFCURVE",
"359 728 CURVE SMOOTH",
"339 676 OFFCURVE",
"370 656 OFFCURVE",
"350 600 CURVE"
);
},
{
closed = 1;
nodes = (
"216 594 LINE",
"237 652 OFFCURVE",
"290 643 OFFCURVE",
"307 688 CURVE SMOOTH",
"321 725 OFFCURVE",
"301 759 OFFCURVE",
"272 764 CURVE",
"248 771 OFFCURVE",
"219 753 OFFCURVE",
"209 728 CURVE SMOOTH",
"189 676 OFFCURVE",
"220 656 OFFCURVE",
"200 600 CURVE"
);
}
);
width = 661;
}
);
},
{
glyphname = hungarumlaut;
layers = (
{
layerId = "768AC6A3-7B22-44CA-A065-BD21741E715A";
paths = (
{
closed = 1;
nodes = (
"366 494 LINE",
"387 552 OFFCURVE",
"440 543 OFFCURVE",
"457 588 CURVE SMOOTH",
"471 625 OFFCURVE",
"451 659 OFFCURVE",
"422 664 CURVE",
"398 671 OFFCURVE",
"369 653 OFFCURVE",
"359 628 CURVE SMOOTH",
"339 576 OFFCURVE",
"370 556 OFFCURVE",
"350 500 CURVE"
);
},
{
closed = 1;
nodes = (
"216 494 LINE",
"237 552 OFFCURVE",
"290 543 OFFCURVE",
"307 588 CURVE SMOOTH",
"321 625 OFFCURVE",
"301 659 OFFCURVE",
"272 664 CURVE",
"248 671 OFFCURVE",
"219 653 OFFCURVE",
"209 628 CURVE SMOOTH",
"189 576 OFFCURVE",
"220 556 OFFCURVE",
"200 500 CURVE"
);
}
);
width = 661;
}
);
unicode = 02DD;
},
{
glyphname = OE;
layers = (
{
layerId = "768AC6A3-7B22-44CA-A065-BD21741E715A";
paths = (
{
closed = 1;
nodes = (
"321 20 LINE",
"238 20 OFFCURVE",
"191 105 OFFCURVE",
"191 271 CURVE",
"190 449 OFFCURVE",
"241 540 OFFCURVE",
"321 540 CURVE",
"370 540 LINE",
"370 20 LINE"
);
},
{
closed = 1;
nodes = (
"750 190 LINE",
"750 54 OFFCURVE",
"677 20 OFFCURVE",
"600 20 CURVE",
"770 20 LINE",
"770 190 LINE"
);
},
{
closed = 1;
nodes = (
"770 0 LINE",
"770 20 LINE",
"520 20 LINE",
"520 280 LINE",
"540 280 LINE",
"640 280 OFFCURVE",
"650 262 OFFCURVE",
"650 190 CURVE",
"670 190 LINE",
"670 390 LINE",
"650 390 LINE",
"650 322 OFFCURVE",
"640 300 OFFCURVE",
"540 300 CURVE",
"520 300 LINE",
"520 540 LINE",
"590 540 LINE",
"687 540 OFFCURVE",
"740 516 OFFCURVE",
"740 390 CURVE",
"760 390 LINE",
"760 560 LINE",
"321 560 LINE",
"147 560 OFFCURVE",
"29 454 OFFCURVE",
"30 271 CURVE",
"30 82 OFFCURVE",
"154 0 OFFCURVE",
"321 0 CURVE"
);
}
);
width = 820;
}
);
unicode = 0152;
},
{
glyphname = oe;
layers = (
{
layerId = "768AC6A3-7B22-44CA-A065-BD21741E715A";
paths = (
{
closed = 1;
nodes = (
"600 24 OFFCURVE",
"535 69 OFFCURVE",
"535 231 CURVE SMOOTH",
"535 323 OFFCURVE",
"552 450 OFFCURVE",
"616 450 CURVE",
"679 450 OFFCURVE",
"698 322 OFFCURVE",
"698 220 CURVE",
"698 220 OFFCURVE",
"491 220 OFFCURVE",
"491 220 CURVE",
"491 200 LINE",
"841 200 LINE",
"841 405 OFFCURVE",
"729 470 OFFCURVE",
"624 470 CURVE",
"509 470 OFFCURVE",
"386 406 OFFCURVE",
"386 232 CURVE SMOOTH",
"386 33 OFFCURVE",
"524 -10 OFFCURVE",
"646 -10 CURVE",
"717 -10 OFFCURVE",
"798 25 OFFCURVE",
"828 75 CURVE",
"814 85 LINE",
"785 42 OFFCURVE",
"709 24 OFFCURVE",
"673 24 CURVE SMOOTH"
);
},
{
closed = 1;
nodes = (
"396 -10 OFFCURVE",
"534 64 OFFCURVE",
"534 228 CURVE SMOOTH",
"534 398 OFFCURVE",
"396 470 OFFCURVE",
"281 470 CURVE",
"166 470 OFFCURVE",
"30 398 OFFCURVE",
"30 228 CURVE SMOOTH",
"30 64 OFFCURVE",
"166 -10 OFFCURVE",
"281 -10 CURVE SMOOTH"
);
},
{
closed = 1;
nodes = (
"208 10 OFFCURVE",
"183 75 OFFCURVE",
"183 228 CURVE SMOOTH",
"183 385 OFFCURVE",
"208 450 OFFCURVE",
"281 450 CURVE",
"354 450 OFFCURVE",
"381 385 OFFCURVE",
"381 228 CURVE",
"381 75 OFFCURVE",
"354 10 OFFCURVE",
"281 10 CURVE SMOOTH"
);
}
);
width = 874;
}
);
unicode = 0153;
},
{
glyphname = florin;
layers = (
{
layerId = "768AC6A3-7B22-44CA-A065-BD21741E715A";
paths = (
{
closed = 1;
nodes = (
"88 290 LINE",
"498 290 LINE",
"498 310 LINE",
"88 310 LINE"
);
},
{
closed = 1;
nodes = (
"391 460 LINE SMOOTH",
"414 588 OFFCURVE",
"440 649 OFFCURVE",
"480 660 CURVE",
"509 667 OFFCURVE",
"503 622 OFFCURVE",
"503 577 CURVE",
"503 519 OFFCURVE",
"544 500 OFFCURVE",
"580 500 CURVE SMOOTH",
"618 500 OFFCURVE",
"653 525 OFFCURVE",
"643 580 CURVE SMOOTH",
"632 638 OFFCURVE",
"573 680 OFFCURVE",
"488 680 CURVE SMOOTH",
"349 680 OFFCURVE",
"266 602 OFFCURVE",
"241 460 CURVE SMOOTH",
"160 0 LINE SMOOTH",
"137 -128 OFFCURVE",
"111 -189 OFFCURVE",
"71 -200 CURVE",
"42 -207 OFFCURVE",
"48 -162 OFFCURVE",
"48 -117 CURVE",
"48 -63 OFFCURVE",
"22 -40 OFFCURVE",
"-17 -40 CURVE SMOOTH",
"-55 -40 OFFCURVE",
"-97 -69 OFFCURVE",
"-88 -120 CURVE SMOOTH",
"-78 -179 OFFCURVE",
"-22 -220 OFFCURVE",
"63 -220 CURVE SMOOTH",
"202 -220 OFFCURVE",
"285 -142 OFFCURVE",
"310 0 CURVE"
);
}
);
width = 580;
}
);
unicode = 0192;
},
{
glyphname = endash;
layers = (
{
layerId = "768AC6A3-7B22-44CA-A065-BD21741E715A";
paths = (
{
closed = 1;
nodes = (
"30 206 LINE",
"492 206 LINE",
"492 226 LINE",
"30 226 LINE"
);
}
);
width = 522;
}
);
unicode = 2013;
},
{
glyphname = emdash;
layers = (
{
layerId = "768AC6A3-7B22-44CA-A065-BD21741E715A";
paths = (
{
closed = 1;
nodes = (
"30 206 LINE",
"779 206 LINE",
"779 226 LINE",
"30 226 LINE"
);
}
);
width = 817;
}
);
unicode = 2014;
},
{
glyphname = quoteleft;
layers = (
{
layerId = "768AC6A3-7B22-44CA-A065-BD21741E715A";
paths = (
{
closed = 1;
nodes = (
"151 708 LINE",
"61 667 OFFCURVE",
"10 602 OFFCURVE",
"10 527 CURVE SMOOTH",
"10 480 OFFCURVE",
"42 428 OFFCURVE",
"105 428 CURVE SMOOTH",
"152 428 OFFCURVE",
"184 464 OFFCURVE",
"184 508 CURVE SMOOTH",
"184 555 OFFCURVE",
"148 576 OFFCURVE",
"117 576 CURVE SMOOTH",
"99 576 OFFCURVE",
"95 570 OFFCURVE",
"80 570 CURVE SMOOTH",
"72 570 OFFCURVE",
"64 576 OFFCURVE",
"64 586 CURVE SMOOTH",
"64 625 OFFCURVE",
"104 661 OFFCURVE",
"158 691 CURVE"
);
}
);
width = 198;
}
);
unicode = 2018;
},
{
glyphname = quotesinglbase;
layers = (
{
layerId = "768AC6A3-7B22-44CA-A065-BD21741E715A";
paths = (
{
closed = 1;
nodes = (
"43 -142 LINE",
"133 -101 OFFCURVE",
"184 -36 OFFCURVE",
"184 39 CURVE SMOOTH",
"184 86 OFFCURVE",
"152 138 OFFCURVE",
"89 138 CURVE SMOOTH",
"42 138 OFFCURVE",
"10 102 OFFCURVE",
"10 58 CURVE SMOOTH",
"10 11 OFFCURVE",
"46 -10 OFFCURVE",
"77 -10 CURVE SMOOTH",
"95 -10 OFFCURVE",
"99 -4 OFFCURVE",
"114 -4 CURVE SMOOTH",
"122 -4 OFFCURVE",
"130 -10 OFFCURVE",
"130 -20 CURVE SMOOTH",
"130 -59 OFFCURVE",
"90 -95 OFFCURVE",
"36 -125 CURVE"
);
}
);
width = 204;
}
);
unicode = 201A;
},
{
glyphname = quotedblleft;
layers = (
{
layerId = "768AC6A3-7B22-44CA-A065-BD21741E715A";
paths = (
{
closed = 1;
nodes = (
"381 708 LINE",
"291 667 OFFCURVE",
"240 602 OFFCURVE",
"240 527 CURVE SMOOTH",
"240 480 OFFCURVE",
"272 428 OFFCURVE",
"335 428 CURVE SMOOTH",
"382 428 OFFCURVE",
"414 464 OFFCURVE",
"414 508 CURVE SMOOTH",
"414 555 OFFCURVE",
"378 576 OFFCURVE",
"347 576 CURVE SMOOTH",
"329 576 OFFCURVE",
"325 570 OFFCURVE",
"310 570 CURVE SMOOTH",
"302 570 OFFCURVE",
"294 576 OFFCURVE",
"294 586 CURVE SMOOTH",
"294 625 OFFCURVE",
"334 661 OFFCURVE",
"388 691 CURVE"
);
},
{
closed = 1;
nodes = (
"161 708 LINE",
"71 667 OFFCURVE",
"20 602 OFFCURVE",
"20 527 CURVE SMOOTH",
"20 480 OFFCURVE",
"52 428 OFFCURVE",
"115 428 CURVE SMOOTH",
"162 428 OFFCURVE",
"194 464 OFFCURVE",
"194 508 CURVE SMOOTH",
"194 555 OFFCURVE",
"158 576 OFFCURVE",
"127 576 CURVE SMOOTH",
"109 576 OFFCURVE",
"105 570 OFFCURVE",
"90 570 CURVE SMOOTH",
"82 570 OFFCURVE",
"74 576 OFFCURVE",
"74 586 CURVE SMOOTH",
"74 625 OFFCURVE",
"114 661 OFFCURVE",
"168 691 CURVE"
);
}
);
width = 433;
}
);
unicode = 201C;
},
{
glyphname = quotedblright;
layers = (
{
layerId = "768AC6A3-7B22-44CA-A065-BD21741E715A";
paths = (
{
closed = 1;
nodes = (
"53 428 LINE",
"143 469 OFFCURVE",
"194 534 OFFCURVE",
"194 609 CURVE SMOOTH",
"194 656 OFFCURVE",
"162 708 OFFCURVE",
"99 708 CURVE SMOOTH",
"52 708 OFFCURVE",
"20 672 OFFCURVE",
"20 628 CURVE SMOOTH",
"20 581 OFFCURVE",
"56 560 OFFCURVE",
"87 560 CURVE SMOOTH",
"105 560 OFFCURVE",
"109 566 OFFCURVE",
"124 566 CURVE SMOOTH",
"132 566 OFFCURVE",
"140 560 OFFCURVE",
"140 550 CURVE SMOOTH",
"140 511 OFFCURVE",
"100 475 OFFCURVE",
"46 445 CURVE"
);
},
{
closed = 1;
nodes = (
"273 428 LINE",
"363 469 OFFCURVE",
"414 534 OFFCURVE",
"414 609 CURVE SMOOTH",
"414 656 OFFCURVE",
"382 708 OFFCURVE",
"319 708 CURVE SMOOTH",
"272 708 OFFCURVE",
"240 672 OFFCURVE",
"240 628 CURVE SMOOTH",
"240 581 OFFCURVE",
"276 560 OFFCURVE",
"307 560 CURVE SMOOTH",
"325 560 OFFCURVE",
"329 566 OFFCURVE",
"344 566 CURVE SMOOTH",
"352 566 OFFCURVE",
"360 560 OFFCURVE",
"360 550 CURVE SMOOTH",
"360 511 OFFCURVE",
"320 475 OFFCURVE",
"266 445 CURVE"
);
}
);
width = 433;
}
);
unicode = 201D;
},
{
glyphname = quotedblbase;
layers = (
{
layerId = "768AC6A3-7B22-44CA-A065-BD21741E715A";
paths = (
{
closed = 1;
nodes = (
"273 -143 LINE",
"363 -102 OFFCURVE",
"414 -37 OFFCURVE",
"414 38 CURVE SMOOTH",
"414 85 OFFCURVE",
"382 137 OFFCURVE",
"319 137 CURVE SMOOTH",
"272 137 OFFCURVE",
"240 101 OFFCURVE",
"240 57 CURVE SMOOTH",
"240 10 OFFCURVE",
"276 -11 OFFCURVE",
"307 -11 CURVE SMOOTH",
"325 -11 OFFCURVE",
"329 -5 OFFCURVE",
"344 -5 CURVE SMOOTH",
"352 -5 OFFCURVE",
"360 -11 OFFCURVE",
"360 -21 CURVE SMOOTH",
"360 -60 OFFCURVE",
"320 -96 OFFCURVE",
"266 -126 CURVE"
);
},
{
closed = 1;
nodes = (
"53 -143 LINE",
"143 -102 OFFCURVE",
"194 -37 OFFCURVE",
"194 38 CURVE SMOOTH",
"194 85 OFFCURVE",
"162 137 OFFCURVE",
"99 137 CURVE SMOOTH",
"52 137 OFFCURVE",
"20 101 OFFCURVE",
"20 57 CURVE SMOOTH",
"20 10 OFFCURVE",
"56 -11 OFFCURVE",
"87 -11 CURVE SMOOTH",
"105 -11 OFFCURVE",
"109 -5 OFFCURVE",
"124 -5 CURVE SMOOTH",
"132 -5 OFFCURVE",
"140 -11 OFFCURVE",
"140 -21 CURVE SMOOTH",
"140 -60 OFFCURVE",
"100 -96 OFFCURVE",
"46 -126 CURVE"
);
}
);
width = 434;
}
);
unicode = 201E;
},
{
glyphname = dagger;
layers = (
{
layerId = "768AC6A3-7B22-44CA-A065-BD21741E715A";
paths = (
{
closed = 1;
nodes = (
"212 439 LINE",
"212 383 OFFCURVE",
"211 302 OFFCURVE",
"131 269 CURVE",
"131 269 OFFCURVE",
"215 44 OFFCURVE",
"215 -180 CURVE",
"228 -180 LINE",
"228 63 OFFCURVE",
"312 269 OFFCURVE",
"312 269 CURVE",
"231 302 OFFCURVE",
"231 383 OFFCURVE",
"231 439 CURVE"
);
},
{
closed = 1;
nodes = (
"231 440 LINE",
"233 494 OFFCURVE",
"278 550 OFFCURVE",
"278 601 CURVE SMOOTH",
"278 637 OFFCURVE",
"262 671 OFFCURVE",
"222 671 CURVE SMOOTH",
"183 671 OFFCURVE",
"165 637 OFFCURVE",
"165 601 CURVE SMOOTH",
"165 550 OFFCURVE",
"207 494 OFFCURVE",
"212 440 CURVE"
);
},
{
closed = 1;
nodes = (
"221 450 LINE",
"167 452 OFFCURVE",
"131 497 OFFCURVE",
"80 497 CURVE SMOOTH",
"44 497 OFFCURVE",
"10 481 OFFCURVE",
"10 441 CURVE SMOOTH",
"10 402 OFFCURVE",
"44 384 OFFCURVE",
"80 384 CURVE SMOOTH",
"131 384 OFFCURVE",
"167 426 OFFCURVE",
"221 431 CURVE"
);
},
{
closed = 1;
nodes = (
"221 430 LINE",
"275 428 OFFCURVE",
"311 383 OFFCURVE",
"362 383 CURVE SMOOTH",
"398 383 OFFCURVE",
"432 399 OFFCURVE",
"432 439 CURVE SMOOTH",
"432 478 OFFCURVE",
"398 496 OFFCURVE",
"362 496 CURVE SMOOTH",
"311 496 OFFCURVE",
"275 454 OFFCURVE",
"221 449 CURVE"
);
}
);
width = 442;
}
);
unicode = 2020;
},
{
glyphname = daggerdbl;
layers = (
{
layerId = "768AC6A3-7B22-44CA-A065-BD21741E715A";
paths = (
{
closed = 1;
nodes = (
"221 447 LINE",
"167 449 OFFCURVE",
"131 494 OFFCURVE",
"80 494 CURVE SMOOTH",
"44 494 OFFCURVE",
"10 478 OFFCURVE",
"10 438 CURVE SMOOTH",
"10 399 OFFCURVE",
"44 381 OFFCURVE",
"80 381 CURVE SMOOTH",
"131 381 OFFCURVE",
"167 423 OFFCURVE",
"221 428 CURVE"
);
},
{
closed = 1;
nodes = (
"221 427 LINE",
"275 425 OFFCURVE",
"311 380 OFFCURVE",
"362 380 CURVE SMOOTH",
"398 380 OFFCURVE",
"432 396 OFFCURVE",
"432 436 CURVE SMOOTH",
"432 475 OFFCURVE",
"398 493 OFFCURVE",
"362 493 CURVE SMOOTH",
"311 493 OFFCURVE",
"275 451 OFFCURVE",
"221 446 CURVE"
);
},
{
closed = 1;
nodes = (
"212 345 OFFCURVE",
"140 267 OFFCURVE",
"141 267 CURVE",
"140 267 OFFCURVE",
"212 189 OFFCURVE",
"212 97 CURVE",
"207 43 OFFCURVE",
"165 -13 OFFCURVE",
"165 -64 CURVE SMOOTH",
"165 -100 OFFCURVE",
"183 -134 OFFCURVE",
"222 -134 CURVE SMOOTH",
"262 -134 OFFCURVE",
"278 -100 OFFCURVE",
"278 -64 CURVE SMOOTH",
"278 -13 OFFCURVE",
"231 43 OFFCURVE",
"231 97 CURVE SMOOTH",
"231 189 OFFCURVE",
"302 266 OFFCURVE",
"302 266 CURVE",
"302 268 OFFCURVE",
"231 345 OFFCURVE",
"231 437 CURVE SMOOTH",
"231 491 OFFCURVE",
"278 547 OFFCURVE",
"278 598 CURVE SMOOTH",
"278 634 OFFCURVE",
"262 668 OFFCURVE",
"222 668 CURVE SMOOTH",
"183 668 OFFCURVE",
"165 634 OFFCURVE",
"165 598 CURVE SMOOTH",
"165 547 OFFCURVE",
"207 491 OFFCURVE",
"212 437 CURVE"
);
},
{
closed = 1;
nodes = (
"221 107 LINE",
"167 109 OFFCURVE",
"131 154 OFFCURVE",
"80 154 CURVE SMOOTH",
"44 154 OFFCURVE",
"10 138 OFFCURVE",
"10 98 CURVE SMOOTH",
"10 59 OFFCURVE",
"44 41 OFFCURVE",
"80 41 CURVE SMOOTH",
"131 41 OFFCURVE",
"167 83 OFFCURVE",
"221 88 CURVE"
);
},
{
closed = 1;
nodes = (
"221 87 LINE",
"275 85 OFFCURVE",
"311 40 OFFCURVE",
"362 40 CURVE SMOOTH",
"398 40 OFFCURVE",
"432 56 OFFCURVE",
"432 96 CURVE SMOOTH",
"432 135 OFFCURVE",
"398 153 OFFCURVE",
"362 153 CURVE SMOOTH",
"311 153 OFFCURVE",
"275 111 OFFCURVE",
"221 106 CURVE"
);
}
);
width = 442;
}
);
unicode = 2021;
},
{
glyphname = bullet;
layers = (
{
layerId = "768AC6A3-7B22-44CA-A065-BD21741E715A";
paths = (
{
closed = 1;
nodes = (
"29 256 OFFCURVE",
"87 198 OFFCURVE",
"160 198 CURVE SMOOTH",
"232 198 OFFCURVE",
"290 256 OFFCURVE",
"290 329 CURVE SMOOTH",
"290 401 OFFCURVE",
"232 459 OFFCURVE",
"160 459 CURVE SMOOTH",
"87 459 OFFCURVE",
"29 401 OFFCURVE",
"29 329 CURVE SMOOTH"
);
}
);
width = 319;
}
);
unicode = 2022;
},
{
glyphname = ellipsis;
layers = (
{
layerId = "768AC6A3-7B22-44CA-A065-BD21741E715A";
paths = (
{
closed = 1;
nodes = (
"187 -10 OFFCURVE",
"232 36 OFFCURVE",
"232 89 CURVE SMOOTH",
"232 144 OFFCURVE",
"187 189 OFFCURVE",
"132 189 CURVE SMOOTH",
"79 189 OFFCURVE",
"33 144 OFFCURVE",
"33 89 CURVE SMOOTH",
"33 36 OFFCURVE",
"79 -10 OFFCURVE",
"132 -10 CURVE SMOOTH"
);
},
{
closed = 1;
nodes = (
"447 -10 OFFCURVE",
"492 36 OFFCURVE",
"492 89 CURVE SMOOTH",
"492 144 OFFCURVE",
"447 189 OFFCURVE",
"392 189 CURVE SMOOTH",
"339 189 OFFCURVE",
"293 144 OFFCURVE",
"293 89 CURVE SMOOTH",
"293 36 OFFCURVE",
"339 -10 OFFCURVE",
"392 -10 CURVE SMOOTH"
);
},
{
closed = 1;
nodes = (
"707 -10 OFFCURVE",
"752 36 OFFCURVE",
"752 89 CURVE SMOOTH",
"752 144 OFFCURVE",
"707 189 OFFCURVE",
"652 189 CURVE SMOOTH",
"599 189 OFFCURVE",
"553 144 OFFCURVE",
"553 89 CURVE SMOOTH",
"553 36 OFFCURVE",
"599 -10 OFFCURVE",
"652 -10 CURVE SMOOTH"
);
}
);
width = 818;
}
);
unicode = 2026;
},
{
glyphname = perthousand;
layers = (
{
layerId = "768AC6A3-7B22-44CA-A065-BD21741E715A";
paths = (
{
closed = 1;
nodes = (
"906 203 OFFCURVE",
"854 253 OFFCURVE",
"767 253 CURVE SMOOTH",
"678 253 OFFCURVE",
"627 197 OFFCURVE",
"627 124 CURVE SMOOTH",
"627 48 OFFCURVE",
"668 -7 OFFCURVE",
"764 -7 CURVE SMOOTH",
"862 -7 OFFCURVE",
"906 52 OFFCURVE",
"906 128 CURVE SMOOTH"
);
},
{
closed = 1;
nodes = (
"801 233 OFFCURVE",
"814 201 OFFCURVE",
"814 129 CURVE SMOOTH",
"814 57 OFFCURVE",
"802 12 OFFCURVE",
"768 12 CURVE SMOOTH",
"730 12 OFFCURVE",
"718 56 OFFCURVE",
"718 129 CURVE SMOOTH",
"718 202 OFFCURVE",
"735 233 OFFCURVE",
"767 233 CURVE SMOOTH"
);
},
{
closed = 1;
nodes = (
"214 550 OFFCURVE",
"227 518 OFFCURVE",
"227 446 CURVE SMOOTH",
"227 374 OFFCURVE",
"215 329 OFFCURVE",
"181 329 CURVE SMOOTH",
"143 329 OFFCURVE",
"131 373 OFFCURVE",
"131 446 CURVE SMOOTH",
"131 519 OFFCURVE",
"148 550 OFFCURVE",
"180 550 CURVE SMOOTH"
);
},
{
closed = 1;
nodes = (
"590 203 OFFCURVE",
"538 253 OFFCURVE",
"451 253 CURVE SMOOTH",
"362 253 OFFCURVE",
"311 197 OFFCURVE",
"311 124 CURVE SMOOTH",
"311 48 OFFCURVE",
"352 -7 OFFCURVE",
"448 -7 CURVE SMOOTH",
"546 -7 OFFCURVE",
"590 52 OFFCURVE",
"590 128 CURVE SMOOTH"
);
},
{
closed = 1;
nodes = (
"156 2 LINE",
"173 -7 LINE",
"466 558 LINE",
"448 567 LINE"
);
},
{
closed = 1;
nodes = (
"485 233 OFFCURVE",
"498 201 OFFCURVE",
"498 129 CURVE SMOOTH",
"498 57 OFFCURVE",
"486 12 OFFCURVE",
"452 12 CURVE SMOOTH",
"414 12 OFFCURVE",
"402 56 OFFCURVE",
"402 129 CURVE SMOOTH",
"402 202 OFFCURVE",
"419 233 OFFCURVE",
"451 233 CURVE SMOOTH"
);
},
{
closed = 1;
nodes = (
"319 520 OFFCURVE",
"267 570 OFFCURVE",
"180 570 CURVE SMOOTH",
"91 570 OFFCURVE",
"40 514 OFFCURVE",
"40 441 CURVE SMOOTH",
"40 365 OFFCURVE",
"81 310 OFFCURVE",
"177 310 CURVE SMOOTH",
"275 310 OFFCURVE",
"319 369 OFFCURVE",
"319 445 CURVE SMOOTH"
);
}
);
width = 926;
}
);
unicode = 2030;
},
{
glyphname = fraction;
layers = (
{
layerId = "768AC6A3-7B22-44CA-A065-BD21741E715A";
paths = (
{
closed = 1;
nodes = (
"-130 0 LINE",
"-109 0 LINE",
"191 561 LINE",
"170 561 LINE"
);
}
);
width = 61;
}
);
unicode = 2044;
},
{
glyphname = Euro;
layers = (
{
layerId = "768AC6A3-7B22-44CA-A065-BD21741E715A";
paths = (
{
closed = 1;
nodes = (
"251 439 OFFCURVE",
"305 551 OFFCURVE",
"407 551 CURVE SMOOTH",
"448 551 OFFCURVE",
"477 536 OFFCURVE",
"477 510 CURVE SMOOTH",
"477 485 OFFCURVE",
"434 486 OFFCURVE",
"434 442 CURVE SMOOTH",
"434 410 OFFCURVE",
"461 385 OFFCURVE",
"499 385 CURVE SMOOTH",
"544 385 OFFCURVE",
"567 418 OFFCURVE",
"567 455 CURVE SMOOTH",
"567 527 OFFCURVE",
"492 571 OFFCURVE",
"396 571 CURVE SMOOTH",
"213 571 OFFCURVE",
"76 465 OFFCURVE",
"76 272 CURVE SMOOTH",
"76 73 OFFCURVE",
"213 -13 OFFCURVE",
"396 -13 CURVE SMOOTH",
"492 -13 OFFCURVE",
"567 31 OFFCURVE",
"567 103 CURVE SMOOTH",
"567 140 OFFCURVE",
"544 173 OFFCURVE",
"499 173 CURVE SMOOTH",
"461 173 OFFCURVE",
"434 148 OFFCURVE",
"434 116 CURVE SMOOTH",
"434 72 OFFCURVE",
"477 73 OFFCURVE",
"477 48 CURVE SMOOTH",
"477 22 OFFCURVE",
"448 7 OFFCURVE",
"407 7 CURVE SMOOTH",
"305 7 OFFCURVE",
"251 109 OFFCURVE",
"251 274 CURVE SMOOTH"
);
},
{
closed = 1;
nodes = (
"407 229 LINE",
"20 229 LINE",
"20 209 LINE",
"407 209 LINE"
);
},
{
closed = 1;
nodes = (
"407 358 LINE",
"20 358 LINE",
"20 338 LINE",
"407 338 LINE"
);
}
);
width = 597;
}
);
unicode = 20AC;
},
{
color = (153, 154, 255, 255);
glyphname = litre;
layers = (
{
layerId = "7235136D-3CF1-47D2-8391-CCDCEC602622";
name = public.background;
paths = (
{
closed = 1;
nodes = (
"420 511 OFFCURVE",
"362 563 OFFCURVE",
"287 563 CURVE SMOOTH",
"175 563 OFFCURVE",
"79 491 OFFCURVE",
"79 321 CURVE",
"79 321 OFFCURVE",
"79 173 OFFCURVE",
"79 173 CURVE",
"79 27 OFFCURVE",
"149 -10 OFFCURVE",
"251 -10 CURVE SMOOTH",
"298 -10 OFFCURVE",
"339 5 OFFCURVE",
"366 24 CURVE",
"366 44 LINE",
"354 36 OFFCURVE",
"324 34 OFFCURVE",
"303 34 CURVE SMOOTH",
"229 34 OFFCURVE",
"229 118 OFFCURVE",
"229 196 CURVE",
"229 196 OFFCURVE",
"229 321 OFFCURVE",
"229 321 CURVE",
"229 478 OFFCURVE",
"244 543 OFFCURVE",
"287 543 CURVE SMOOTH",
"310 543 OFFCURVE",
"317 508 OFFCURVE",
"317 431 CURVE SMOOTH",
"316 215 OFFCURVE",
"223 133 OFFCURVE",
"30 133 CURVE",
"30 133 OFFCURVE",
"30 113 OFFCURVE",
"30 113 CURVE",
"219 113 OFFCURVE",
"420 218 OFFCURVE",
"420 401 CURVE SMOOTH"
);
}
);
width = 460;
},
{
layerId = "768AC6A3-7B22-44CA-A065-BD21741E715A";
paths = (
{
closed = 1;
nodes = (
"426 522 OFFCURVE",
"354 563 OFFCURVE",
"279 563 CURVE",
"167 563 OFFCURVE",
"87 488 OFFCURVE",
"87 342 CURVE",
"87 342 OFFCURVE",
"87 173 OFFCURVE",
"87 173 CURVE",
"87 27 OFFCURVE",
"149 -10 OFFCURVE",
"251 -10 CURVE SMOOTH",
"298 -10 OFFCURVE",
"339 5 OFFCURVE",
"366 24 CURVE",
"366 44 LINE",
"354 36 OFFCURVE",
"324 34 OFFCURVE",
"303 34 CURVE SMOOTH",
"229 34 OFFCURVE",
"229 118 OFFCURVE",
"229 196 CURVE",
"229 196 OFFCURVE",
"229 363 OFFCURVE",
"229 363 CURVE",
"229 482 OFFCURVE",
"235 543 OFFCURVE",
"278 543 CURVE",
"301 543 OFFCURVE",
"317 523 OFFCURVE",
"317 446 CURVE",
"316 230 OFFCURVE",
"223 133 OFFCURVE",
"30 133 CURVE",
"30 133 OFFCURVE",
"30 113 OFFCURVE",
"30 113 CURVE",
"219 113 OFFCURVE",
"426 229 OFFCURVE",
"426 412 CURVE SMOOTH"
);
}
);
width = 460;
}
);
unicode = 2113;
},
{
glyphname = trademark;
layers = (
{
layerId = "768AC6A3-7B22-44CA-A065-BD21741E715A";
paths = (
{
closed = 1;
nodes = (
"130 396 LINE",
"93 396 LINE",
"93 386 LINE",
"238 386 LINE",
"238 396 LINE",
"200 396 LINE",
"200 659 LINE",
"251 659 OFFCURVE",
"292 644 OFFCURVE",
"296 581 CURVE",
"308 581 LINE",
"308 670 LINE",
"20 670 LINE",
"20 581 LINE",
"30 581 LINE",
"36 644 OFFCURVE",
"80 659 OFFCURVE",
"130 659 CURVE"
);
},
{
closed = 1;
nodes = (
"368 396 LINE",
"331 396 LINE",
"331 386 LINE",
"416 386 LINE",
"416 396 LINE",
"380 396 LINE",
"380 662 LINE",
"381 662 LINE",
"492 383 LINE",
"504 383 LINE",
"611 662 LINE",
"612 662 LINE",
"612 396 LINE",
"576 396 LINE",
"576 386 LINE",
"720 386 LINE",
"720 396 LINE",
"684 396 LINE",
"684 659 LINE",
"720 659 LINE",
"720 670 LINE",
"600 670 LINE",
"529 489 LINE",
"454 670 LINE",
"331 670 LINE",
"331 659 LINE",
"368 659 LINE"
);
}
);
width = 760;
}
);
unicode = 2122;
},
{
glyphname = Ohm;
layers = (
{
layerId = "768AC6A3-7B22-44CA-A065-BD21741E715A";
paths = (
{
closed = 1;
nodes = (
"11 0 LINE",
"281 0 LINE",
"281 119 LINE",
"217 137 OFFCURVE",
"193 200 OFFCURVE",
"193 347 CURVE",
"193 474 OFFCURVE",
"218 549 OFFCURVE",
"291 549 CURVE",
"364 549 OFFCURVE",
"391 474 OFFCURVE",
"391 347 CURVE",
"391 212 OFFCURVE",
"378 139 OFFCURVE",
"315 119 CURVE",
"315 0 LINE",
"575 0 LINE",
"575 159 LINE",
"555 159 LINE",
"555 99 LINE",
"367 99 LINE",
"367 99 OFFCURVE",
"367 103 OFFCURVE",
"367 103 CURVE",
"468 123 OFFCURVE",
"544 181 OFFCURVE",
"544 327 CURVE SMOOTH",
"544 507 OFFCURVE",
"406 569 OFFCURVE",
"291 569 CURVE",
"176 569 OFFCURVE",
"40 507 OFFCURVE",
"40 327 CURVE",
"40 192 OFFCURVE",
"119 123 OFFCURVE",
"217 103 CURVE",
"217 99 LINE",
"31 99 LINE",
"31 159 LINE",
"11 159 LINE"
);
}
);
width = 500;
}
);
unicode = 2126;
},
{
glyphname = partialdiff;
layers = (
{
layerId = "768AC6A3-7B22-44CA-A065-BD21741E715A";
paths = (
{
closed = 1;
nodes = (
"398 84 OFFCURVE",
"358 10 OFFCURVE",
"289 10 CURVE",
"213 10 OFFCURVE",
"190 116 OFFCURVE",
"190 220 CURVE",
"190 308 OFFCURVE",
"205 430 OFFCURVE",
"340 430 CURVE",
"340 430 OFFCURVE",
"340 450 OFFCURVE",
"340 450 CURVE",
"121 450 OFFCURVE",
"30 368 OFFCURVE",
"30 220 CURVE SMOOTH",
"30 30 OFFCURVE",
"192 -10 OFFCURVE",
"289 -10 CURVE",
"453 -10 OFFCURVE",
"560 44 OFFCURVE",
"560 278 CURVE",
"560 512 OFFCURVE",
"383 702 OFFCURVE",
"129 702 CURVE",
"129 682 LINE",
"280 682 OFFCURVE",
"398 530 OFFCURVE",
"398 278 CURVE SMOOTH"
);
}
);
width = 600;
}
);
unicode = 2202;
},
{
glyphname = increment;
layers = (
{
layerId = "768AC6A3-7B22-44CA-A065-BD21741E715A";
paths = (
{
closed = 1;
nodes = (
"272 570 LINE",
"251 570 LINE",
"251 570 OFFCURVE",
"191 392 OFFCURVE",
"191 392 CURVE",
"379 0 LINE",
"512 0 LINE",
"512 0 OFFCURVE",
"526 19 OFFCURVE",
"526 19 CURVE"
);
},
{
closed = 1;
nodes = (
"35 0 LINE",
"272 570 LINE",
"247 570 LINE",
"10 0 LINE"
);
},
{
closed = 1;
nodes = (
"472 20 LINE",
"31 20 LINE",
"31 0 LINE",
"472 0 LINE"
);
}
);
width = 545;
}
);
unicode = 2206;
},
{
glyphname = product;
layers = (
{
layerId = "768AC6A3-7B22-44CA-A065-BD21741E715A";
paths = (
{
closed = 1;
nodes = (
"556 560 LINE",
"406 560 LINE",
"406 -117 LINE",
"556 -117 LINE"
);
},
{
closed = 1;
nodes = (
"606 -98 LINE",
"356 -98 LINE",
"356 -118 LINE",
"606 -118 LINE"
);
},
{
closed = 1;
nodes = (
"606 560 LINE",
"226 560 LINE",
"226 540 LINE",
"606 540 LINE"
);
},
{
closed = 1;
nodes = (
"290 -98 LINE",
"40 -98 LINE",
"40 -118 LINE",
"290 -118 LINE"
);
},
{
closed = 1;
nodes = (
"290 560 LINE",
"40 560 LINE",
"40 540 LINE",
"290 540 LINE"
);
},
{
closed = 1;
nodes = (
"240 560 LINE",
"90 560 LINE",
"90 -117 LINE",
"240 -117 LINE"
);
}
);
width = 646;
}
);
unicode = 220F;
},
{
color = (153, 154, 255, 255);
glyphname = summation;
layers = (
{
layerId = "7235136D-3CF1-47D2-8391-CCDCEC602622";
name = public.background;
paths = (
{
closed = 1;
nodes = (
"556 560 LINE",
"406 560 LINE",
"406 -117 LINE",
"556 -117 LINE"
);
},
{
closed = 1;
nodes = (
"606 -98 LINE",
"356 -98 LINE",
"356 -118 LINE",
"606 -118 LINE"
);
},
{
closed = 1;
nodes = (
"606 560 LINE",
"226 560 LINE",
"226 540 LINE",
"606 540 LINE"
);
},
{
closed = 1;
nodes = (
"290 -98 LINE",
"40 -98 LINE",
"40 -118 LINE",
"290 -118 LINE"
);
},
{
closed = 1;
nodes = (
"290 560 LINE",
"40 560 LINE",
"40 540 LINE",
"290 540 LINE"
);
},
{
closed = 1;
nodes = (
"240 560 LINE",
"90 560 LINE",
"90 -117 LINE",
"240 -117 LINE"
);
}
);
width = 500;
},
{
layerId = "768AC6A3-7B22-44CA-A065-BD21741E715A";
paths = (
{
closed = 1;
nodes = (
"453 -118 LINE",
"453 112 LINE",
"433 112 LINE",
"433 16 OFFCURVE",
"410 2 OFFCURVE",
"283 2 CURVE",
"125 2 LINE",
"338 273 LINE",
"165 540 LINE",
"280 540 LINE",
"377 540 OFFCURVE",
"430 516 OFFCURVE",
"430 390 CURVE",
"450 390 LINE",
"450 560 LINE",
"0 560 LINE",
"0 540 LINE",
"232 192 LINE",
"4 -96 LINE",
"4 -118 LINE"
);
}
);
width = 500;
}
);
unicode = 2211;
},
{
glyphname = minus;
layers = (
{
layerId = "768AC6A3-7B22-44CA-A065-BD21741E715A";
paths = (
{
closed = 1;
nodes = (
"465 245 LINE",
"40 245 LINE",
"40 225 LINE",
"465 225 LINE"
);
}
);
width = 505;
}
);
unicode = 2212;
},
{
glyphname = radical;
layers = (
{
layerId = "768AC6A3-7B22-44CA-A065-BD21741E715A";
paths = (
{
closed = 1;
nodes = (
"40 292 LINE",
"150 0 LINE",
"171 0 LINE",
"61 292 LINE"
);
},
{
closed = 1;
nodes = (
"176 0 LINE",
"326 560 LINE",
"304 560 LINE",
"154 0 LINE"
);
},
{
closed = 1;
nodes = (
"318 540 LINE",
"530 540 LINE",
"530 560 LINE",
"318 560 LINE"
);
}
);
width = 570;
}
);
unicode = 221A;
},
{
glyphname = infinity;
layers = (
{
layerId = "768AC6A3-7B22-44CA-A065-BD21741E715A";
paths = (
{
closed = 1;
nodes = (
"416 61 OFFCURVE",
"470 19 OFFCURVE",
"548 19 CURVE SMOOTH",
"674 19 OFFCURVE",
"721 120 OFFCURVE",
"721 241 CURVE SMOOTH",
"721 357 OFFCURVE",
"662 442 OFFCURVE",
"536 442 CURVE SMOOTH",
"451 442 OFFCURVE",
"365 409 OFFCURVE",
"315 279 CURVE SMOOTH",
"273 170 OFFCURVE",
"272 41 OFFCURVE",
"225 41 CURVE SMOOTH",
"189 41 OFFCURVE",
"185 88 OFFCURVE",
"185 225 CURVE SMOOTH",
"185 313 OFFCURVE",
"188 410 OFFCURVE",
"259 410 CURVE SMOOTH",
"299 410 OFFCURVE",
"332 362 OFFCURVE",
"337 315 CURVE",
"356 332 LINE",
"342 403 OFFCURVE",
"290 445 OFFCURVE",
"213 445 CURVE SMOOTH",
"103 445 OFFCURVE",
"35 353 OFFCURVE",
"35 238 CURVE SMOOTH",
"35 130 OFFCURVE",
"90 22 OFFCURVE",
"220 22 CURVE SMOOTH",
"330 22 OFFCURVE",
"397 77 OFFCURVE",
"442 189 CURVE SMOOTH",
"482 288 OFFCURVE",
"484 423 OFFCURVE",
"531 423 CURVE SMOOTH",
"567 423 OFFCURVE",
"571 369 OFFCURVE",
"571 240 CURVE SMOOTH",
"571 151 OFFCURVE",
"567 56 OFFCURVE",
"498 56 CURVE SMOOTH",
"457 56 OFFCURVE",
"422 101 OFFCURVE",
"417 151 CURVE",
"417 151 OFFCURVE",
"400 131 OFFCURVE",
"400 131 CURVE"
);
}
);
width = 756;
}
);
unicode = 221E;
},
{
glyphname = approxequal;
layers = (
{
layerId = "768AC6A3-7B22-44CA-A065-BD21741E715A";
paths = (
{
closed = 1;
nodes = (
"435 211 LINE",
"294 111 OFFCURVE",
"169 312 OFFCURVE",
"30 192 CURVE",
"30 166 LINE",
"169 286 OFFCURVE",
"294 85 OFFCURVE",
"435 185 CURVE"
);
},
{
closed = 1;
nodes = (
"435 341 LINE",
"294 241 OFFCURVE",
"169 442 OFFCURVE",
"30 322 CURVE",
"30 296 LINE",
"169 416 OFFCURVE",
"294 215 OFFCURVE",
"435 315 CURVE"
);
}
);
width = 465;
}
);
unicode = 2248;
},
{
glyphname = notequal;
layers = (
{
layerId = "768AC6A3-7B22-44CA-A065-BD21741E715A";
paths = (
{
closed = 1;
nodes = (
"465 321 LINE",
"40 321 LINE",
"40 301 LINE",
"465 301 LINE"
);
},
{
closed = 1;
nodes = (
"465 165 LINE",
"40 165 LINE",
"40 145 LINE",
"465 145 LINE"
);
},
{
closed = 1;
nodes = (
"377 389 LINE",
"95 71 LINE",
"109 58 LINE",
"392 375 LINE"
);
}
);
width = 505;
}
);
unicode = 2260;
},
{
glyphname = lessequal;
layers = (
{
layerId = "768AC6A3-7B22-44CA-A065-BD21741E715A";
paths = (
{
closed = 1;
nodes = (
"454 11 LINE",
"454 31 LINE",
"31 31 LINE",
"31 11 LINE"
);
},
{
closed = 1;
nodes = (
"67 296 LINE",
"454 433 LINE",
"454 455 LINE",
"31 303 LINE",
"31 290 LINE",
"454 136 LINE",
"454 159 LINE"
);
}
);
width = 483;
}
);
unicode = 2264;
},
{
glyphname = greaterequal;
layers = (
{
layerId = "768AC6A3-7B22-44CA-A065-BD21741E715A";
paths = (
{
closed = 1;
nodes = (
"453 31 LINE",
"30 31 LINE",
"30 11 LINE",
"453 11 LINE"
);
},
{
closed = 1;
nodes = (
"30 136 LINE",
"453 290 LINE",
"453 303 LINE",
"30 455 LINE",
"30 433 LINE",
"417 296 LINE",
"30 159 LINE"
);
}
);
width = 483;
}
);
unicode = 2265;
},
{
glyphname = lozenge;
layers = (
{
layerId = "768AC6A3-7B22-44CA-A065-BD21741E715A";
paths = (
{
closed = 1;
nodes = (
"74 268 LINE",
"207 46 LINE",
"340 268 LINE",
"207 491 LINE"
);
},
{
closed = 1;
nodes = (
"207 -4 LINE",
"40 268 LINE",
"207 541 LINE",
"373 268 LINE"
);
}
);
width = 413;
}
);
unicode = 25CA;
},
{
glyphname = fi;
layers = (
{
layerId = "768AC6A3-7B22-44CA-A065-BD21741E715A";
paths = (
{
closed = 1;
nodes = (
"385 682 OFFCURVE",
"419 657 OFFCURVE",
"424 645 CURVE SMOOTH",
"429 633 OFFCURVE",
"413 621 OFFCURVE",
"407 597 CURVE",
"402 574 OFFCURVE",
"409 549 OFFCURVE",
"432 528 CURVE SMOOTH",
"462 502 OFFCURVE",
"508 510 OFFCURVE",
"532 538 CURVE SMOOTH",
"561 572 OFFCURVE",
"552 624 OFFCURVE",
"516 654 CURVE SMOOTH",
"442 716 OFFCURVE",
"289 705 OFFCURVE",
"219 670 CURVE SMOOTH",
"132 626 OFFCURVE",
"90 563 OFFCURVE",
"90 460 CURVE",
"30 460 LINE",
"30 440 LINE",
"90 440 LINE",
"90 20 LINE",
"40 20 LINE",
"40 0 LINE",
"290 0 LINE",
"290 20 LINE",
"240 20 LINE",
"240 440 LINE",
"370 440 LINE",
"370 460 LINE",
"240 460 LINE",
"240 591 OFFCURVE",
"252 658 OFFCURVE",
"324 671 CURVE SMOOTH"
);
},
{
closed = 1;
nodes = (
"547 460 LINE",
"367 460 LINE",
"367 440 LINE",
"547 440 LINE"
);
},
{
closed = 1;
nodes = (
"557 460 LINE",
"557 460 OFFCURVE",
"407 460 OFFCURVE",
"407 460 CURVE",
"407 1 LINE",
"557 1 LINE"
);
},
{
closed = 1;
nodes = (
"607 20 LINE",
"357 20 LINE",
"357 0 LINE",
"607 0 LINE"
);
}
);
width = 637;
}
);
unicode = FB01;
},
{
glyphname = fl;
layers = (
{
layerId = "768AC6A3-7B22-44CA-A065-BD21741E715A";
paths = (
{
closed = 1;
nodes = (
"557 670 LINE",
"416 712 OFFCURVE",
"306 714 OFFCURVE",
"219 670 CURVE SMOOTH",
"133 627 OFFCURVE",
"90 563 OFFCURVE",
"90 460 CURVE",
"30 460 LINE",
"30 440 LINE",
"90 440 LINE",
"90 20 LINE",
"40 20 LINE",
"40 0 LINE",
"290 0 LINE",
"290 20 LINE",
"240 20 LINE",
"240 440 LINE",
"370 440 LINE",
"370 460 LINE",
"240 460 LINE",
"240 591 OFFCURVE",
"252 657 OFFCURVE",
"324 671 CURVE SMOOTH",
"376 681 OFFCURVE",
"407 639 OFFCURVE",
"407 598 CURVE"
);
},
{
closed = 1;
nodes = (
"357 20 LINE",
"357 0 LINE",
"607 0 LINE",
"607 20 LINE"
);
},
{
closed = 1;
nodes = (
"407 1 LINE",
"557 1 LINE",
"557 670 LINE",
"557 670 OFFCURVE",
"407 670 OFFCURVE",
"407 670 CURVE"
);
}
);
width = 637;
}
);
unicode = FB02;
},
{
glyphname = f_b;
layers = (
{
layerId = "768AC6A3-7B22-44CA-A065-BD21741E715A";
paths = (
{
closed = 1;
nodes = (
"557 394 LINE",
"574 428 OFFCURVE",
"598 441 OFFCURVE",
"624 441 CURVE SMOOTH",
"671 441 OFFCURVE",
"724 374 OFFCURVE",
"724 231 CURVE SMOOTH",
"724 81 OFFCURVE",
"674 13 OFFCURVE",
"627 13 CURVE SMOOTH",
"580 13 OFFCURVE",
"557 52 OFFCURVE",
"557 156 CURVE"
);
},
{
closed = 1;
nodes = (
"407 0 LINE",
"426 0 LINE",
"426 41 OFFCURVE",
"447 70 OFFCURVE",
"471 70 CURVE SMOOTH",
"525 70 OFFCURVE",
"556 -9 OFFCURVE",
"650 -9 CURVE",
"731 -9 OFFCURVE",
"875 32 OFFCURVE",
"875 230 CURVE SMOOTH",
"875 398 OFFCURVE",
"779 482 OFFCURVE",
"686 482 CURVE SMOOTH",
"636 482 OFFCURVE",
"579 462 OFFCURVE",
"557 424 CURVE",
"557 670 LINE",
"416 712 OFFCURVE",
"306 714 OFFCURVE",
"219 670 CURVE SMOOTH",
"133 627 OFFCURVE",
"90 563 OFFCURVE",
"90 460 CURVE",
"30 460 LINE",
"30 440 LINE",
"90 440 LINE",
"90 20 LINE",
"40 20 LINE",
"40 0 LINE",
"290 0 LINE",
"290 20 LINE",
"240 20 LINE",
"240 440 LINE",
"370 440 LINE",
"370 460 LINE",
"240 460 LINE",
"240 591 OFFCURVE",
"252 657 OFFCURVE",
"324 671 CURVE SMOOTH",
"376 681 OFFCURVE",
"407 639 OFFCURVE",
"407 598 CURVE"
);
}
);
width = 905;
}
);
},
{
glyphname = f_f;
layers = (
{
layerId = "768AC6A3-7B22-44CA-A065-BD21741E715A";
paths = (
{
closed = 1;
nodes = (
"240 460 LINE",
"240 591 OFFCURVE",
"251 639 OFFCURVE",
"314 653 CURVE SMOOTH",
"370 666 OFFCURVE",
"436 635 OFFCURVE",
"413 558 CURVE SMOOTH",
"403 525 OFFCURVE",
"400 501 OFFCURVE",
"400 460 CURVE"
);
},
{
closed = 1;
nodes = (
"290 0 LINE",
"290 20 LINE",
"240 20 LINE",
"240 440 LINE",
"400 440 LINE",
"400 20 LINE",
"350 20 LINE",
"350 0 LINE",
"600 0 LINE",
"600 20 LINE",
"550 20 LINE",
"550 440 LINE",
"680 440 LINE",
"680 460 LINE",
"550 460 LINE",
"550 588 OFFCURVE",
"559 660 OFFCURVE",
"598 660 CURVE",
"625 660 OFFCURVE",
"636 636 OFFCURVE",
"636 591 CURVE",
"636 548 OFFCURVE",
"659 531 OFFCURVE",
"690 531 CURVE SMOOTH",
"717 531 OFFCURVE",
"742 549 OFFCURVE",
"742 582 CURVE SMOOTH",
"742 629 OFFCURVE",
"698 680 OFFCURVE",
"598 680 CURVE SMOOTH",
"550 680 OFFCURVE",
"511 671 OFFCURVE",
"481 652 CURVE",
"402 696 OFFCURVE",
"272 683 OFFCURVE",
"209 652 CURVE SMOOTH",
"122 608 OFFCURVE",
"90 533 OFFCURVE",
"90 460 CURVE",
"30 460 LINE",
"30 440 LINE",
"90 440 LINE",
"90 20 LINE",
"40 20 LINE",
"40 0 LINE"
);
}
);
width = 752;
}
);
unicode = FB00;
},
{
glyphname = f_f_b;
layers = (
{
layerId = "768AC6A3-7B22-44CA-A065-BD21741E715A";
paths = (
{
closed = 1;
nodes = (
"1047 -9 OFFCURVE",
"1191 32 OFFCURVE",
"1191 230 CURVE SMOOTH",
"1191 398 OFFCURVE",
"1095 482 OFFCURVE",
"1002 482 CURVE SMOOTH",
"952 482 OFFCURVE",
"895 462 OFFCURVE",
"873 424 CURVE",
"873 670 LINE",
"732 712 OFFCURVE",
"622 714 OFFCURVE",
"535 670 CURVE",
"494 646 LINE",
"402 695 OFFCURVE",
"272 683 OFFCURVE",
"209 652 CURVE SMOOTH",
"122 608 OFFCURVE",
"90 533 OFFCURVE",
"90 460 CURVE",
"30 460 LINE",
"30 440 LINE",
"90 440 LINE",
"90 20 LINE",
"40 20 LINE",
"40 0 LINE",
"290 0 LINE",
"290 20 LINE",
"240 20 LINE",
"240 440 LINE",
"406 440 LINE",
"406 20 LINE",
"356 20 LINE",
"356 0 LINE",
"606 0 LINE",
"606 20 LINE",
"556 20 LINE",
"556 440 LINE",
"686 440 LINE",
"686 460 LINE",
"556 460 LINE",
"556 591 OFFCURVE",
"568 657 OFFCURVE",
"640 671 CURVE SMOOTH",
"692 681 OFFCURVE",
"723 639 OFFCURVE",
"723 598 CURVE",
"723 0 LINE",
"742 0 LINE",
"742 41 OFFCURVE",
"763 70 OFFCURVE",
"787 70 CURVE SMOOTH",
"841 70 OFFCURVE",
"872 -9 OFFCURVE",
"966 -9 CURVE SMOOTH"
);
},
{
closed = 1;
nodes = (
"240 460 LINE",
"240 591 OFFCURVE",
"251 639 OFFCURVE",
"314 653 CURVE SMOOTH",
"370 666 OFFCURVE",
"442 635 OFFCURVE",
"419 558 CURVE SMOOTH",
"409 525 OFFCURVE",
"406 501 OFFCURVE",
"406 460 CURVE"
);
},
{
closed = 1;
nodes = (
"873 394 LINE",
"890 428 OFFCURVE",
"914 441 OFFCURVE",
"940 441 CURVE SMOOTH",
"987 441 OFFCURVE",
"1040 374 OFFCURVE",
"1040 231 CURVE SMOOTH",
"1040 81 OFFCURVE",
"990 13 OFFCURVE",
"943 13 CURVE SMOOTH",
"896 13 OFFCURVE",
"873 52 OFFCURVE",
"873 156 CURVE"
);
}
);
width = 1221;
}
);
},
{
glyphname = f_f_h;
layers = (
{
layerId = "768AC6A3-7B22-44CA-A065-BD21741E715A";
paths = (
{
closed = 1;
nodes = (
"673 20 LINE",
"673 0 LINE",
"923 0 LINE",
"923 20 LINE"
);
},
{
closed = 1;
nodes = (
"409 525 OFFCURVE",
"406 501 OFFCURVE",
"406 460 CURVE",
"240 460 LINE",
"240 591 OFFCURVE",
"251 639 OFFCURVE",
"314 653 CURVE SMOOTH",
"370 666 OFFCURVE",
"442 635 OFFCURVE",
"419 558 CURVE SMOOTH"
);
},
{
closed = 1;
nodes = (
"981 20 LINE",
"981 0 LINE",
"1231 0 LINE",
"1231 20 LINE"
);
},
{
closed = 1;
nodes = (
"863 351 LINE",
"885 404 OFFCURVE",
"923 431 OFFCURVE",
"964 431 CURVE SMOOTH",
"1018 431 OFFCURVE",
"1048 398 OFFCURVE",
"1048 300 CURVE SMOOTH",
"1048 14 LINE",
"1198 14 LINE",
"1198 278 LINE SMOOTH",
"1198 405 OFFCURVE",
"1137 471 OFFCURVE",
"1020 471 CURVE SMOOTH",
"941 471 OFFCURVE",
"874 429 OFFCURVE",
"863 387 CURVE"
);
},
{
closed = 1;
nodes = (
"494 646 LINE",
"402 695 OFFCURVE",
"272 683 OFFCURVE",
"209 652 CURVE SMOOTH",
"122 608 OFFCURVE",
"90 533 OFFCURVE",
"90 460 CURVE",
"30 460 LINE",
"30 440 LINE",
"90 440 LINE",
"90 20 LINE",
"40 20 LINE",
"40 0 LINE",
"290 0 LINE",
"290 20 LINE",
"240 20 LINE",
"240 440 LINE",
"406 440 LINE",
"406 20 LINE",
"356 20 LINE",
"356 0 LINE",
"606 0 LINE",
"606 20 LINE",
"556 20 LINE",
"556 440 LINE",
"686 440 LINE",
"686 460 LINE",
"556 460 LINE",
"556 591 OFFCURVE",
"568 657 OFFCURVE",
"640 671 CURVE SMOOTH",
"692 681 OFFCURVE",
"723 639 OFFCURVE",
"723 598 CURVE SMOOTH",
"723 1 LINE",
"873 1 LINE",
"873 670 LINE",
"760 722 OFFCURVE",
"622 714 OFFCURVE",
"535 670 CURVE"
);
}
);
width = 1261;
}
);
},
{
glyphname = f_f_i;
layers = (
{
layerId = "768AC6A3-7B22-44CA-A065-BD21741E715A";
paths = (
{
closed = 1;
nodes = (
"917 20 LINE",
"667 20 LINE",
"667 0 LINE",
"917 0 LINE"
);
},
{
closed = 1;
nodes = (
"867 460 LINE",
"867 460 OFFCURVE",
"717 460 OFFCURVE",
"717 460 CURVE",
"717 1 LINE",
"867 1 LINE"
);
},
{
closed = 1;
nodes = (
"240 460 LINE",
"240 591 OFFCURVE",
"251 639 OFFCURVE",
"314 653 CURVE SMOOTH",
"370 666 OFFCURVE",
"436 635 OFFCURVE",
"413 558 CURVE SMOOTH",
"403 525 OFFCURVE",
"400 501 OFFCURVE",
"400 460 CURVE"
);
},
{
closed = 1;
nodes = (
"290 0 LINE",
"290 20 LINE",
"240 20 LINE",
"240 440 LINE",
"400 440 LINE",
"400 20 LINE",
"350 20 LINE",
"350 0 LINE",
"600 0 LINE",
"600 20 LINE",
"550 20 LINE",
"550 440 LINE",
"857 440 LINE",
"857 460 LINE",
"550 460 LINE",
"550 591 OFFCURVE",
"562 658 OFFCURVE",
"634 671 CURVE SMOOTH",
"695 682 OFFCURVE",
"729 657 OFFCURVE",
"734 645 CURVE SMOOTH",
"739 633 OFFCURVE",
"723 621 OFFCURVE",
"717 597 CURVE",
"712 574 OFFCURVE",
"719 549 OFFCURVE",
"742 528 CURVE SMOOTH",
"772 502 OFFCURVE",
"818 510 OFFCURVE",
"842 538 CURVE SMOOTH",
"871 572 OFFCURVE",
"862 624 OFFCURVE",
"826 654 CURVE SMOOTH",
"752 716 OFFCURVE",
"599 705 OFFCURVE",
"529 670 CURVE",
"518 664 OFFCURVE",
"507 658 OFFCURVE",
"497 652 CURVE",
"419 689 OFFCURVE",
"272 683 OFFCURVE",
"209 652 CURVE SMOOTH",
"122 608 OFFCURVE",
"90 533 OFFCURVE",
"90 460 CURVE",
"30 460 LINE",
"30 440 LINE",
"90 440 LINE",
"90 20 LINE",
"40 20 LINE",
"40 0 LINE"
);
}
);
width = 947;
}
);
unicode = FB03;
},
{
glyphname = f_f_j;
layers = (
{
layerId = "768AC6A3-7B22-44CA-A065-BD21741E715A";
paths = (
{
closed = 1;
nodes = (
"240 460 LINE",
"240 591 OFFCURVE",
"251 639 OFFCURVE",
"314 653 CURVE SMOOTH",
"370 666 OFFCURVE",
"436 635 OFFCURVE",
"413 558 CURVE SMOOTH",
"403 525 OFFCURVE",
"400 501 OFFCURVE",
"400 460 CURVE"
);
},
{
closed = 1;
nodes = (
"798 -220 OFFCURVE",
"857 -142 OFFCURVE",
"857 0 CURVE",
"857 460 LINE",
"550 460 LINE",
"550 591 OFFCURVE",
"562 658 OFFCURVE",
"634 671 CURVE SMOOTH",
"695 682 OFFCURVE",
"729 657 OFFCURVE",
"734 645 CURVE SMOOTH",
"739 633 OFFCURVE",
"723 621 OFFCURVE",
"717 597 CURVE",
"712 574 OFFCURVE",
"719 549 OFFCURVE",
"742 528 CURVE SMOOTH",
"772 502 OFFCURVE",
"818 510 OFFCURVE",
"842 538 CURVE SMOOTH",
"871 572 OFFCURVE",
"862 624 OFFCURVE",
"826 654 CURVE SMOOTH",
"752 716 OFFCURVE",
"599 705 OFFCURVE",
"529 670 CURVE",
"518 664 OFFCURVE",
"507 658 OFFCURVE",
"497 652 CURVE",
"419 689 OFFCURVE",
"272 683 OFFCURVE",
"209 652 CURVE SMOOTH",
"122 608 OFFCURVE",
"90 533 OFFCURVE",
"90 460 CURVE",
"30 460 LINE",
"30 440 LINE",
"90 440 LINE",
"90 20 LINE",
"40 20 LINE",
"40 0 LINE",
"290 0 LINE",
"290 20 LINE",
"240 20 LINE",
"240 440 LINE",
"400 440 LINE",
"400 20 LINE",
"350 20 LINE",
"350 0 LINE",
"600 0 LINE",
"600 20 LINE",
"550 20 LINE",
"550 440 LINE",
"707 440 LINE",
"707 0 LINE",
"707 -128 OFFCURVE",
"698 -200 OFFCURVE",
"659 -200 CURVE",
"632 -200 OFFCURVE",
"621 -176 OFFCURVE",
"621 -131 CURVE",
"621 -88 OFFCURVE",
"598 -71 OFFCURVE",
"567 -71 CURVE SMOOTH",
"540 -71 OFFCURVE",
"515 -89 OFFCURVE",
"515 -122 CURVE SMOOTH",
"515 -169 OFFCURVE",
"549 -220 OFFCURVE",
"659 -220 CURVE SMOOTH"
);
}
);
width = 919;
}
);
},
{
glyphname = f_f_k;
layers = (
{
layerId = "768AC6A3-7B22-44CA-A065-BD21741E715A";
paths = (
{
closed = 1;
nodes = (
"1191 460 LINE",
"1001 460 LINE",
"1001 440 LINE",
"1191 440 LINE"
);
},
{
closed = 1;
nodes = (
"923 20 LINE",
"673 20 LINE",
"673 0 LINE",
"923 0 LINE"
);
},
{
closed = 1;
nodes = (
"859 188 LINE",
"873 202 LINE",
"1131 459 LINE",
"1101 459 LINE",
"873 232 LINE",
"829 188 LINE"
);
},
{
closed = 1;
nodes = (
"1241 20 LINE",
"1213 20 OFFCURVE",
"1169 56 OFFCURVE",
"1112 141 CURVE SMOOTH",
"990 324 LINE",
"878 226 LINE",
"949 117 LINE SMOOTH",
"1019 9 OFFCURVE",
"1067 0 OFFCURVE",
"1241 0 CURVE"
);
},
{
closed = 1;
nodes = (
"240 460 LINE",
"240 591 OFFCURVE",
"251 639 OFFCURVE",
"314 653 CURVE SMOOTH",
"370 666 OFFCURVE",
"442 635 OFFCURVE",
"419 558 CURVE SMOOTH",
"409 525 OFFCURVE",
"406 501 OFFCURVE",
"406 460 CURVE"
);
},
{
closed = 1;
nodes = (
"873 670 LINE",
"732 712 OFFCURVE",
"622 714 OFFCURVE",
"535 670 CURVE",
"494 646 LINE",
"402 695 OFFCURVE",
"272 683 OFFCURVE",
"209 652 CURVE SMOOTH",
"122 608 OFFCURVE",
"90 533 OFFCURVE",
"90 460 CURVE",
"30 460 LINE",
"30 440 LINE",
"90 440 LINE",
"90 20 LINE",
"40 20 LINE",
"40 0 LINE",
"290 0 LINE",
"290 20 LINE",
"240 20 LINE",
"240 440 LINE",
"406 440 LINE",
"406 20 LINE",
"356 20 LINE",
"356 0 LINE",
"606 0 LINE",
"606 20 LINE",
"556 20 LINE",
"556 440 LINE",
"686 440 LINE",
"686 460 LINE",
"556 460 LINE",
"556 591 OFFCURVE",
"568 657 OFFCURVE",
"640 671 CURVE SMOOTH",
"692 681 OFFCURVE",
"723 639 OFFCURVE",
"723 598 CURVE"
);
},
{
closed = 1;
nodes = (
"873 670 LINE",
"873 670 OFFCURVE",
"723 670 OFFCURVE",
"723 670 CURVE",
"723 1 LINE",
"873 1 LINE"
);
}
);
width = 1251;
}
);
},
{
glyphname = f_f_l;
layers = (
{
layerId = "768AC6A3-7B22-44CA-A065-BD21741E715A";
paths = (
{
closed = 1;
nodes = (
"873 670 LINE",
"732 712 OFFCURVE",
"622 714 OFFCURVE",
"535 670 CURVE",
"494 646 LINE",
"402 695 OFFCURVE",
"272 683 OFFCURVE",
"209 652 CURVE SMOOTH",
"122 608 OFFCURVE",
"90 533 OFFCURVE",
"90 460 CURVE",
"30 460 LINE",
"30 440 LINE",
"90 440 LINE",
"90 20 LINE",
"40 20 LINE",
"40 0 LINE",
"290 0 LINE",
"290 20 LINE",
"240 20 LINE",
"240 440 LINE",
"406 440 LINE",
"406 20 LINE",
"356 20 LINE",
"356 0 LINE",
"606 0 LINE",
"606 20 LINE",
"556 20 LINE",
"556 440 LINE",
"686 440 LINE",
"686 460 LINE",
"556 460 LINE",
"556 591 OFFCURVE",
"568 657 OFFCURVE",
"640 671 CURVE SMOOTH",
"692 681 OFFCURVE",
"723 639 OFFCURVE",
"723 598 CURVE"
);
},
{
closed = 1;
nodes = (
"240 460 LINE",
"240 591 OFFCURVE",
"251 639 OFFCURVE",
"314 653 CURVE SMOOTH",
"370 666 OFFCURVE",
"442 635 OFFCURVE",
"419 558 CURVE SMOOTH",
"409 525 OFFCURVE",
"406 501 OFFCURVE",
"406 460 CURVE"
);
},
{
closed = 1;
nodes = (
"923 20 LINE",
"673 20 LINE",
"673 0 LINE",
"923 0 LINE"
);
},
{
closed = 1;
nodes = (
"873 670 LINE",
"873 670 OFFCURVE",
"723 670 OFFCURVE",
"723 670 CURVE",
"723 1 LINE",
"873 1 LINE"
);
}
);
width = 953;
}
);
unicode = FB04;
},
{
glyphname = f_j;
layers = (
{
layerId = "768AC6A3-7B22-44CA-A065-BD21741E715A";
paths = (
{
closed = 1;
nodes = (
"407 0 LINE",
"407 -128 OFFCURVE",
"398 -200 OFFCURVE",
"359 -200 CURVE",
"332 -200 OFFCURVE",
"321 -176 OFFCURVE",
"321 -131 CURVE",
"321 -88 OFFCURVE",
"298 -71 OFFCURVE",
"267 -71 CURVE SMOOTH",
"240 -71 OFFCURVE",
"215 -89 OFFCURVE",
"215 -122 CURVE SMOOTH",
"215 -169 OFFCURVE",
"249 -220 OFFCURVE",
"359 -220 CURVE SMOOTH",
"498 -220 OFFCURVE",
"557 -142 OFFCURVE",
"557 0 CURVE",
"557 0 OFFCURVE",
"557 460 OFFCURVE",
"557 460 CURVE",
"357 460 LINE",
"357 440 LINE",
"407 440 LINE"
);
},
{
closed = 1;
nodes = (
"385 682 OFFCURVE",
"419 657 OFFCURVE",
"424 645 CURVE SMOOTH",
"429 633 OFFCURVE",
"413 621 OFFCURVE",
"407 597 CURVE",
"402 574 OFFCURVE",
"409 549 OFFCURVE",
"432 528 CURVE SMOOTH",
"462 502 OFFCURVE",
"508 510 OFFCURVE",
"532 538 CURVE SMOOTH",
"561 572 OFFCURVE",
"552 624 OFFCURVE",
"516 654 CURVE SMOOTH",
"442 716 OFFCURVE",
"289 705 OFFCURVE",
"219 670 CURVE SMOOTH",
"132 626 OFFCURVE",
"90 563 OFFCURVE",
"90 460 CURVE",
"30 460 LINE",
"30 440 LINE",
"90 440 LINE",
"90 20 LINE",
"40 20 LINE",
"40 0 LINE",
"290 0 LINE",
"290 20 LINE",
"240 20 LINE",
"240 440 LINE",
"370 440 LINE",
"370 460 LINE",
"240 460 LINE",
"240 591 OFFCURVE",
"252 658 OFFCURVE",
"324 671 CURVE SMOOTH"
);
}
);
width = 617;
}
);
},
{
glyphname = f_k;
layers = (
{
layerId = "768AC6A3-7B22-44CA-A065-BD21741E715A";
paths = (
{
closed = 1;
nodes = (
"543 188 LINE",
"557 202 LINE",
"815 459 LINE",
"785 459 LINE",
"557 232 LINE",
"513 188 LINE"
);
},
{
closed = 1;
nodes = (
"875 460 LINE",
"685 460 LINE",
"685 440 LINE",
"875 440 LINE"
);
},
{
closed = 1;
nodes = (
"925 20 LINE",
"897 20 OFFCURVE",
"853 56 OFFCURVE",
"796 141 CURVE SMOOTH",
"674 324 LINE",
"562 226 LINE",
"633 117 LINE SMOOTH",
"703 9 OFFCURVE",
"751 0 OFFCURVE",
"925 0 CURVE"
);
},
{
closed = 1;
nodes = (
"607 20 LINE",
"357 20 LINE",
"357 0 LINE",
"607 0 LINE"
);
},
{
closed = 1;
nodes = (
"133 627 OFFCURVE",
"90 563 OFFCURVE",
"90 460 CURVE",
"30 460 LINE",
"30 440 LINE",
"90 440 LINE",
"90 20 LINE",
"40 20 LINE",
"40 0 LINE",
"290 0 LINE",
"290 20 LINE",
"240 20 LINE",
"240 440 LINE",
"370 440 LINE",
"370 460 LINE",
"240 460 LINE",
"240 591 OFFCURVE",
"252 657 OFFCURVE",
"324 671 CURVE SMOOTH",
"376 681 OFFCURVE",
"407 639 OFFCURVE",
"407 598 CURVE",
"557 670 LINE",
"416 712 OFFCURVE",
"306 714 OFFCURVE",
"219 670 CURVE SMOOTH"
);
},
{
closed = 1;
nodes = (
"557 670 LINE",
"557 670 OFFCURVE",
"407 670 OFFCURVE",
"407 670 CURVE",
"407 1 LINE",
"557 1 LINE"
);
}
);
width = 935;
}
);
},
{
color = (153, 154, 255, 255);
glyphname = ordfeminine;
layers = (
{
layerId = "9AA66C3A-7432-4756-9CDC-A7707DD6A367";
name = img;
width = 285;
},
{
layerId = "768AC6A3-7B22-44CA-A065-BD21741E715A";
paths = (
{
closed = 1;
nodes = (
"108 350 OFFCURVE",
"90 359 OFFCURVE",
"90 390 CURVE SMOOTH",
"90 423 OFFCURVE",
"114 432 OFFCURVE",
"140 437 CURVE SMOOTH",
"157 440 LINE",
"157 365 LINE",
"151 357 OFFCURVE",
"142 350 OFFCURVE",
"128 350 CURVE SMOOTH"
);
},
{
closed = 1;
nodes = (
"232 327 OFFCURVE",
"253 333 OFFCURVE",
"261 339 CURVE",
"261 349 LINE",
"257 348 OFFCURVE",
"252 347 OFFCURVE",
"249 347 CURVE SMOOTH",
"236 347 OFFCURVE",
"231 356 OFFCURVE",
"231 385 CURVE SMOOTH",
"231 467 LINE SMOOTH",
"231 536 OFFCURVE",
"203 562 OFFCURVE",
"135 562 CURVE SMOOTH",
"63 562 OFFCURVE",
"33 527 OFFCURVE",
"33 497 CURVE SMOOTH",
"33 477 OFFCURVE",
"47 461 OFFCURVE",
"70 461 CURVE SMOOTH",
"93 461 OFFCURVE",
"106 477 OFFCURVE",
"106 497 CURVE SMOOTH",
"106 514 OFFCURVE",
"98 521 OFFCURVE",
"98 535 CURVE SMOOTH",
"98 543 OFFCURVE",
"103 549 OFFCURVE",
"123 549 CURVE SMOOTH",
"154 549 OFFCURVE",
"157 530 OFFCURVE",
"157 477 CURVE SMOOTH",
"157 453 LINE",
"138 450 LINE",
"50 439 OFFCURVE",
"23 417 OFFCURVE",
"23 378 CURVE SMOOTH",
"23 340 OFFCURVE",
"51 325 OFFCURVE",
"85 325 CURVE SMOOTH",
"118 325 OFFCURVE",
"143 333 OFFCURVE",
"160 350 CURVE",
"170 331 OFFCURVE",
"189 327 OFFCURVE",
"215 327 CURVE SMOOTH"
);
}
);
width = 285;
}
);
unicode = 00AA;
},
{
color = (153, 154, 255, 255);
glyphname = ordmasculine;
layers = (
{
layerId = "9AA66C3A-7432-4756-9CDC-A7707DD6A367";
name = img;
width = 287;
},
{
layerId = "7235136D-3CF1-47D2-8391-CCDCEC602622";
name = public.background;
paths = (
{
closed = 1;
nodes = (
"108 350 OFFCURVE",
"90 359 OFFCURVE",
"90 390 CURVE SMOOTH",
"90 423 OFFCURVE",
"114 432 OFFCURVE",
"140 437 CURVE SMOOTH",
"157 440 LINE",
"157 365 LINE",
"151 357 OFFCURVE",
"142 350 OFFCURVE",
"128 350 CURVE SMOOTH"
);
},
{
closed = 1;
nodes = (
"232 327 OFFCURVE",
"253 333 OFFCURVE",
"261 339 CURVE",
"261 349 LINE",
"257 348 OFFCURVE",
"252 347 OFFCURVE",
"249 347 CURVE SMOOTH",
"236 347 OFFCURVE",
"231 356 OFFCURVE",
"231 385 CURVE SMOOTH",
"231 467 LINE SMOOTH",
"231 536 OFFCURVE",
"203 562 OFFCURVE",
"135 562 CURVE SMOOTH",
"63 562 OFFCURVE",
"33 527 OFFCURVE",
"33 497 CURVE SMOOTH",
"33 477 OFFCURVE",
"47 461 OFFCURVE",
"70 461 CURVE SMOOTH",
"93 461 OFFCURVE",
"106 477 OFFCURVE",
"106 497 CURVE SMOOTH",
"106 514 OFFCURVE",
"98 521 OFFCURVE",
"98 535 CURVE SMOOTH",
"98 543 OFFCURVE",
"103 549 OFFCURVE",
"123 549 CURVE SMOOTH",
"154 549 OFFCURVE",
"157 530 OFFCURVE",
"157 477 CURVE SMOOTH",
"157 453 LINE",
"138 450 LINE",
"50 439 OFFCURVE",
"23 417 OFFCURVE",
"23 378 CURVE SMOOTH",
"23 340 OFFCURVE",
"51 325 OFFCURVE",
"85 325 CURVE SMOOTH",
"118 325 OFFCURVE",
"143 333 OFFCURVE",
"160 350 CURVE",
"170 331 OFFCURVE",
"189 327 OFFCURVE",
"215 327 CURVE SMOOTH"
);
}
);
width = 287;
},
{
layerId = "768AC6A3-7B22-44CA-A065-BD21741E715A";
paths = (
{
closed = 1;
nodes = (
"202 325 OFFCURVE",
"270 362 OFFCURVE",
"270 442 CURVE SMOOTH",
"270 526 OFFCURVE",
"202 562 OFFCURVE",
"145 562 CURVE",
"88 562 OFFCURVE",
"21 526 OFFCURVE",
"21 442 CURVE SMOOTH",
"21 362 OFFCURVE",
"88 325 OFFCURVE",
"145 325 CURVE SMOOTH"
);
},
{
closed = 1;
nodes = (
"109 339 OFFCURVE",
"97 367 OFFCURVE",
"97 442 CURVE SMOOTH",
"97 520 OFFCURVE",
"109 548 OFFCURVE",
"145 548 CURVE",
"181 548 OFFCURVE",
"195 520 OFFCURVE",
"195 442 CURVE",
"195 367 OFFCURVE",
"181 339 OFFCURVE",
"145 339 CURVE SMOOTH"
);
}
);
width = 287;
}
);
unicode = 00BA;
},
{
color = (153, 154, 255, 255);
glyphname = pi;
layers = (
{
layerId = "9AA66C3A-7432-4756-9CDC-A7707DD6A367";
name = img;
width = 646;
},
{
guideLines = (
{
position = "{0, 460}";
}
);
layerId = "768AC6A3-7B22-44CA-A065-BD21741E715A";
paths = (
{
closed = 1;
nodes = (
"556 460 LINE",
"406 460 LINE",
"406 1 LINE",
"556 1 LINE"
);
},
{
closed = 1;
nodes = (
"626 460 LINE",
"226 460 LINE",
"226 440 LINE",
"626 440 LINE"
);
},
{
closed = 1;
nodes = (
"290 460 LINE",
"20 460 LINE",
"20 440 LINE",
"290 440 LINE"
);
},
{
closed = 1;
nodes = (
"240 460 LINE",
"90 460 LINE",
"90 1 LINE",
"240 1 LINE"
);
}
);
width = 646;
}
);
unicode = 03C0;
},
{
color = (153, 154, 255, 255);
glyphname = divisionslash;
layers = (
{
layerId = "9AA66C3A-7432-4756-9CDC-A7707DD6A367";
name = img;
width = 277;
},
{
layerId = "768AC6A3-7B22-44CA-A065-BD21741E715A";
paths = (
{
closed = 1;
nodes = (
"40 1 LINE",
"59 -5 LINE",
"224 559 LINE",
"206 564 LINE"
);
}
);
width = 277;
}
);
unicode = 2215;
},
{
color = (153, 154, 255, 255);
glyphname = integral;
layers = (
{
layerId = "9AA66C3A-7432-4756-9CDC-A7707DD6A367";
name = img;
width = 587;
},
{
layerId = "768AC6A3-7B22-44CA-A065-BD21741E715A";
paths = (
{
closed = 1;
nodes = (
"363 460 LINE SMOOTH",
"363 588 OFFCURVE",
"372 660 OFFCURVE",
"411 660 CURVE",
"438 660 OFFCURVE",
"449 636 OFFCURVE",
"449 591 CURVE",
"449 548 OFFCURVE",
"472 531 OFFCURVE",
"503 531 CURVE SMOOTH",
"530 531 OFFCURVE",
"555 549 OFFCURVE",
"555 582 CURVE SMOOTH",
"555 629 OFFCURVE",
"511 680 OFFCURVE",
"411 680 CURVE SMOOTH",
"272 680 OFFCURVE",
"213 602 OFFCURVE",
"213 460 CURVE",
"213 70 LINE",
"213 -58 OFFCURVE",
"204 -130 OFFCURVE",
"165 -130 CURVE SMOOTH",
"138 -130 OFFCURVE",
"127 -106 OFFCURVE",
"127 -61 CURVE SMOOTH",
"127 -18 OFFCURVE",
"104 -1 OFFCURVE",
"73 -1 CURVE SMOOTH",
"46 -1 OFFCURVE",
"21 -19 OFFCURVE",
"21 -52 CURVE SMOOTH",
"21 -99 OFFCURVE",
"65 -150 OFFCURVE",
"165 -150 CURVE SMOOTH",
"304 -150 OFFCURVE",
"363 -72 OFFCURVE",
"363 70 CURVE"
);
}
);
width = 587;
}
);
unicode = 222B;
},
{
color = (153, 154, 255, 255);
glyphname = turkishlira;
layers = (
{
layerId = "768AC6A3-7B22-44CA-A065-BD21741E715A";
paths = (
{
closed = 1;
nodes = (
"482 101 OFFCURVE",
"416 20 OFFCURVE",
"240 20 CURVE",
"240 540 LINE",
"290 540 LINE",
"290 560 LINE",
"40 560 LINE",
"40 540 LINE",
"90 540 LINE",
"90 20 LINE",
"40 20 LINE",
"40 0 LINE",
"240 0 LINE SMOOTH",
"413 0 OFFCURVE",
"532 88 OFFCURVE",
"532 224 CURVE SMOOTH",
"532 302 OFFCURVE",
"485 333 OFFCURVE",
"440 333 CURVE SMOOTH",
"405 333 OFFCURVE",
"376 317 OFFCURVE",
"376 276 CURVE SMOOTH",
"376 243 OFFCURVE",
"398 224 OFFCURVE",
"434 224 CURVE SMOOTH",
"452 224 OFFCURVE",
"465 233 OFFCURVE",
"473 233 CURVE SMOOTH",
"479 233 OFFCURVE",
"482 228 OFFCURVE",
"482 209 CURVE SMOOTH"
);
},
{
closed = 1;
nodes = (
"336 321 LINE",
"30 259 LINE",
"30 239 LINE",
"336 301 LINE"
);
},
{
closed = 1;
nodes = (
"336 450 LINE",
"30 388 LINE",
"30 368 LINE",
"336 430 LINE"
);
}
);
width = 572;
}
);
unicode = 20BA;
},
{
color = (153, 154, 255, 255);
glyphname = ruble;
layers = (
{
layerId = "7235136D-3CF1-47D2-8391-CCDCEC602622";
name = public.background;
paths = (
{
closed = 1;
nodes = (
"290 20 LINE",
"240 20 LINE",
"240 194 LINE",
"438 184 OFFCURVE",
"533 254 OFFCURVE",
"533 371 CURVE SMOOTH",
"533 499 OFFCURVE",
"447 570 OFFCURVE",
"239 560 CURVE",
"40 560 LINE",
"40 540 LINE",
"90 540 LINE",
"90 20 LINE",
"40 20 LINE",
"40 0 LINE",
"290 0 LINE"
);
},
{
closed = 1;
nodes = (
"240 540 LINE",
"352 540 OFFCURVE",
"382 490 OFFCURVE",
"382 372 CURVE SMOOTH",
"382 260 OFFCURVE",
"352 214 OFFCURVE",
"240 214 CURVE"
);
}
);
width = 563;
},
{
layerId = "768AC6A3-7B22-44CA-A065-BD21741E715A";
paths = (
{
closed = 1;
nodes = (
"290 20 LINE",
"240 20 LINE",
"240 234 LINE",
"438 234 OFFCURVE",
"533 284 OFFCURVE",
"533 391 CURVE SMOOTH",
"533 509 OFFCURVE",
"447 560 OFFCURVE",
"239 560 CURVE",
"40 560 LINE",
"40 540 LINE",
"90 540 LINE",
"90 20 LINE",
"40 20 LINE",
"40 0 LINE",
"290 0 LINE"
);
},
{
closed = 1;
nodes = (
"240 540 LINE",
"352 540 OFFCURVE",
"382 490 OFFCURVE",
"382 392 CURVE SMOOTH",
"382 300 OFFCURVE",
"352 254 OFFCURVE",
"240 254 CURVE"
);
},
{
closed = 1;
nodes = (
"493 125 LINE",
"30 125 LINE",
"30 105 LINE",
"493 105 LINE"
);
},
{
closed = 1;
nodes = (
"210 254 LINE",
"30 254 LINE",
"30 234 LINE",
"210 234 LINE"
);
}
);
width = 563;
}
);
unicode = 20BD;
},
{
color = (153, 154, 255, 255);
glyphname = estimated;
layers = (
{
layerId = "9AA66C3A-7432-4756-9CDC-A7707DD6A367";
name = img;
width = 689;
},
{
layerId = "7235136D-3CF1-47D2-8391-CCDCEC602622";
name = public.background;
paths = (
{
closed = 1;
nodes = (
"558 160 LINE",
"520 94 OFFCURVE",
"448 55 OFFCURVE",
"356 55 CURVE SMOOTH",
"300 55 OFFCURVE",
"248 72 OFFCURVE",
"212 98 CURVE",
"212 269 LINE",
"619 269 LINE",
"620 281 OFFCURVE",
"620 293 OFFCURVE",
"620 299 CURVE SMOOTH",
"620 463 OFFCURVE",
"517 571 OFFCURVE",
"351 571 CURVE SMOOTH",
"175 571 OFFCURVE",
"62 448 OFFCURVE",
"62 285 CURVE SMOOTH",
"62 118 OFFCURVE",
"176 0 OFFCURVE",
"354 0 CURVE SMOOTH",
"467 0 OFFCURVE",
"555 46 OFFCURVE",
"605 132 CURVE"
);
},
{
closed = 1;
nodes = (
"481 289 LINE",
"212 289 LINE",
"212 474 LINE",
"246 502 OFFCURVE",
"299 517 OFFCURVE",
"353 517 CURVE SMOOTH",
"407 517 OFFCURVE",
"453 500 OFFCURVE",
"481 479 CURVE"
);
}
